Datalegreya-Gradient
<glyph name="exclam" format="1">
  <advance width="247"/>
  <unicode hex="0021"/>
  <outline>
    <contour>
      <point x="119" y="34" type="line" smooth="yes"/>
      <point x="131" y="34"/>
      <point x="139" y="26"/>
      <point x="139" y="13" type="curve" smooth="yes"/>
      <point x="139" y="1"/>
      <point x="131" y="-7"/>
      <point x="119" y="-7" type="curve" smooth="yes"/>
      <point x="107" y="-7"/>
      <point x="99" y="1"/>
      <point x="99" y="13" type="curve" smooth="yes"/>
      <point x="99" y="26"/>
      <point x="107" y="34"/>
      <point x="119" y="34" type="curve"/>
    </contour>
    <contour>
      <point x="133" y="156" type="line" smooth="yes"/>
      <point x="117" y="156" type="line"/>
      <point x="113" y="161" type="line"/>
      <point x="120" y="568" type="line"/>
      <point x="123" y="571" type="line"/>
      <point x="137" y="571" type="line"/>
      <point x="140" y="568" type="line"/>
    </contour>
  </outline>
</glyph>
<glyph name="quotedbl" format="1">
  <advance width="222"/>
  <unicode hex="0022"/>
  <outline>
    <contour>
      <point x="79" y="631" type="line"/>
      <point x="76" y="635" type="line"/>
      <point x="59" y="633" type="line"/>
      <point x="47" y="489" type="line"/>
      <point x="50" y="485" type="line"/>
      <point x="67" y="487" type="line"/>
    </contour>
    <contour>
      <point x="176" y="631" type="line"/>
      <point x="173" y="635" type="line"/>
      <point x="156" y="633" type="line"/>
      <point x="144" y="489" type="line"/>
      <point x="147" y="485" type="line"/>
      <point x="164" y="487" type="line"/>
    </contour>
  </outline>
</glyph>
<glyph name="numbersign" format="1">
  <advance width="480"/>
  <unicode hex="0023"/>
  <outline>
    <contour>
      <point x="121" y="145" type="line"/>
      <point x="86" y="-4" type="line"/>
      <point x="89" y="-8" type="line"/>
      <point x="105" y="-8" type="line"/>
      <point x="141" y="145" type="line"/>
      <point x="294" y="145" type="line"/>
      <point x="258" y="-4" type="line"/>
      <point x="261" y="-8" type="line"/>
      <point x="277" y="-8" type="line"/>
      <point x="314" y="145" type="line"/>
      <point x="441" y="145" type="line"/>
      <point x="443" y="162" type="line"/>
      <point x="440" y="165" type="line"/>
      <point x="319" y="165" type="line"/>
      <point x="361" y="339" type="line"/>
      <point x="489" y="339" type="line"/>
      <point x="491" y="356" type="line"/>
      <point x="488" y="359" type="line"/>
      <point x="367" y="359" type="line"/>
      <point x="404" y="508" type="line"/>
      <point x="402" y="513" type="line"/>
      <point x="386" y="513" type="line"/>
      <point x="347" y="359" type="line"/>
      <point x="194" y="359" type="line"/>
      <point x="231" y="508" type="line"/>
      <point x="229" y="513" type="line"/>
      <point x="213" y="513" type="line"/>
      <point x="174" y="359" type="line"/>
      <point x="56" y="359" type="line"/>
      <point x="54" y="342" type="line"/>
      <point x="57" y="339" type="line"/>
      <point x="169" y="339" type="line"/>
      <point x="126" y="165" type="line"/>
      <point x="8" y="165" type="line"/>
      <point x="6" y="148" type="line"/>
      <point x="9" y="145" type="line"/>
    </contour>
    <contour>
      <point x="189" y="339" type="line"/>
      <point x="342" y="339" type="line"/>
      <point x="299" y="165" type="line"/>
      <point x="146" y="165" type="line"/>
    </contour>
  </outline>
</glyph>
<glyph name="parenright" format="1">
  <advance width="281"/>
  <unicode hex="0029"/>
  <outline>
    <contour>
      <point x="6" y="-132" type="line"/>
      <point x="15" y="-143" type="line"/>
      <point x="19" y="-143" type="line"/>
      <point x="140" y="-56"/>
      <point x="185" y="53"/>
      <point x="186" y="260" type="curve"/>
      <point x="185" y="467"/>
      <point x="140" y="576"/>
      <point x="19" y="663" type="curve"/>
      <point x="15" y="663" type="line"/>
      <point x="6" y="652" type="line"/>
      <point x="6" y="648" type="line"/>
      <point x="122" y="565"/>
      <point x="165" y="460"/>
      <point x="166" y="260" type="curve"/>
      <point x="165" y="60"/>
      <point x="122" y="-45"/>
      <point x="6" y="-128" type="curve"/>
    </contour>
  </outline>
</glyph>
<glyph name="greater" format="1">
  <advance width="480"/>
  <unicode hex="003E"/>
  <outline>
    <contour>
      <point x="437" y="284" type="line"/>
      <point x="48" y="455" type="line"/>
      <point x="41" y="441" type="line"/>
      <point x="44" y="436" type="line"/>
      <point x="414" y="272" type="line"/>
      <point x="414" y="268" type="line"/>
      <point x="40" y="115" type="line"/>
      <point x="46" y="100" type="line"/>
      <point x="50" y="98" type="line"/>
      <point x="440" y="258" type="line"/>
      <point x="440" y="280" type="line"/>
    </contour>
  </outline>
</glyph>
<glyph name="U" format="1">
  <advance width="612"/>
  <unicode hex="0055"/>
  <outline>
    <contour>
      <point x="310" y="637" type="move" name="mark0"/>
    </contour>
    <contour>
      <point x="0" y="0" type="move" name="mark1"/>
    </contour>
    <contour>
      <point x="526" y="637" type="line"/>
      <point x="506" y="637" type="line"/>
      <point x="506" y="229" type="line" smooth="yes"/>
      <point x="506" y="92"/>
      <point x="435" y="16"/>
      <point x="306" y="16" type="curve" smooth="yes"/>
      <point x="176" y="16"/>
      <point x="105" y="92"/>
      <point x="106" y="229" type="curve"/>
      <point x="106" y="637" type="line"/>
      <point x="86" y="637" type="line"/>
      <point x="86" y="229" type="line" smooth="yes"/>
      <point x="86" y="79"/>
      <point x="163" y="-4"/>
      <point x="306" y="-4" type="curve" smooth="yes"/>
      <point x="448" y="-4"/>
      <point x="530" y="82"/>
      <point x="526" y="229" type="curve"/>
    </contour>
  </outline>
</glyph>
<glyph name="underscore" format="1">
  <advance width="455"/>
  <unicode hex="005F"/>
  <outline>
    <contour>
      <point x="470" y="-89" type="line"/>
      <point x="467" y="-86" type="line"/>
      <point x="-13" y="-86" type="line"/>
      <point x="-15" y="-103" type="line"/>
      <point x="-12" y="-106" type="line"/>
      <point x="468" y="-106" type="line"/>
    </contour>
  </outline>
</glyph>
<glyph name="grave" format="1">
  <advance width="390"/>
  <unicode hex="0060"/>
  <outline>
    <contour>
      <point x="125" y="668" type="line"/>
      <point x="115" y="658" type="line"/>
      <point x="116" y="653" type="line"/>
      <point x="164" y="605"/>
      <point x="210" y="562"/>
      <point x="260" y="518" type="curve"/>
      <point x="265" y="519" type="line"/>
      <point x="276" y="532" type="line"/>
      <point x="230" y="571"/>
      <point x="184" y="614"/>
      <point x="130" y="669" type="curve"/>
    </contour>
  </outline>
</glyph>
<glyph name="a" format="1">
  <advance width="494"/>
  <unicode hex="0061"/>
  <outline>
    <contour>
      <point x="69" y="36" type="line"/>
      <point x="113" y="142" type="line"/>
      <point x="379" y="142" type="line"/>
      <point x="419" y="36" type="line"/>
      <point x="429" y="0" type="line"/>
      <point x="452" y="0" type="line"/>
      <point x="397" y="149" type="line"/>
      <point x="262" y="506" type="line"/>
      <point x="241" y="506" type="line"/>
      <point x="34" y="0" type="line"/>
      <point x="57" y="0" type="line"/>
    </contour>
    <contour>
      <point x="249" y="475" type="line"/>
      <point x="252" y="475" type="line"/>
      <point x="372" y="161" type="line"/>
      <point x="121" y="161" type="line"/>
    </contour>
  </outline>
</glyph>
<glyph name="b" format="1">
  <advance width="444"/>
  <unicode hex="0062"/>
  <outline>
    <contour>
      <point x="389" y="130" type="curve" smooth="yes"/>
      <point x="389" y="38"/>
      <point x="322" y="-2"/>
      <point x="200" y="-2" type="curve" smooth="yes"/>
      <point x="174" y="-2"/>
      <point x="137" y="-2"/>
      <point x="108" y="0" type="curve" smooth="yes"/>
      <point x="108" y="506" type="line"/>
      <point x="213" y="507" type="line"/>
      <point x="299" y="507"/>
      <point x="349" y="459"/>
      <point x="349" y="383" type="curve" smooth="yes"/>
      <point x="349" y="318"/>
      <point x="319" y="276"/>
      <point x="270" y="257" type="curve" smooth="yes"/>
      <point x="343" y="246"/>
      <point x="389" y="205"/>
    </contour>
    <contour>
      <point x="128" y="487" type="line" smooth="yes"/>
      <point x="128" y="265" type="line"/>
      <point x="234" y="263" type="line"/>
      <point x="294" y="274"/>
      <point x="327" y="318"/>
      <point x="327" y="382" type="curve" smooth="yes"/>
      <point x="327" y="443"/>
      <point x="284" y="487"/>
      <point x="216" y="487" type="curve"/>
    </contour>
    <contour>
      <point x="368" y="130" type="curve" smooth="yes"/>
      <point x="368" y="197"/>
      <point x="323" y="237"/>
      <point x="241" y="244" type="curve" smooth="yes"/>
      <point x="128" y="243" type="line"/>
      <point x="128" y="20" type="line"/>
      <point x="150" y="18"/>
      <point x="174" y="17"/>
      <point x="197" y="17" type="curve" smooth="yes"/>
      <point x="307" y="17"/>
      <point x="368" y="54"/>
    </contour>
  </outline>
</glyph>
<glyph name="d" format="1">
  <advance width="561"/>
  <unicode hex="0064"/>
  <outline>
    <contour>
      <point x="275" y="510" type="line" smooth="yes"/>
      <point x="422" y="510"/>
      <point x="503" y="423"/>
      <point x="503" y="269" type="curve" smooth="yes"/>
      <point x="503" y="94"/>
      <point x="418" y="-4"/>
      <point x="266" y="-4" type="curve" smooth="yes"/>
      <point x="244" y="-4"/>
      <point x="145" y="-2"/>
      <point x="108" y="0" type="curve" smooth="yes"/>
      <point x="108" y="506" type="line"/>
    </contour>
    <contour>
      <point x="483" y="268" type="curve" smooth="yes"/>
      <point x="483" y="411"/>
      <point x="409" y="489"/>
      <point x="274" y="489" type="curve" smooth="yes"/>
      <point x="257" y="489"/>
      <point x="161" y="486"/>
      <point x="128" y="485" type="curve" smooth="yes"/>
      <point x="128" y="19" type="line"/>
      <point x="162" y="17"/>
      <point x="248" y="15"/>
      <point x="267" y="15" type="curve" smooth="yes"/>
      <point x="405" y="15"/>
      <point x="483" y="105"/>
    </contour>
  </outline>
</glyph>
<glyph name="f" format="1">
  <advance width="369"/>
  <unicode hex="0066"/>
  <outline>
    <contour>
      <point x="122" y="243" type="line"/>
      <point x="307" y="243" type="line"/>
      <point x="310" y="259" type="line"/>
      <point x="307" y="264" type="line"/>
      <point x="225" y="263" type="line"/>
      <point x="122" y="263" type="line"/>
      <point x="122" y="486" type="line"/>
      <point x="348" y="485" type="line"/>
      <point x="351" y="501" type="line"/>
      <point x="349" y="506" type="line"/>
      <point x="102" y="506" type="line"/>
      <point x="102" y="0" type="line"/>
      <point x="122" y="0" type="line"/>
    </contour>
  </outline>
</glyph>
<glyph name="h" format="1">
  <advance width="588"/>
  <unicode hex="0068"/>
  <outline>
    <contour>
      <point x="128" y="243" type="line"/>
      <point x="460" y="243" type="line"/>
      <point x="460" y="0" type="line"/>
      <point x="480" y="0" type="line"/>
      <point x="480" y="506" type="line"/>
      <point x="460" y="506" type="line"/>
      <point x="460" y="263" type="line"/>
      <point x="128" y="263" type="line"/>
      <point x="128" y="506" type="line"/>
      <point x="108" y="506" type="line"/>
      <point x="108" y="0" type="line"/>
      <point x="128" y="0" type="line"/>
    </contour>
  </outline>
</glyph>
<glyph name="k" format="1">
  <advance width="457"/>
  <unicode hex="006B"/>
  <outline>
    <contour>
      <point x="412" y="-4" type="curve"/>
      <point x="416" y="-6" type="line"/>
      <point x="421" y="-4"/>
      <point x="428" y="-2"/>
      <point x="431" y="1" type="curve"/>
      <point x="432" y="5" type="line"/>
      <point x="344" y="87"/>
      <point x="255" y="179"/>
      <point x="178" y="270" type="curve"/>
      <point x="418" y="506" type="line"/>
      <point x="389" y="506" type="line"/>
      <point x="354" y="468" type="line"/>
      <point x="152" y="271" type="line"/>
      <point x="152" y="268" type="line"/>
      <point x="232" y="174"/>
      <point x="322" y="81"/>
    </contour>
    <contour>
      <point x="129" y="506" type="line"/>
      <point x="109" y="506" type="line"/>
      <point x="109" y="0" type="line"/>
      <point x="129" y="0" type="line"/>
    </contour>
  </outline>
</glyph>
<glyph name="l" format="1">
  <advance width="365"/>
  <unicode hex="006C"/>
  <outline>
    <contour>
      <point x="337" y="16" type="line"/>
      <point x="335" y="19" type="line"/>
      <point x="127" y="19" type="line"/>
      <point x="127" y="506" type="line"/>
      <point x="107" y="506" type="line"/>
      <point x="107" y="0" type="line"/>
      <point x="334" y="0" type="line"/>
    </contour>
  </outline>
</glyph>
<glyph name="n" format="1">
  <advance width="588"/>
  <unicode hex="006E"/>
  <outline>
    <contour>
      <point x="128" y="158" type="line"/>
      <point x="129" y="464" type="line"/>
      <point x="132" y="464" type="line"/>
      <point x="458" y="0" type="line"/>
      <point x="478" y="0" type="line"/>
      <point x="479" y="141" type="line"/>
      <point x="480" y="507" type="line"/>
      <point x="460" y="504" type="line"/>
      <point x="459" y="41" type="line"/>
      <point x="455" y="41" type="line"/>
      <point x="129" y="506" type="line"/>
      <point x="109" y="506" type="line"/>
      <point x="108" y="150" type="line"/>
      <point x="108" y="0" type="line"/>
      <point x="128" y="0" type="line"/>
    </contour>
  </outline>
</glyph>
<glyph name="r" format="1">
  <advance width="466"/>
  <unicode hex="0072"/>
  <outline>
    <contour>
      <point x="128" y="192" type="line"/>
      <point x="237" y="192" type="line"/>
      <point x="283" y="121"/>
      <point x="324" y="57"/>
      <point x="385" y="-3" type="curve"/>
      <point x="392" y="-6" type="line"/>
      <point x="396" y="-3"/>
      <point x="400" y="0"/>
      <point x="405" y="3" type="curve"/>
      <point x="404" y="7" type="line"/>
      <point x="344" y="69"/>
      <point x="302" y="125"/>
      <point x="258" y="196" type="curve"/>
      <point x="335" y="220"/>
      <point x="377" y="285"/>
      <point x="377" y="361" type="curve" smooth="yes"/>
      <point x="377" y="451"/>
      <point x="323" y="507"/>
      <point x="227" y="507" type="curve"/>
      <point x="108" y="506" type="line"/>
      <point x="108" y="0" type="line"/>
      <point x="128" y="0" type="line"/>
    </contour>
    <contour>
      <point x="128" y="487" type="line"/>
      <point x="231" y="488" type="line"/>
      <point x="312" y="484"/>
      <point x="356" y="436"/>
      <point x="356" y="360" type="curve" smooth="yes"/>
      <point x="356" y="288"/>
      <point x="316" y="229"/>
      <point x="243" y="211" type="curve"/>
      <point x="128" y="212" type="line"/>
    </contour>
  </outline>
</glyph>
<glyph name="u" format="1">
  <advance width="541"/>
  <unicode hex="0075"/>
  <outline>
    <contour>
      <point x="270" y="-3" type="curve" smooth="yes"/>
      <point x="387" y="-3"/>
      <point x="455" y="65"/>
      <point x="452" y="181" type="curve"/>
      <point x="452" y="506" type="line"/>
      <point x="432" y="506" type="line"/>
      <point x="432" y="182" type="line"/>
      <point x="432" y="75"/>
      <point x="375" y="16"/>
      <point x="270" y="16" type="curve" smooth="yes"/>
      <point x="165" y="16"/>
      <point x="108" y="75"/>
      <point x="109" y="182" type="curve"/>
      <point x="111" y="506" type="line"/>
      <point x="90" y="506" type="line"/>
      <point x="90" y="255" type="line"/>
      <point x="89" y="181" type="line"/>
      <point x="87" y="63"/>
      <point x="152" y="-3"/>
    </contour>
  </outline>
</glyph>
<glyph name="w" format="1">
  <advance width="763"/>
  <unicode hex="0077"/>
  <outline>
    <contour>
      <point x="245" y="0" type="line"/>
      <point x="382" y="341" type="line"/>
      <point x="385" y="341" type="line"/>
      <point x="511" y="0" type="line"/>
      <point x="532" y="0" type="line"/>
      <point x="734" y="506" type="line"/>
      <point x="712" y="506" type="line"/>
      <point x="700" y="470" type="line"/>
      <point x="524" y="32" type="line"/>
      <point x="520" y="32" type="line"/>
      <point x="358" y="469" type="line"/>
      <point x="347" y="506" type="line"/>
      <point x="325" y="506" type="line"/>
      <point x="374" y="374" type="line"/>
      <point x="237" y="32" type="line"/>
      <point x="234" y="32" type="line"/>
      <point x="71" y="470" type="line"/>
      <point x="61" y="506" type="line"/>
      <point x="38" y="506" type="line"/>
      <point x="224" y="0" type="line"/>
    </contour>
  </outline>
</glyph>
<glyph name="x" format="1">
  <advance width="504"/>
  <unicode hex="0078"/>
  <outline>
    <contour>
      <point x="72" y="0" type="line"/>
      <point x="90" y="30" type="line"/>
      <point x="246" y="236" type="line"/>
      <point x="401" y="31" type="line"/>
      <point x="421" y="0" type="line"/>
      <point x="448" y="0" type="line"/>
      <point x="259" y="252" type="line"/>
      <point x="433" y="506" type="line"/>
      <point x="406" y="506" type="line"/>
      <point x="387" y="473" type="line"/>
      <point x="246" y="269" type="line"/>
      <point x="103" y="477" type="line"/>
      <point x="85" y="506" type="line"/>
      <point x="57" y="506" type="line"/>
      <point x="233" y="252" type="line"/>
      <point x="46" y="0" type="line"/>
    </contour>
  </outline>
</glyph>
<glyph name="guillemotleft" format="1">
  <advance width="355"/>
  <unicode hex="00AB"/>
  <outline>
    <contour>
      <point x="30" y="217" type="line"/>
      <point x="185" y="50" type="line"/>
      <point x="197" y="59" type="line"/>
      <point x="197" y="65" type="line"/>
      <point x="52" y="223" type="line"/>
      <point x="197" y="381" type="line"/>
      <point x="197" y="387" type="line"/>
      <point x="185" y="396" type="line"/>
      <point x="30" y="228" type="line"/>
    </contour>
    <contour>
      <point x="176" y="217" type="line"/>
      <point x="331" y="50" type="line"/>
      <point x="343" y="59" type="line"/>
      <point x="343" y="65" type="line"/>
      <point x="198" y="223" type="line"/>
      <point x="343" y="381" type="line"/>
      <point x="343" y="387" type="line"/>
      <point x="331" y="396" type="line"/>
      <point x="176" y="228" type="line"/>
    </contour>
  </outline>
</glyph>
<glyph name="twosuperior" format="1">
  <advance width="336"/>
  <unicode hex="00B2"/>
  <outline>
    <contour>
      <point x="168" y="702" type="curve" smooth="yes"/>
      <point x="122" y="702"/>
      <point x="81" y="679"/>
      <point x="52" y="643" type="curve"/>
      <point x="56" y="626" type="line"/>
      <point x="59" y="626" type="line"/>
      <point x="88" y="662"/>
      <point x="126" y="683"/>
      <point x="166" y="683" type="curve" smooth="yes"/>
      <point x="212" y="683"/>
      <point x="237" y="656"/>
      <point x="237" y="624" type="curve" smooth="yes"/>
      <point x="237" y="587"/>
      <point x="205" y="545"/>
      <point x="151" y="478" type="curve" smooth="yes"/>
      <point x="44" y="347" type="line"/>
      <point x="44" y="332" type="line"/>
      <point x="46" y="330" type="line"/>
      <point x="75" y="331" type="line"/>
      <point x="244" y="331" type="line"/>
      <point x="309" y="330" type="line"/>
      <point x="312" y="347" type="line"/>
      <point x="310" y="351" type="line"/>
      <point x="249" y="350" type="line"/>
      <point x="74" y="350" type="line"/>
      <point x="72" y="352" type="line"/>
      <point x="166" y="468" type="line" smooth="yes"/>
      <point x="225" y="540"/>
      <point x="258" y="585"/>
      <point x="258" y="627" type="curve" smooth="yes"/>
      <point x="258" y="671"/>
      <point x="221" y="702"/>
    </contour>
  </outline>
</glyph>
<glyph name="threesuperior" format="1">
  <advance width="293"/>
  <unicode hex="00B3"/>
  <outline>
    <contour>
      <point x="130" y="703" type="curve" smooth="yes"/>
      <point x="96" y="703"/>
      <point x="66" y="690"/>
      <point x="35" y="662" type="curve"/>
      <point x="39" y="645" type="line"/>
      <point x="42" y="645" type="line"/>
      <point x="71" y="671"/>
      <point x="98" y="684"/>
      <point x="128" y="684" type="curve" smooth="yes"/>
      <point x="170" y="684"/>
      <point x="199" y="660"/>
      <point x="199" y="624" type="curve" smooth="yes"/>
      <point x="199" y="574"/>
      <point x="144" y="537"/>
      <point x="105" y="537" type="curve" smooth="yes"/>
      <point x="76" y="537" type="line"/>
      <point x="75" y="522" type="line"/>
      <point x="77" y="520" type="line"/>
      <point x="110" y="520" type="line"/>
      <point x="180" y="517"/>
      <point x="219" y="488"/>
      <point x="219" y="438" type="curve" smooth="yes"/>
      <point x="219" y="383"/>
      <point x="171" y="348"/>
      <point x="99" y="348" type="curve" smooth="yes"/>
      <point x="82" y="348"/>
      <point x="58" y="350"/>
      <point x="39" y="353" type="curve"/>
      <point x="37" y="351" type="line"/>
      <point x="39" y="335" type="line"/>
      <point x="58" y="331"/>
      <point x="82" y="329"/>
      <point x="99" y="329" type="curve" smooth="yes"/>
      <point x="182" y="329"/>
      <point x="239" y="374"/>
      <point x="239" y="438" type="curve" smooth="yes"/>
      <point x="239" y="486"/>
      <point x="207" y="519"/>
      <point x="150" y="531" type="curve"/>
      <point x="150" y="533" type="line"/>
      <point x="193" y="552"/>
      <point x="220" y="590"/>
      <point x="220" y="627" type="curve" smooth="yes"/>
      <point x="220" y="673"/>
      <point x="183" y="703"/>
    </contour>
  </outline>
</glyph>
<glyph name="Agrave" format="1">
  <advance width="554"/>
  <unicode hex="00C0"/>
  <outline>
    <contour>
      <point x="277" y="637" type="move" name="mark0"/>
    </contour>
    <contour>
      <point x="0" y="0" type="move" name="mark1"/>
    </contour>
    <contour>
      <point x="363" y="729" type="line"/>
      <point x="370" y="744" type="line"/>
      <point x="316" y="770"/>
      <point x="260" y="799"/>
      <point x="194" y="838" type="curve"/>
      <point x="189" y="836" type="line"/>
      <point x="182" y="824" type="line"/>
      <point x="184" y="819" type="line"/>
      <point x="243" y="785"/>
      <point x="299" y="756"/>
      <point x="358" y="726" type="curve"/>
    </contour>
    <contour>
      <point x="526" y="0" type="line"/>
      <point x="293" y="637" type="line"/>
      <point x="273" y="637" type="line"/>
      <point x="19" y="0" type="line"/>
      <point x="43" y="0" type="line"/>
      <point x="57" y="43" type="line"/>
      <point x="125" y="213" type="line"/>
      <point x="427" y="213" type="line"/>
      <point x="490" y="43" type="line"/>
      <point x="503" y="0" type="line"/>
    </contour>
    <contour>
      <point x="420" y="233" type="line"/>
      <point x="133" y="233" type="line"/>
      <point x="280" y="603" type="line"/>
      <point x="284" y="603" type="line"/>
    </contour>
  </outline>
</glyph>
<glyph name="Oslash" format="1">
  <advance width="627"/>
  <unicode hex="00D8"/>
  <outline>
    <contour>
      <point x="312" y="637" type="move" name="mark0"/>
    </contour>
    <contour>
      <point x="0" y="0" type="move" name="mark1"/>
    </contour>
    <contour>
      <point x="495" y="701" type="line"/>
      <point x="493" y="706" type="line"/>
      <point x="477" y="709" type="line"/>
      <point x="435" y="619" type="line"/>
      <point x="402" y="634"/>
      <point x="363" y="642"/>
      <point x="318" y="642" type="curve" smooth="yes"/>
      <point x="144" y="642"/>
      <point x="48" y="526"/>
      <point x="48" y="317" type="curve" smooth="yes"/>
      <point x="48" y="180"/>
      <point x="89" y="83"/>
      <point x="165" y="33" type="curve"/>
      <point x="113" y="-80" type="line"/>
      <point x="115" y="-84" type="line"/>
      <point x="131" y="-87" type="line"/>
      <point x="182" y="23" type="line"/>
      <point x="217" y="5"/>
      <point x="260" y="-5"/>
      <point x="308" y="-5" type="curve" smooth="yes"/>
      <point x="482" y="-5"/>
      <point x="579" y="114"/>
      <point x="579" y="329" type="curve" smooth="yes"/>
      <point x="579" y="467"/>
      <point x="535" y="563"/>
      <point x="453" y="610" type="curve"/>
    </contour>
    <contour>
      <point x="68" y="317" type="curve" smooth="yes"/>
      <point x="68" y="513"/>
      <point x="157" y="622"/>
      <point x="318" y="622" type="curve" smooth="yes"/>
      <point x="359" y="622"/>
      <point x="396" y="615"/>
      <point x="427" y="600" type="curve"/>
      <point x="174" y="52" type="line"/>
      <point x="105" y="99"/>
      <point x="68" y="190"/>
    </contour>
    <contour>
      <point x="308" y="15" type="curve" smooth="yes"/>
      <point x="263" y="15"/>
      <point x="224" y="24"/>
      <point x="191" y="42" type="curve"/>
      <point x="444" y="591" type="line"/>
      <point x="519" y="547"/>
      <point x="559" y="457"/>
      <point x="559" y="329" type="curve" smooth="yes"/>
      <point x="559" y="127"/>
      <point x="469" y="15"/>
    </contour>
  </outline>
</glyph>
<glyph name="Ucircumflex" format="1">
  <advance width="612"/>
  <unicode hex="00DB"/>
  <outline>
    <contour>
      <point x="310" y="637" type="move" name="mark0"/>
    </contour>
    <contour>
      <point x="0" y="0" type="move" name="mark1"/>
    </contour>
    <contour>
      <point x="210" y="738" type="line"/>
      <point x="215" y="738" type="line"/>
      <point x="248" y="761"/>
      <point x="279" y="784"/>
      <point x="310" y="808" type="curve"/>
      <point x="341" y="784"/>
      <point x="372" y="761"/>
      <point x="405" y="738" type="curve"/>
      <point x="410" y="738" type="line"/>
      <point x="417" y="752" type="line"/>
      <point x="383" y="776"/>
      <point x="350" y="802"/>
      <point x="317" y="828" type="curve"/>
      <point x="301" y="828" type="line"/>
      <point x="270" y="802"/>
      <point x="237" y="776"/>
      <point x="203" y="752" type="curve"/>
    </contour>
    <contour>
      <point x="526" y="637" type="line"/>
      <point x="506" y="637" type="line"/>
      <point x="506" y="229" type="line" smooth="yes"/>
      <point x="506" y="92"/>
      <point x="435" y="16"/>
      <point x="306" y="16" type="curve" smooth="yes"/>
      <point x="176" y="16"/>
      <point x="105" y="92"/>
      <point x="106" y="229" type="curve"/>
      <point x="106" y="637" type="line"/>
      <point x="86" y="637" type="line"/>
      <point x="86" y="229" type="line" smooth="yes"/>
      <point x="86" y="79"/>
      <point x="163" y="-4"/>
      <point x="306" y="-4" type="curve" smooth="yes"/>
      <point x="448" y="-4"/>
      <point x="530" y="82"/>
      <point x="526" y="229" type="curve"/>
    </contour>
  </outline>
</glyph>
<glyph name="egrave" format="1">
  <advance width="412"/>
  <unicode hex="00E8"/>
  <outline>
    <contour>
      <point x="366" y="0" type="line"/>
      <point x="108" y="0" type="line"/>
      <point x="108" y="506" type="line"/>
      <point x="364" y="506" type="line"/>
      <point x="367" y="501" type="line"/>
      <point x="363" y="485" type="line"/>
      <point x="128" y="486" type="line"/>
      <point x="128" y="264" type="line"/>
      <point x="323" y="264" type="line"/>
      <point x="325" y="260" type="line"/>
      <point x="322" y="243" type="line"/>
      <point x="128" y="243" type="line"/>
      <point x="128" y="19" type="line"/>
      <point x="367" y="19" type="line"/>
      <point x="370" y="16" type="line"/>
    </contour>
    <contour>
      <point x="292" y="538" type="line"/>
      <point x="246" y="561"/>
      <point x="208" y="580"/>
      <point x="163" y="607" type="curve"/>
      <point x="160" y="612" type="line"/>
      <point x="167" y="623" type="line"/>
      <point x="172" y="624" type="line"/>
      <point x="224" y="594"/>
      <point x="262" y="574"/>
      <point x="304" y="553" type="curve"/>
      <point x="297" y="540" type="line"/>
    </contour>
  </outline>
</glyph>
<glyph name="idieresis" format="1">
  <advance width="237"/>
  <unicode hex="00EF"/>
  <outline>
    <contour>
      <point x="128" y="506" type="line"/>
      <point x="108" y="506" type="line"/>
      <point x="108" y="0" type="line"/>
      <point x="128" y="0" type="line"/>
    </contour>
    <contour>
      <point x="71" y="567" type="curve" smooth="yes"/>
      <point x="83" y="567"/>
      <point x="91" y="575"/>
      <point x="91" y="587" type="curve" smooth="yes"/>
      <point x="91" y="599"/>
      <point x="83" y="607"/>
      <point x="71" y="607" type="curve" smooth="yes"/>
      <point x="59" y="607"/>
      <point x="51" y="599"/>
      <point x="51" y="587" type="curve" smooth="yes"/>
      <point x="51" y="575"/>
      <point x="59" y="567"/>
    </contour>
    <contour>
      <point x="171" y="567" type="curve" smooth="yes"/>
      <point x="183" y="567"/>
      <point x="191" y="575"/>
      <point x="191" y="587" type="curve" smooth="yes"/>
      <point x="191" y="599"/>
      <point x="183" y="607"/>
      <point x="171" y="607" type="curve" smooth="yes"/>
      <point x="159" y="607"/>
      <point x="151" y="599"/>
      <point x="151" y="587" type="curve" smooth="yes"/>
      <point x="151" y="575"/>
      <point x="159" y="567"/>
    </contour>
  </outline>
</glyph>
<glyph name="ocircumflex" format="1">
  <advance width="553"/>
  <unicode hex="00F4"/>
  <outline>
    <contour>
      <point x="272" y="-4" type="curve" smooth="yes"/>
      <point x="415" y="-4"/>
      <point x="495" y="91"/>
      <point x="495" y="262" type="curve" smooth="yes"/>
      <point x="495" y="420"/>
      <point x="419" y="510"/>
      <point x="281" y="510" type="curve" smooth="yes"/>
      <point x="137" y="510"/>
      <point x="58" y="417"/>
      <point x="58" y="251" type="curve" smooth="yes"/>
      <point x="58" y="88"/>
      <point x="135" y="-4"/>
    </contour>
    <contour>
      <point x="280" y="489" type="curve" smooth="yes"/>
      <point x="406" y="489"/>
      <point x="475" y="408"/>
      <point x="475" y="260" type="curve" smooth="yes"/>
      <point x="475" y="102"/>
      <point x="402" y="15"/>
      <point x="272" y="15" type="curve" smooth="yes"/>
      <point x="148" y="15"/>
      <point x="79" y="99"/>
      <point x="79" y="252" type="curve" smooth="yes"/>
      <point x="79" y="406"/>
      <point x="150" y="489"/>
    </contour>
    <contour>
      <point x="279" y="606" type="line"/>
      <point x="279" y="606"/>
      <point x="330" y="562"/>
      <point x="371" y="532" type="curve"/>
      <point x="375" y="533" type="line"/>
      <point x="383" y="545" type="line"/>
      <point x="345" y="574"/>
      <point x="284" y="626"/>
      <point x="284" y="626" type="curve"/>
      <point x="271" y="626" type="line"/>
      <point x="271" y="626"/>
      <point x="207" y="571"/>
      <point x="172" y="545" type="curve"/>
      <point x="180" y="533" type="line"/>
      <point x="185" y="532" type="line"/>
      <point x="224" y="561"/>
      <point x="276" y="606"/>
      <point x="276" y="606" type="curve"/>
    </contour>
  </outline>
</glyph>
<glyph name="ugrave" format="1">
  <advance width="541"/>
  <unicode hex="00F9"/>
  <outline>
    <contour>
      <point x="270" y="-3" type="curve" smooth="yes"/>
      <point x="387" y="-3"/>
      <point x="455" y="65"/>
      <point x="452" y="181" type="curve"/>
      <point x="452" y="506" type="line"/>
      <point x="432" y="506" type="line"/>
      <point x="432" y="182" type="line"/>
      <point x="432" y="75"/>
      <point x="375" y="17"/>
      <point x="270" y="17" type="curve" smooth="yes"/>
      <point x="165" y="17"/>
      <point x="108" y="75"/>
      <point x="109" y="182" type="curve"/>
      <point x="111" y="506" type="line"/>
      <point x="90" y="506" type="line"/>
      <point x="90" y="255" type="line"/>
      <point x="89" y="181" type="line"/>
      <point x="87" y="63"/>
      <point x="152" y="-3"/>
    </contour>
    <contour>
      <point x="324" y="538" type="line"/>
      <point x="278" y="561"/>
      <point x="240" y="580"/>
      <point x="195" y="607" type="curve"/>
      <point x="192" y="612" type="line"/>
      <point x="199" y="623" type="line"/>
      <point x="204" y="624" type="line"/>
      <point x="256" y="594"/>
      <point x="294" y="574"/>
      <point x="336" y="553" type="curve"/>
      <point x="329" y="540" type="line"/>
    </contour>
  </outline>
</glyph>
<glyph name="thorn" format="1">
  <advance width="320"/>
  <unicode hex="00FE"/>
  <outline>
    <contour>
      <point x="170" y="789" type="line"/>
      <point x="168" y="791" type="line"/>
      <point x="150" y="789" type="line"/>
      <point x="150" y="-261" type="line"/>
      <point x="153" y="-265" type="line"/>
      <point x="170" y="-265" type="line"/>
    </contour>
    <contour>
      <point x="182" y="257" type="curve"/>
      <point x="231" y="276"/>
      <point x="261" y="315"/>
      <point x="261" y="378" type="curve" smooth="yes"/>
      <point x="261" y="451"/>
      <point x="211" y="492"/>
      <point x="125" y="492" type="curve" smooth="yes"/>
      <point x="20" y="491" type="line"/>
      <point x="20" y="0" type="line"/>
      <point x="49" y="-2"/>
      <point x="86" y="-2"/>
      <point x="112" y="-2" type="curve" smooth="yes"/>
      <point x="234" y="-2"/>
      <point x="301" y="48"/>
      <point x="301" y="136" type="curve" smooth="yes"/>
      <point x="301" y="208"/>
      <point x="255" y="247"/>
    </contour>
    <contour>
      <point x="128" y="473" type="line" smooth="yes"/>
      <point x="196" y="473"/>
      <point x="239" y="436"/>
      <point x="239" y="377" type="curve" smooth="yes"/>
      <point x="239" y="315"/>
      <point x="206" y="274"/>
      <point x="146" y="263" type="curve"/>
      <point x="40" y="265" type="line"/>
      <point x="40" y="473" type="line"/>
    </contour>
    <contour>
      <point x="109" y="16" type="curve" smooth="yes"/>
      <point x="86" y="16"/>
      <point x="62" y="17"/>
      <point x="40" y="19" type="curve"/>
      <point x="40" y="244" type="line"/>
      <point x="153" y="245" type="line"/>
      <point x="235" y="238"/>
      <point x="280" y="201"/>
      <point x="280" y="136" type="curve" smooth="yes"/>
      <point x="280" y="61"/>
      <point x="219" y="16"/>
    </contour>
  </outline>
</glyph>
<glyph name="ij" format="1">
  <advance width="498"/>
  <unicode hex="0133"/>
  <outline>
    <contour>
      <point x="120" y="491" type="move" name="mark0"/>
    </contour>
    <contour>
      <point x="0" y="0" type="move" name="mark1"/>
    </contour>
    <contour>
      <point x="108" y="491" type="line"/>
      <point x="108" y="0" type="line"/>
      <point x="128" y="0" type="line"/>
      <point x="128" y="491" type="line"/>
    </contour>
    <contour>
      <point x="390" y="491" type="line"/>
      <point x="268" y="491" type="line"/>
      <point x="265" y="475" type="line"/>
      <point x="268" y="472" type="line"/>
      <point x="370" y="472" type="line"/>
      <point x="370" y="88" type="line" smooth="yes"/>
      <point x="370" y="24"/>
      <point x="346" y="-18"/>
      <point x="285" y="-60" type="curve"/>
      <point x="285" y="-65" type="line"/>
      <point x="297" y="-76" type="line"/>
      <point x="365" y="-29"/>
      <point x="390" y="16"/>
      <point x="390" y="89" type="curve" smooth="yes"/>
    </contour>
  </outline>
</glyph>
<glyph name="lcaron" format="1">
  <advance width="375"/>
  <unicode hex="013E"/>
  <outline>
    <contour>
      <point x="161" y="491" type="move" name="mark0"/>
    </contour>
    <contour>
      <point x="193" y="0" type="move" name="mark1"/>
    </contour>
    <contour>
      <point x="342" y="16" type="line"/>
      <point x="340" y="19" type="line"/>
      <point x="127" y="19" type="line"/>
      <point x="127" y="491" type="line"/>
      <point x="107" y="491" type="line"/>
      <point x="107" y="0" type="line"/>
      <point x="339" y="0" type="line"/>
    </contour>
    <contour>
      <point x="290" y="314" type="line"/>
      <point x="307" y="316" type="line"/>
      <point x="319" y="460" type="line"/>
      <point x="316" y="464" type="line"/>
      <point x="299" y="462" type="line"/>
      <point x="287" y="318" type="line"/>
    </contour>
  </outline>
</glyph>
<glyph name="ldot" format="1">
  <advance width="626"/>
  <unicode hex="0140"/>
  <outline>
    <contour>
      <point x="342" y="16" type="line"/>
      <point x="340" y="19" type="line"/>
      <point x="127" y="19" type="line"/>
      <point x="127" y="491" type="line"/>
      <point x="107" y="491" type="line"/>
      <point x="107" y="0" type="line"/>
      <point x="339" y="0" type="line"/>
    </contour>
    <contour>
      <point x="511" y="258" type="curve" smooth="yes"/>
      <point x="499" y="258"/>
      <point x="491" y="250"/>
      <point x="491" y="238" type="curve" smooth="yes"/>
      <point x="491" y="226"/>
      <point x="499" y="218"/>
      <point x="511" y="218" type="curve" smooth="yes"/>
      <point x="523" y="218"/>
      <point x="531" y="226"/>
      <point x="531" y="238" type="curve" smooth="yes"/>
      <point x="531" y="250"/>
      <point x="523" y="258"/>
    </contour>
  </outline>
</glyph>
<glyph name="OE" format="1">
  <advance width="833"/>
  <unicode hex="0152"/>
  <outline>
    <contour>
      <point x="541" y="637" type="move" name="mark0"/>
    </contour>
    <contour>
      <point x="0" y="0" type="move" name="mark1"/>
    </contour>
    <contour>
      <point x="358" y="649" type="curve" smooth="yes"/>
      <point x="160" y="649"/>
      <point x="48" y="526"/>
      <point x="48" y="317" type="curve" smooth="yes"/>
      <point x="48" y="110"/>
      <point x="157" y="-12"/>
      <point x="348" y="-12" type="curve" smooth="yes"/>
      <point x="398" y="-12"/>
      <point x="454" y="0"/>
      <point x="511" y="0" type="curve" smooth="yes"/>
      <point x="800" y="0" type="line"/>
      <point x="804" y="16" type="line"/>
      <point x="801" y="20" type="line"/>
      <point x="509" y="20" type="line"/>
      <point x="509" y="320" type="line"/>
      <point x="746" y="320" type="line"/>
      <point x="750" y="336" type="line"/>
      <point x="747" y="340" type="line"/>
      <point x="509" y="340" type="line"/>
      <point x="509" y="617" type="line"/>
      <point x="796" y="617" type="line"/>
      <point x="800" y="633" type="line"/>
      <point x="797" y="637" type="line"/>
      <point x="511" y="637" type="line" smooth="yes"/>
      <point x="456" y="637"/>
      <point x="412" y="649"/>
    </contour>
    <contour>
      <point x="358" y="629" type="curve" smooth="yes"/>
      <point x="402" y="629"/>
      <point x="456" y="621"/>
      <point x="473" y="618" type="curve" smooth="yes"/>
      <point x="484" y="616"/>
      <point x="487" y="611"/>
      <point x="487" y="586" type="curve" smooth="yes"/>
      <point x="489" y="43" type="line" smooth="yes"/>
      <point x="489" y="27"/>
      <point x="484" y="22"/>
      <point x="461" y="18" type="curve" smooth="yes"/>
      <point x="442" y="15"/>
      <point x="391" y="8"/>
      <point x="353" y="8" type="curve" smooth="yes"/>
      <point x="166" y="8"/>
      <point x="68" y="124"/>
      <point x="68" y="316" type="curve" smooth="yes"/>
      <point x="68" y="514"/>
      <point x="173" y="629"/>
    </contour>
  </outline>
</glyph>
<glyph name="hungarumlaut" format="1">
  <advance width="780"/>
  <unicode hex="02DD"/>
  <outline>
    <contour>
      <point x="266" y="668" type="line"/>
      <point x="261" y="669" type="line"/>
      <point x="207" y="614"/>
      <point x="161" y="571"/>
      <point x="115" y="532" type="curve"/>
      <point x="126" y="519" type="line"/>
      <point x="131" y="518" type="line"/>
      <point x="181" y="562"/>
      <point x="227" y="605"/>
      <point x="275" y="653" type="curve"/>
      <point x="276" y="658" type="line"/>
    </contour>
    <contour>
      <point x="656" y="668" type="line"/>
      <point x="651" y="669" type="line"/>
      <point x="597" y="614"/>
      <point x="551" y="571"/>
      <point x="505" y="532" type="curve"/>
      <point x="516" y="519" type="line"/>
      <point x="521" y="518" type="line"/>
      <point x="571" y="562"/>
      <point x="617" y="605"/>
      <point x="665" y="653" type="curve"/>
      <point x="666" y="658" type="line"/>
    </contour>
  </outline>
</glyph>
<glyph name="dotbelowcomb" format="1">
  <advance width="0"/>
  <unicode hex="0323"/>
  <outline>
    <contour>
      <point x="115" y="0" type="move" name="_mark1"/>
    </contour>
    <contour>
      <point x="115" y="-88" type="curve" smooth="yes"/>
      <point x="103" y="-88"/>
      <point x="95" y="-96"/>
      <point x="95" y="-108" type="curve" smooth="yes"/>
      <point x="95" y="-120"/>
      <point x="103" y="-128"/>
      <point x="115" y="-128" type="curve" smooth="yes"/>
      <point x="127" y="-128"/>
      <point x="135" y="-120"/>
      <point x="135" y="-108" type="curve" smooth="yes"/>
      <point x="135" y="-96"/>
      <point x="127" y="-88"/>
    </contour>
  </outline>
</glyph>
<glyph name="Omega" format="1">
  <advance width="733"/>
  <unicode hex="03A9"/>
  <outline>
    <contour>
      <point x="369" y="642" type="curve" smooth="yes"/>
      <point x="197" y="642"/>
      <point x="101" y="536"/>
      <point x="101" y="345" type="curve" smooth="yes"/>
      <point x="101" y="207"/>
      <point x="157" y="92"/>
      <point x="258" y="23" type="curve"/>
      <point x="258" y="20" type="line"/>
      <point x="137" y="20" type="line"/>
      <point x="55" y="21" type="line"/>
      <point x="51" y="3" type="line"/>
      <point x="54" y="-1" type="line"/>
      <point x="132" y="0" type="line"/>
      <point x="259" y="0" type="line"/>
      <point x="299" y="-1" type="line"/>
      <point x="301" y="1" type="line"/>
      <point x="301" y="17" type="line"/>
      <point x="185" y="85"/>
      <point x="121" y="202"/>
      <point x="121" y="345" type="curve" smooth="yes"/>
      <point x="121" y="523"/>
      <point x="210" y="622"/>
      <point x="369" y="622" type="curve" smooth="yes"/>
      <point x="525" y="622"/>
      <point x="612" y="524"/>
      <point x="612" y="347" type="curve" smooth="yes"/>
      <point x="612" y="204"/>
      <point x="548" y="86"/>
      <point x="432" y="17" type="curve"/>
      <point x="432" y="1" type="line"/>
      <point x="434" y="-1" type="line"/>
      <point x="474" y="0" type="line"/>
      <point x="596" y="0" type="line"/>
      <point x="678" y="-1" type="line"/>
      <point x="682" y="17" type="line"/>
      <point x="679" y="21" type="line"/>
      <point x="601" y="20" type="line"/>
      <point x="475" y="20" type="line"/>
      <point x="475" y="23" type="line"/>
      <point x="576" y="93"/>
      <point x="632" y="209"/>
      <point x="632" y="347" type="curve" smooth="yes"/>
      <point x="632" y="537"/>
      <point x="538" y="642"/>
    </contour>
  </outline>
</glyph>
<glyph name="twodotenleader" format="1">
  <advance width="380"/>
  <unicode hex="2025"/>
  <outline>
    <contour>
      <point x="111" y="38" type="curve" smooth="yes"/>
      <point x="99" y="38"/>
      <point x="91" y="30"/>
      <point x="91" y="18" type="curve" smooth="yes"/>
      <point x="91" y="6"/>
      <point x="99" y="-2"/>
      <point x="111" y="-2" type="curve" smooth="yes"/>
      <point x="123" y="-2"/>
      <point x="131" y="6"/>
      <point x="131" y="18" type="curve" smooth="yes"/>
      <point x="131" y="30"/>
      <point x="123" y="38"/>
    </contour>
    <contour>
      <point x="261" y="38" type="curve" smooth="yes"/>
      <point x="249" y="38"/>
      <point x="241" y="30"/>
      <point x="241" y="18" type="curve" smooth="yes"/>
      <point x="241" y="6"/>
      <point x="249" y="-2"/>
      <point x="261" y="-2" type="curve" smooth="yes"/>
      <point x="273" y="-2"/>
      <point x="281" y="6"/>
      <point x="281" y="18" type="curve" smooth="yes"/>
      <point x="281" y="30"/>
      <point x="273" y="38"/>
    </contour>
  </outline>
</glyph>
<glyph name="arrowright" format="1">
  <advance width="500"/>
  <unicode hex="2192"/>
  <outline>
    <contour>
      <point x="476" y="230" type="line"/>
      <point x="286" y="422" type="line"/>
      <point x="272" y="414" type="line"/>
      <point x="272" y="408" type="line"/>
      <point x="439" y="238" type="line"/>
      <point x="24" y="238" type="line"/>
      <point x="22" y="220" type="line"/>
      <point x="24" y="218" type="line"/>
      <point x="439" y="218" type="line"/>
      <point x="272" y="48" type="line"/>
      <point x="272" y="42" type="line"/>
      <point x="286" y="34" type="line"/>
      <point x="476" y="226" type="line"/>
    </contour>
  </outline>
</glyph>
<glyph name="arrowdownleft" format="1">
  <advance width="500"/>
  <unicode hex="2199"/>
  <outline>
    <contour>
      <point x="379" y="84" type="line"/>
      <point x="140" y="86" type="line"/>
      <point x="434" y="379" type="line"/>
      <point x="422" y="394" type="line"/>
      <point x="420" y="394" type="line"/>
      <point x="126" y="100" type="line"/>
      <point x="124" y="338" type="line"/>
      <point x="120" y="343" type="line"/>
      <point x="104" y="338" type="line"/>
      <point x="106" y="68" type="line"/>
      <point x="108" y="66" type="line"/>
      <point x="379" y="64" type="line"/>
      <point x="383" y="80" type="line"/>
    </contour>
  </outline>
</glyph>
<glyph name="greaterequal" format="1">
  <advance width="480"/>
  <unicode hex="2265"/>
  <outline>
    <contour>
      <point x="437" y="284" type="line"/>
      <point x="48" y="455" type="line"/>
      <point x="41" y="441" type="line"/>
      <point x="44" y="436" type="line"/>
      <point x="414" y="272" type="line"/>
      <point x="414" y="268" type="line"/>
      <point x="40" y="115" type="line"/>
      <point x="46" y="100" type="line"/>
      <point x="50" y="98" type="line"/>
      <point x="440" y="258" type="line"/>
      <point x="440" y="280" type="line"/>
    </contour>
    <contour>
      <point x="441" y="-48" type="line"/>
      <point x="438" y="-45" type="line"/>
      <point x="41" y="-45" type="line"/>
      <point x="39" y="-62" type="line"/>
      <point x="42" y="-65" type="line"/>
      <point x="439" y="-65" type="line"/>
    </contour>
  </outline>
</glyph>
<glyph name="Acircumflex.001" format="1">
  <advance width="554"/>
  <outline>
    <contour>
      <point x="277" y="637" type="move" name="mark0"/>
    </contour>
    <contour>
      <point x="0" y="0" type="move" name="mark1"/>
    </contour>
    <contour>
      <point x="177" y="738" type="line"/>
      <point x="182" y="738" type="line"/>
      <point x="215" y="761"/>
      <point x="246" y="784"/>
      <point x="277" y="808" type="curve"/>
      <point x="308" y="784"/>
      <point x="339" y="761"/>
      <point x="372" y="738" type="curve"/>
      <point x="377" y="738" type="line"/>
      <point x="384" y="752" type="line"/>
      <point x="350" y="776"/>
      <point x="317" y="802"/>
      <point x="284" y="828" type="curve"/>
      <point x="268" y="828" type="line"/>
      <point x="237" y="802"/>
      <point x="204" y="776"/>
      <point x="170" y="752" type="curve"/>
    </contour>
    <contour>
      <point x="526" y="0" type="line"/>
      <point x="293" y="637" type="line"/>
      <point x="273" y="637" type="line"/>
      <point x="19" y="0" type="line"/>
      <point x="43" y="0" type="line"/>
      <point x="57" y="43" type="line"/>
      <point x="125" y="213" type="line"/>
      <point x="427" y="213" type="line"/>
      <point x="490" y="43" type="line"/>
      <point x="503" y="0" type="line"/>
    </contour>
    <contour>
      <point x="420" y="233" type="line"/>
      <point x="133" y="233" type="line"/>
      <point x="280" y="603" type="line"/>
      <point x="284" y="603" type="line"/>
    </contour>
  </outline>
</glyph>
<glyph name="Euro.1.0" format="1">
  <advance width="503"/>
  <outline>
    <contour>
      <point x="505" y="-38" type="curve"/>
      <point x="383" y="9" type="line"/>
      <point x="407" y="18"/>
      <point x="430" y="31"/>
      <point x="450" y="46" type="curve"/>
      <point x="452" y="65" type="line"/>
      <point x="446" y="67" type="line"/>
      <point x="419" y="45"/>
      <point x="386" y="29"/>
      <point x="353" y="21" type="curve"/>
      <point x="153" y="99" type="line"/>
      <point x="142" y="119"/>
      <point x="134" y="142"/>
      <point x="129" y="168" type="curve"/>
      <point x="344" y="168" type="line"/>
      <point x="346" y="185" type="line"/>
      <point x="343" y="188" type="line"/>
      <point x="125" y="188" type="line"/>
      <point x="122" y="207"/>
      <point x="121" y="226"/>
      <point x="121" y="247" type="curve" smooth="yes"/>
      <point x="121" y="263"/>
      <point x="122" y="280"/>
      <point x="123" y="294" type="curve"/>
      <point x="344" y="294" type="line"/>
      <point x="346" y="312" type="line"/>
      <point x="343" y="315" type="line"/>
      <point x="126" y="315" type="line"/>
      <point x="144" y="427"/>
      <point x="208" y="487"/>
      <point x="314" y="487" type="curve" smooth="yes"/>
      <point x="361" y="487"/>
      <point x="407" y="472"/>
      <point x="442" y="444" type="curve"/>
      <point x="448" y="444" type="line"/>
      <point x="454" y="462" type="line"/>
      <point x="415" y="491"/>
      <point x="364" y="508"/>
      <point x="315" y="508" type="curve" smooth="yes"/>
      <point x="196" y="508"/>
      <point x="123" y="440"/>
      <point x="104" y="315" type="curve"/>
      <point x="39" y="315" type="line"/>
      <point x="37" y="297" type="line"/>
      <point x="40" y="294" type="line"/>
      <point x="102" y="294" type="line"/>
      <point x="101" y="279"/>
      <point x="100" y="263"/>
      <point x="100" y="247" type="curve" smooth="yes"/>
      <point x="100" y="226"/>
      <point x="101" y="207"/>
      <point x="103" y="188" type="curve"/>
      <point x="39" y="188" type="line"/>
      <point x="37" y="171" type="line"/>
      <point x="40" y="168" type="line"/>
      <point x="106" y="168" type="line"/>
      <point x="110" y="147"/>
      <point x="116" y="128"/>
      <point x="123" y="111" type="curve"/>
      <point x="2" y="158" type="line"/>
      <point x="0" y="159"/>
      <point x="-3" y="158"/>
      <point x="-4" y="156" type="curve" smooth="yes"/>
      <point x="-4" y="154"/>
      <point x="-3" y="151"/>
      <point x="-1" y="150" type="curve"/>
      <point x="502" y="-46" type="line"/>
      <point x="502" y="-46"/>
      <point x="503" y="-46"/>
      <point x="503" y="-46" type="curve" smooth="yes"/>
      <point x="505" y="-46"/>
      <point x="507" y="-45"/>
      <point x="507" y="-44" type="curve" smooth="yes"/>
      <point x="508" y="-41"/>
      <point x="507" y="-39"/>
    </contour>
  </outline>
</glyph>
<glyph name="Euro.1.1" format="1">
  <advance width="503"/>
  <outline>
    <contour>
      <point x="503" y="158" type="curve"/>
      <point x="132" y="158" type="line"/>
      <point x="125" y="184"/>
      <point x="121" y="214"/>
      <point x="121" y="247" type="curve" smooth="yes"/>
      <point x="121" y="263"/>
      <point x="122" y="280"/>
      <point x="123" y="294" type="curve"/>
      <point x="344" y="294" type="line"/>
      <point x="346" y="312" type="line"/>
      <point x="343" y="315" type="line"/>
      <point x="126" y="315" type="line"/>
      <point x="144" y="427"/>
      <point x="208" y="487"/>
      <point x="314" y="487" type="curve" smooth="yes"/>
      <point x="361" y="487"/>
      <point x="407" y="472"/>
      <point x="442" y="444" type="curve"/>
      <point x="448" y="444" type="line"/>
      <point x="454" y="462" type="line"/>
      <point x="415" y="491"/>
      <point x="364" y="508"/>
      <point x="315" y="508" type="curve" smooth="yes"/>
      <point x="196" y="508"/>
      <point x="123" y="440"/>
      <point x="104" y="315" type="curve"/>
      <point x="39" y="315" type="line"/>
      <point x="37" y="297" type="line"/>
      <point x="40" y="294" type="line"/>
      <point x="102" y="294" type="line"/>
      <point x="101" y="279"/>
      <point x="100" y="263"/>
      <point x="100" y="247" type="curve" smooth="yes"/>
      <point x="100" y="214"/>
      <point x="104" y="185"/>
      <point x="110" y="158" type="curve"/>
      <point x="0" y="158" type="line"/>
      <point x="-2" y="158"/>
      <point x="-4" y="157"/>
      <point x="-4" y="154" type="curve" smooth="yes"/>
      <point x="-4" y="152"/>
      <point x="-2" y="150"/>
      <point x="0" y="150" type="curve"/>
      <point x="503" y="150" type="line"/>
      <point x="505" y="150"/>
      <point x="507" y="152"/>
      <point x="507" y="154" type="curve" smooth="yes"/>
      <point x="507" y="157"/>
      <point x="505" y="158"/>
    </contour>
    <contour>
      <point x="302" y="15" type="curve" smooth="yes"/>
      <point x="242" y="15"/>
      <point x="180" y="49"/>
      <point x="147" y="119" type="curve"/>
      <point x="122" y="119" type="line"/>
      <point x="156" y="36"/>
      <point x="224" y="-5"/>
      <point x="302" y="-5" type="curve" smooth="yes"/>
      <point x="352" y="-5"/>
      <point x="406" y="13"/>
      <point x="450" y="46" type="curve"/>
      <point x="452" y="65" type="line"/>
      <point x="446" y="67" type="line"/>
      <point x="405" y="34"/>
      <point x="352" y="15"/>
    </contour>
  </outline>
</glyph>
<glyph name="Euro.1.2" format="1">
  <advance width="503"/>
  <outline>
    <contour>
      <point x="507" y="352" type="curve" smooth="yes"/>
      <point x="506" y="354"/>
      <point x="504" y="355"/>
      <point x="502" y="355" type="curve"/>
      <point x="382" y="308" type="line"/>
      <point x="381" y="315" type="line"/>
      <point x="126" y="315" type="line"/>
      <point x="144" y="427"/>
      <point x="208" y="487"/>
      <point x="314" y="487" type="curve" smooth="yes"/>
      <point x="361" y="487"/>
      <point x="407" y="472"/>
      <point x="442" y="444" type="curve"/>
      <point x="448" y="444" type="line"/>
      <point x="454" y="462" type="line"/>
      <point x="415" y="491"/>
      <point x="364" y="508"/>
      <point x="315" y="508" type="curve" smooth="yes"/>
      <point x="196" y="508"/>
      <point x="123" y="440"/>
      <point x="104" y="315" type="curve"/>
      <point x="39" y="315" type="line"/>
      <point x="37" y="297" type="line"/>
      <point x="40" y="294" type="line"/>
      <point x="102" y="294" type="line"/>
      <point x="101" y="279"/>
      <point x="100" y="263"/>
      <point x="100" y="247" type="curve" smooth="yes"/>
      <point x="100" y="230"/>
      <point x="101" y="214"/>
      <point x="102" y="199" type="curve"/>
      <point x="-1" y="158" type="line"/>
      <point x="-3" y="157"/>
      <point x="-4" y="155"/>
      <point x="-4" y="153" type="curve" smooth="yes"/>
      <point x="-3" y="151"/>
      <point x="-1" y="150"/>
      <point x="0" y="150" type="curve" smooth="yes"/>
      <point x="1" y="150"/>
      <point x="1" y="150"/>
      <point x="2" y="150" type="curve"/>
      <point x="505" y="347" type="line"/>
      <point x="507" y="348"/>
      <point x="508" y="350"/>
    </contour>
    <contour>
      <point x="121" y="247" type="curve" smooth="yes"/>
      <point x="121" y="263"/>
      <point x="122" y="280"/>
      <point x="123" y="294" type="curve"/>
      <point x="348" y="294" type="line"/>
      <point x="123" y="207" type="line"/>
      <point x="122" y="220"/>
      <point x="121" y="233"/>
    </contour>
    <contour>
      <point x="374" y="200" type="line"/>
      <point x="371" y="203" type="line"/>
      <point x="222" y="203" type="line"/>
      <point x="169" y="183" type="line"/>
      <point x="372" y="183" type="line"/>
    </contour>
    <contour>
      <point x="302" y="15" type="curve" smooth="yes"/>
      <point x="209" y="15"/>
      <point x="149" y="69"/>
      <point x="129" y="167" type="curve"/>
      <point x="108" y="159" type="line"/>
      <point x="131" y="53"/>
      <point x="198" y="-5"/>
      <point x="302" y="-5" type="curve" smooth="yes"/>
      <point x="352" y="-5"/>
      <point x="406" y="13"/>
      <point x="450" y="46" type="curve"/>
      <point x="452" y="65" type="line"/>
      <point x="446" y="67" type="line"/>
      <point x="405" y="34"/>
      <point x="352" y="15"/>
    </contour>
  </outline>
</glyph>
<glyph name="Euro.2.0" format="1">
  <advance width="503"/>
  <outline>
    <contour>
      <point x="506" y="-39" type="curve"/>
      <point x="422" y="27" type="line"/>
      <point x="432" y="33"/>
      <point x="441" y="39"/>
      <point x="451" y="46" type="curve"/>
      <point x="453" y="65" type="line"/>
      <point x="447" y="67" type="line"/>
      <point x="434" y="56"/>
      <point x="420" y="48"/>
      <point x="405" y="40" type="curve"/>
      <point x="242" y="168" type="line"/>
      <point x="345" y="168" type="line"/>
      <point x="347" y="185" type="line"/>
      <point x="344" y="188" type="line"/>
      <point x="216" y="188" type="line"/>
      <point x="122" y="262" type="line"/>
      <point x="122" y="273"/>
      <point x="123" y="284"/>
      <point x="124" y="294" type="curve"/>
      <point x="345" y="294" type="line"/>
      <point x="347" y="312" type="line"/>
      <point x="344" y="315" type="line"/>
      <point x="127" y="315" type="line"/>
      <point x="145" y="427"/>
      <point x="209" y="487"/>
      <point x="315" y="487" type="curve" smooth="yes"/>
      <point x="362" y="487"/>
      <point x="408" y="472"/>
      <point x="443" y="444" type="curve"/>
      <point x="449" y="444" type="line"/>
      <point x="455" y="462" type="line"/>
      <point x="416" y="491"/>
      <point x="365" y="508"/>
      <point x="316" y="508" type="curve" smooth="yes"/>
      <point x="197" y="508"/>
      <point x="124" y="440"/>
      <point x="105" y="315" type="curve"/>
      <point x="103" y="294" type="line"/>
      <point x="102" y="289"/>
      <point x="102" y="283"/>
      <point x="102" y="277" type="curve"/>
      <point x="3" y="354" type="line"/>
      <point x="1" y="356"/>
      <point x="-1" y="355"/>
      <point x="-3" y="353" type="curve" smooth="yes"/>
      <point x="-4" y="351"/>
      <point x="-4" y="349"/>
      <point x="-2" y="347" type="curve"/>
      <point x="396" y="36" type="line"/>
      <point x="366" y="22"/>
      <point x="334" y="15"/>
      <point x="303" y="15" type="curve" smooth="yes"/>
      <point x="209" y="15"/>
      <point x="149" y="69"/>
      <point x="130" y="168" type="curve"/>
      <point x="126" y="188" type="line"/>
      <point x="124" y="196"/>
      <point x="123" y="203"/>
      <point x="123" y="211" type="curve"/>
      <point x="101" y="228" type="line"/>
      <point x="101" y="214"/>
      <point x="102" y="201"/>
      <point x="104" y="188" type="curve"/>
      <point x="40" y="188" type="line"/>
      <point x="38" y="171" type="line"/>
      <point x="41" y="168" type="line"/>
      <point x="107" y="168" type="line"/>
      <point x="128" y="56"/>
      <point x="196" y="-5"/>
      <point x="303" y="-5" type="curve" smooth="yes"/>
      <point x="339" y="-5"/>
      <point x="378" y="5"/>
      <point x="413" y="23" type="curve"/>
      <point x="501" y="-45" type="line"/>
      <point x="502" y="-46"/>
      <point x="503" y="-46"/>
      <point x="504" y="-46" type="curve" smooth="yes"/>
      <point x="505" y="-46"/>
      <point x="506" y="-46"/>
      <point x="507" y="-45" type="curve" smooth="yes"/>
      <point x="508" y="-43"/>
      <point x="508" y="-40"/>
    </contour>
  </outline>
</glyph>
<glyph name="Euro.2.2" format="1">
  <advance width="503"/>
  <outline>
    <contour>
      <point x="302" y="15" type="curve" smooth="yes"/>
      <point x="208" y="15"/>
      <point x="148" y="69"/>
      <point x="129" y="168" type="curve"/>
      <point x="344" y="168" type="line"/>
      <point x="346" y="185" type="line"/>
      <point x="343" y="188" type="line"/>
      <point x="125" y="188" type="line"/>
      <point x="122" y="207"/>
      <point x="121" y="226"/>
      <point x="121" y="247" type="curve" smooth="yes"/>
      <point x="121" y="263"/>
      <point x="122" y="280"/>
      <point x="123" y="294" type="curve"/>
      <point x="344" y="294" type="line"/>
      <point x="346" y="312" type="line"/>
      <point x="343" y="315" type="line"/>
      <point x="126" y="315" type="line"/>
      <point x="144" y="427"/>
      <point x="208" y="487"/>
      <point x="314" y="487" type="curve" smooth="yes"/>
      <point x="361" y="487"/>
      <point x="407" y="472"/>
      <point x="442" y="444" type="curve"/>
      <point x="448" y="444" type="line"/>
      <point x="454" y="462" type="line"/>
      <point x="415" y="491"/>
      <point x="364" y="508"/>
      <point x="315" y="508" type="curve" smooth="yes"/>
      <point x="196" y="508"/>
      <point x="123" y="440"/>
      <point x="104" y="315" type="curve"/>
      <point x="39" y="315" type="line"/>
      <point x="37" y="297" type="line"/>
      <point x="40" y="294" type="line"/>
      <point x="102" y="294" type="line"/>
      <point x="101" y="279"/>
      <point x="100" y="263"/>
      <point x="100" y="247" type="curve" smooth="yes"/>
      <point x="100" y="226"/>
      <point x="101" y="207"/>
      <point x="103" y="188" type="curve"/>
      <point x="39" y="188" type="line"/>
      <point x="37" y="171" type="line"/>
      <point x="40" y="168" type="line"/>
      <point x="106" y="168" type="line"/>
      <point x="127" y="56"/>
      <point x="195" y="-5"/>
      <point x="302" y="-5" type="curve" smooth="yes"/>
      <point x="352" y="-5"/>
      <point x="406" y="13"/>
      <point x="450" y="46" type="curve"/>
      <point x="452" y="65" type="line"/>
      <point x="446" y="67" type="line"/>
      <point x="405" y="34"/>
      <point x="352" y="15"/>
    </contour>
    <contour>
      <point x="87" y="355" type="line"/>
      <point x="0" y="355" type="line"/>
      <point x="-2" y="355"/>
      <point x="-4" y="353"/>
      <point x="-4" y="351" type="curve" smooth="yes"/>
      <point x="-4" y="348"/>
      <point x="-2" y="347"/>
      <point x="0" y="347" type="curve"/>
      <point x="85" y="347" type="line"/>
    </contour>
    <contour>
      <point x="503" y="355" type="curve"/>
      <point x="161" y="355" type="line"/>
      <point x="159" y="347" type="line"/>
      <point x="503" y="347" type="line"/>
      <point x="505" y="347"/>
      <point x="507" y="348"/>
      <point x="507" y="351" type="curve" smooth="yes"/>
      <point x="507" y="353"/>
      <point x="505" y="355"/>
    </contour>
  </outline>
</glyph>
<glyph name="Euro.2.3" format="1">
  <advance width="503"/>
  <outline>
    <contour>
      <point x="314" y="487" type="curve" smooth="yes"/>
      <point x="361" y="487"/>
      <point x="407" y="472"/>
      <point x="442" y="444" type="curve"/>
      <point x="448" y="444" type="line"/>
      <point x="454" y="462" type="line"/>
      <point x="415" y="491"/>
      <point x="364" y="508"/>
      <point x="315" y="508" type="curve" smooth="yes"/>
      <point x="196" y="508"/>
      <point x="123" y="440"/>
      <point x="104" y="315" type="curve"/>
      <point x="39" y="315" type="line"/>
      <point x="37" y="297" type="line"/>
      <point x="40" y="294" type="line"/>
      <point x="102" y="294" type="line"/>
      <point x="101" y="279"/>
      <point x="100" y="263"/>
      <point x="100" y="247" type="curve" smooth="yes"/>
      <point x="100" y="226"/>
      <point x="101" y="207"/>
      <point x="103" y="188" type="curve"/>
      <point x="39" y="188" type="line"/>
      <point x="37" y="171" type="line"/>
      <point x="40" y="168" type="line"/>
      <point x="106" y="168" type="line"/>
      <point x="127" y="56"/>
      <point x="195" y="-5"/>
      <point x="302" y="-5" type="curve" smooth="yes"/>
      <point x="352" y="-5"/>
      <point x="406" y="13"/>
      <point x="450" y="46" type="curve"/>
      <point x="452" y="65" type="line"/>
      <point x="446" y="67" type="line"/>
      <point x="405" y="34"/>
      <point x="352" y="15"/>
      <point x="302" y="15" type="curve" smooth="yes"/>
      <point x="208" y="15"/>
      <point x="148" y="69"/>
      <point x="129" y="168" type="curve"/>
      <point x="344" y="168" type="line"/>
      <point x="346" y="185" type="line"/>
      <point x="343" y="188" type="line"/>
      <point x="125" y="188" type="line"/>
      <point x="122" y="207"/>
      <point x="121" y="226"/>
      <point x="121" y="247" type="curve" smooth="yes"/>
      <point x="121" y="263"/>
      <point x="122" y="280"/>
      <point x="123" y="294" type="curve"/>
      <point x="344" y="294" type="line"/>
      <point x="346" y="312" type="line"/>
      <point x="343" y="315" type="line"/>
      <point x="126" y="315" type="line"/>
      <point x="144" y="427"/>
      <point x="208" y="487"/>
    </contour>
    <contour>
      <point x="507" y="549" type="curve" smooth="yes"/>
      <point x="506" y="551"/>
      <point x="504" y="552"/>
      <point x="502" y="551" type="curve"/>
      <point x="409" y="515" type="line"/>
      <point x="421" y="510" type="line"/>
      <point x="505" y="543" type="line"/>
      <point x="507" y="544"/>
      <point x="508" y="546"/>
    </contour>
    <contour>
      <point x="100" y="394" type="line"/>
      <point x="-1" y="355" type="line"/>
      <point x="-3" y="354"/>
      <point x="-4" y="351"/>
      <point x="-4" y="349" type="curve" smooth="yes"/>
      <point x="-3" y="348"/>
      <point x="-1" y="347"/>
      <point x="0" y="347" type="curve" smooth="yes"/>
      <point x="1" y="347"/>
      <point x="1" y="347"/>
      <point x="2" y="347" type="curve"/>
      <point x="96" y="383" type="line"/>
    </contour>
  </outline>
</glyph>
<glyph name="Euro.3" format="1">
  <advance width="503"/>
  <outline>
    <contour>
      <point x="506" y="550" type="curve" smooth="yes"/>
      <point x="505" y="552"/>
      <point x="502" y="552"/>
      <point x="500" y="550" type="curve"/>
      <point x="436" y="475" type="line"/>
      <point x="400" y="496"/>
      <point x="357" y="508"/>
      <point x="316" y="508" type="curve" smooth="yes"/>
      <point x="197" y="508"/>
      <point x="124" y="440"/>
      <point x="105" y="315" type="curve"/>
      <point x="40" y="315" type="line"/>
      <point x="38" y="297" type="line"/>
      <point x="41" y="294" type="line"/>
      <point x="103" y="294" type="line"/>
      <point x="102" y="279"/>
      <point x="101" y="263"/>
      <point x="101" y="247" type="curve" smooth="yes"/>
      <point x="101" y="226"/>
      <point x="102" y="207"/>
      <point x="104" y="188" type="curve"/>
      <point x="40" y="188" type="line"/>
      <point x="38" y="171" type="line"/>
      <point x="41" y="168" type="line"/>
      <point x="107" y="168" type="line"/>
      <point x="128" y="56"/>
      <point x="196" y="-5"/>
      <point x="303" y="-5" type="curve" smooth="yes"/>
      <point x="353" y="-5"/>
      <point x="407" y="13"/>
      <point x="451" y="46" type="curve"/>
      <point x="453" y="65" type="line"/>
      <point x="447" y="67" type="line"/>
      <point x="406" y="34"/>
      <point x="353" y="15"/>
      <point x="303" y="15" type="curve" smooth="yes"/>
      <point x="209" y="15"/>
      <point x="149" y="69"/>
      <point x="130" y="168" type="curve"/>
      <point x="345" y="168" type="line"/>
      <point x="347" y="185" type="line"/>
      <point x="344" y="188" type="line"/>
      <point x="126" y="188" type="line"/>
      <point x="123" y="207"/>
      <point x="122" y="226"/>
      <point x="122" y="247" type="curve" smooth="yes"/>
      <point x="122" y="263"/>
      <point x="123" y="280"/>
      <point x="124" y="294" type="curve"/>
      <point x="282" y="294" type="line"/>
      <point x="213" y="213" type="line"/>
      <point x="224" y="213" type="line"/>
      <point x="507" y="544" type="line"/>
      <point x="508" y="546"/>
      <point x="508" y="549"/>
    </contour>
    <contour>
      <point x="127" y="315" type="line"/>
      <point x="145" y="427"/>
      <point x="209" y="487"/>
      <point x="315" y="487" type="curve" smooth="yes"/>
      <point x="353" y="487"/>
      <point x="390" y="477"/>
      <point x="422" y="458" type="curve"/>
      <point x="300" y="315" type="line"/>
    </contour>
    <contour>
      <point x="-3" y="-39" type="line"/>
      <point x="-4" y="-41"/>
      <point x="-4" y="-44"/>
      <point x="-2" y="-45" type="curve" smooth="yes"/>
      <point x="-1" y="-46"/>
      <point x="0" y="-46"/>
      <point x="1" y="-46" type="curve" smooth="yes"/>
      <point x="2" y="-46"/>
      <point x="3" y="-46"/>
      <point x="4" y="-45" type="curve"/>
      <point x="110" y="80" type="line"/>
      <point x="106" y="88" type="line"/>
    </contour>
  </outline>
</glyph>
<glyph name="Iacute_J.loclNLD" format="1">
  <advance width="240"/>
  <outline>
    <contour>
      <point x="130" y="0" type="line"/>
      <point x="130" y="637" type="line"/>
      <point x="110" y="637" type="line"/>
      <point x="110" y="0" type="line"/>
    </contour>
    <contour>
      <point x="191" y="853" type="line"/>
      <point x="186" y="854" type="line"/>
      <point x="132" y="799"/>
      <point x="86" y="756"/>
      <point x="40" y="717" type="curve"/>
      <point x="51" y="704" type="line"/>
      <point x="56" y="703" type="line"/>
      <point x="106" y="747"/>
      <point x="152" y="790"/>
      <point x="200" y="838" type="curve"/>
      <point x="201" y="843" type="line"/>
    </contour>
  </outline>
</glyph>
<glyph name="V.ss01" format="1">
  <advance width="538"/>
  <outline>
    <contour>
      <point x="273" y="0" type="line"/>
      <point x="527" y="637" type="line"/>
      <point x="503" y="637" type="line"/>
      <point x="489" y="594" type="line"/>
      <point x="266" y="34" type="line"/>
      <point x="262" y="34" type="line"/>
      <point x="56" y="594" type="line"/>
      <point x="43" y="637" type="line"/>
      <point x="20" y="637" type="line"/>
      <point x="253" y="0" type="line"/>
    </contour>
  </outline>
</glyph>
<glyph name="a.1" format="1">
  <advance width="494"/>
  <outline>
    <contour>
      <point x="260" y="65" type="line"/>
      <point x="260" y="65"/>
      <point x="-1" y="-38"/>
      <point x="-1" y="-38" type="curve"/>
      <point x="-3" y="-39"/>
      <point x="-4" y="-42"/>
      <point x="-3" y="-44" type="curve" smooth="yes"/>
      <point x="-3" y="-45"/>
      <point x="-1" y="-46"/>
      <point x="0" y="-46" type="curve" smooth="yes"/>
      <point x="1" y="-46"/>
      <point x="1" y="-46"/>
      <point x="2" y="-46" type="curve"/>
      <point x="368" y="99" type="line"/>
      <point x="365" y="107" type="line"/>
    </contour>
    <contour>
      <point x="498" y="156" type="curve" smooth="yes"/>
      <point x="497" y="158"/>
      <point x="495" y="159"/>
      <point x="493" y="158" type="curve"/>
      <point x="429" y="132" type="line"/>
      <point x="431" y="125" type="line"/>
      <point x="496" y="150" type="line"/>
      <point x="498" y="151"/>
      <point x="499" y="154"/>
    </contour>
    <contour>
      <point x="69" y="36" type="line"/>
      <point x="113" y="142" type="line"/>
      <point x="379" y="142" type="line"/>
      <point x="419" y="36" type="line"/>
      <point x="429" y="0" type="line"/>
      <point x="452" y="0" type="line"/>
      <point x="397" y="149" type="line"/>
      <point x="262" y="506" type="line"/>
      <point x="241" y="506" type="line"/>
      <point x="34" y="0" type="line"/>
      <point x="57" y="0" type="line"/>
    </contour>
    <contour>
      <point x="249" y="475" type="line"/>
      <point x="252" y="475" type="line"/>
      <point x="372" y="161" type="line"/>
      <point x="121" y="161" type="line"/>
    </contour>
  </outline>
</glyph>
<glyph name="a.1.0.kern" format="1">
  <advance width="449"/>
  <outline>
    <contour>
      <point x="55" y="134" type="line"/>
      <point x="1" y="158" type="line"/>
      <point x="-1" y="159"/>
      <point x="-3" y="158"/>
      <point x="-4" y="156" type="curve" smooth="yes"/>
      <point x="-5" y="154"/>
      <point x="-4" y="151"/>
      <point x="-2" y="150" type="curve"/>
      <point x="52" y="127" type="line"/>
    </contour>
    <contour>
      <point x="450" y="-38" type="curve"/>
      <point x="118" y="107" type="line"/>
      <point x="115" y="99" type="line"/>
      <point x="447" y="-46" type="line"/>
      <point x="448" y="-46"/>
      <point x="448" y="-46"/>
      <point x="449" y="-46" type="curve" smooth="yes"/>
      <point x="450" y="-46"/>
      <point x="452" y="-46"/>
      <point x="453" y="-44" type="curve" smooth="yes"/>
      <point x="453" y="-42"/>
      <point x="452" y="-39"/>
    </contour>
    <contour>
      <point x="62" y="36" type="line"/>
      <point x="106" y="141" type="line"/>
      <point x="377" y="141" type="line"/>
      <point x="418" y="36" type="line"/>
      <point x="428" y="0" type="line"/>
      <point x="452" y="0" type="line"/>
      <point x="395" y="148" type="line"/>
      <point x="259" y="506" type="line"/>
      <point x="237" y="506" type="line"/>
      <point x="27" y="0" type="line"/>
      <point x="48" y="0" type="line"/>
    </contour>
    <contour>
      <point x="245" y="475" type="line"/>
      <point x="248" y="475" type="line"/>
      <point x="370" y="161" type="line"/>
      <point x="115" y="161" type="line"/>
    </contour>
  </outline>
</glyph>
<glyph name="a.1.1.kern" format="1">
  <advance width="449"/>
  <outline>
    <contour>
      <point x="386" y="119" type="line"/>
      <point x="418" y="36" type="line"/>
      <point x="428" y="0" type="line"/>
      <point x="452" y="0" type="line"/>
      <point x="406" y="119" type="line"/>
    </contour>
    <contour>
      <point x="27" y="0" type="line"/>
      <point x="50" y="0" type="line"/>
      <point x="62" y="36" type="line"/>
      <point x="96" y="119" type="line"/>
      <point x="76" y="119" type="line"/>
    </contour>
    <contour>
      <point x="453" y="154" type="curve" smooth="yes"/>
      <point x="453" y="156"/>
      <point x="451" y="158"/>
      <point x="449" y="158" type="curve"/>
      <point x="392" y="158" type="line"/>
      <point x="258" y="506" type="line"/>
      <point x="237" y="506" type="line"/>
      <point x="93" y="158" type="line"/>
      <point x="0" y="158" type="line"/>
      <point x="-2" y="158"/>
      <point x="-4" y="156"/>
      <point x="-4" y="154" type="curve" smooth="yes"/>
      <point x="-4" y="152"/>
      <point x="-2" y="150"/>
      <point x="0" y="150" type="curve"/>
      <point x="449" y="150" type="line"/>
      <point x="451" y="150"/>
      <point x="453" y="152"/>
    </contour>
    <contour>
      <point x="245" y="475" type="line"/>
      <point x="248" y="475" type="line"/>
      <point x="372" y="158" type="line"/>
      <point x="113" y="158" type="line"/>
    </contour>
  </outline>
</glyph>
<glyph name="a.1.kern" format="1">
  <advance width="449"/>
  <outline>
    <contour>
      <point x="259" y="506" type="line"/>
      <point x="237" y="506" type="line"/>
      <point x="27" y="0" type="line"/>
      <point x="48" y="0" type="line"/>
      <point x="62" y="36" type="line"/>
      <point x="106" y="141" type="line"/>
      <point x="377" y="141" type="line"/>
      <point x="418" y="36" type="line"/>
      <point x="428" y="0" type="line"/>
      <point x="452" y="0" type="line"/>
      <point x="395" y="148" type="line"/>
    </contour>
    <contour>
      <point x="115" y="161" type="line"/>
      <point x="245" y="475" type="line"/>
      <point x="248" y="475" type="line"/>
      <point x="370" y="161" type="line"/>
    </contour>
    <contour>
      <point x="425" y="139" type="line"/>
      <point x="450" y="150" type="line"/>
      <point x="452" y="151"/>
      <point x="453" y="154"/>
      <point x="453" y="156" type="curve" smooth="yes"/>
      <point x="452" y="158"/>
      <point x="449" y="159"/>
      <point x="447" y="158" type="curve"/>
      <point x="422" y="147" type="line"/>
    </contour>
    <contour>
      <point x="359" y="119" type="line"/>
      <point x="-2" y="-38" type="line"/>
      <point x="-4" y="-39"/>
      <point x="-5" y="-42"/>
      <point x="-4" y="-44" type="curve" smooth="yes"/>
      <point x="-3" y="-46"/>
      <point x="-2" y="-46"/>
      <point x="0" y="-46" type="curve" smooth="yes"/>
      <point x="0" y="-46"/>
      <point x="1" y="-46"/>
      <point x="1" y="-46" type="curve"/>
      <point x="362" y="112" type="line"/>
    </contour>
  </outline>
</glyph>
<glyph name="a.2.1.kern" format="1">
  <advance width="449"/>
  <outline>
    <contour>
      <point x="325" y="213" type="line"/>
      <point x="165" y="282" type="line"/>
      <point x="245" y="475" type="line"/>
      <point x="248" y="475" type="line"/>
      <point x="370" y="161" type="line"/>
      <point x="115" y="161" type="line"/>
      <point x="150" y="246" type="line"/>
      <point x="132" y="253" type="line"/>
      <point x="27" y="0" type="line"/>
      <point x="50" y="0" type="line"/>
      <point x="62" y="36" type="line"/>
      <point x="106" y="141" type="line"/>
      <point x="377" y="141" type="line"/>
      <point x="418" y="36" type="line"/>
      <point x="428" y="0" type="line"/>
      <point x="452" y="0" type="line"/>
      <point x="259" y="506" type="line"/>
      <point x="237" y="506" type="line"/>
      <point x="147" y="290" type="line"/>
      <point x="1" y="354" type="line" smooth="yes"/>
      <point x="-1" y="355"/>
      <point x="-3" y="354"/>
      <point x="-4" y="352" type="curve" smooth="yes"/>
      <point x="-5" y="350"/>
      <point x="-4" y="348"/>
      <point x="-2" y="347" type="curve" smooth="yes"/>
      <point x="329" y="202" type="line"/>
    </contour>
    <contour>
      <point x="417" y="163" type="line"/>
      <point x="447" y="150" type="line"/>
      <point x="449" y="150" type="line"/>
      <point x="450" y="150"/>
      <point x="452" y="151"/>
      <point x="453" y="152" type="curve"/>
      <point x="453" y="155"/>
      <point x="452" y="157"/>
      <point x="450" y="158" type="curve" smooth="yes"/>
      <point x="413" y="174" type="line"/>
    </contour>
  </outline>
</glyph>
<glyph name="a.2.2.kern" format="1">
  <advance width="449"/>
  <outline>
    <contour>
      <point x="271" y="354" type="line"/>
      <point x="195" y="354" type="line"/>
      <point x="245" y="475" type="line"/>
      <point x="248" y="475" type="line"/>
      <point x="370" y="161" type="line"/>
      <point x="115" y="161" type="line"/>
      <point x="178" y="314" type="line"/>
      <point x="157" y="314" type="line"/>
      <point x="27" y="0" type="line"/>
      <point x="50" y="0" type="line"/>
      <point x="62" y="36" type="line"/>
      <point x="106" y="141" type="line"/>
      <point x="377" y="141" type="line"/>
      <point x="418" y="36" type="line"/>
      <point x="428" y="0" type="line"/>
      <point x="452" y="0" type="line"/>
      <point x="259" y="506" type="line"/>
      <point x="237" y="506" type="line"/>
      <point x="174" y="354" type="line"/>
      <point x="0" y="354" type="line" smooth="yes"/>
      <point x="-2" y="354"/>
      <point x="-4" y="353"/>
      <point x="-4" y="350" type="curve" smooth="yes"/>
      <point x="-4" y="348"/>
      <point x="-2" y="346"/>
      <point x="0" y="346" type="curve" smooth="yes"/>
      <point x="274" y="346" type="line"/>
    </contour>
    <contour>
      <point x="348" y="346" type="line"/>
      <point x="449" y="346" type="line" smooth="yes"/>
      <point x="451" y="346"/>
      <point x="453" y="348"/>
      <point x="453" y="350" type="curve" smooth="yes"/>
      <point x="453" y="353"/>
      <point x="451" y="354"/>
      <point x="449" y="354" type="curve" smooth="yes"/>
      <point x="345" y="354" type="line"/>
    </contour>
  </outline>
</glyph>
<glyph name="a.3" format="1">
  <advance width="494"/>
  <outline>
    <contour>
      <point x="498" y="544" type="line"/>
      <point x="498" y="545"/>
      <point x="499" y="546"/>
      <point x="499" y="547" type="curve" smooth="yes"/>
      <point x="498" y="548"/>
      <point x="498" y="549"/>
      <point x="497" y="550" type="curve" smooth="yes"/>
      <point x="495" y="552"/>
      <point x="493" y="551"/>
      <point x="491" y="550" type="curve"/>
      <point x="322" y="348" type="line"/>
      <point x="262" y="506" type="line"/>
      <point x="241" y="506" type="line"/>
      <point x="58" y="58" type="line"/>
      <point x="37" y="8" type="line"/>
      <point x="-3" y="-40" type="line"/>
      <point x="-4" y="-41"/>
      <point x="-4" y="-44"/>
      <point x="-2" y="-45" type="curve" smooth="yes"/>
      <point x="-2" y="-46"/>
      <point x="-1" y="-46"/>
      <point x="0" y="-46" type="curve" smooth="yes"/>
      <point x="2" y="-46"/>
      <point x="3" y="-46"/>
      <point x="4" y="-45" type="curve"/>
      <point x="129" y="105" type="line"/>
      <point x="131" y="107"/>
      <point x="130" y="109"/>
      <point x="129" y="111" type="curve" smooth="yes"/>
      <point x="127" y="112"/>
      <point x="124" y="112"/>
      <point x="123" y="110" type="curve"/>
      <point x="74" y="52" type="line"/>
      <point x="84" y="72" type="line"/>
      <point x="113" y="142" type="line"/>
      <point x="379" y="142" type="line"/>
      <point x="419" y="36" type="line"/>
      <point x="429" y="0" type="line"/>
      <point x="452" y="0" type="line"/>
      <point x="338" y="305" type="line"/>
      <point x="323" y="289" type="line"/>
      <point x="372" y="161" type="line"/>
      <point x="176" y="161" type="line"/>
    </contour>
    <contour>
      <point x="121" y="161" type="line"/>
      <point x="249" y="475" type="line"/>
      <point x="252" y="475" type="line"/>
      <point x="307" y="330" type="line"/>
      <point x="165" y="161" type="line"/>
    </contour>
  </outline>
</glyph>
<glyph name="a.3.3" format="1">
  <advance width="494"/>
  <outline>
    <contour>
      <point x="241" y="506" type="line"/>
      <point x="34" y="0" type="line"/>
      <point x="57" y="0" type="line"/>
      <point x="69" y="36" type="line"/>
      <point x="113" y="141" type="line"/>
      <point x="379" y="141" type="line"/>
      <point x="419" y="36" type="line"/>
      <point x="429" y="0" type="line"/>
      <point x="452" y="0" type="line"/>
      <point x="262" y="506" type="line"/>
    </contour>
    <contour>
      <point x="121" y="161" type="line"/>
      <point x="249" y="475" type="line"/>
      <point x="252" y="475" type="line"/>
      <point x="372" y="161" type="line"/>
    </contour>
    <contour>
      <point x="494" y="551" type="curve"/>
      <point x="0" y="551" type="line"/>
      <point x="-2" y="551"/>
      <point x="-4" y="549"/>
      <point x="-4" y="547" type="curve" smooth="yes"/>
      <point x="-4" y="545"/>
      <point x="-2" y="543"/>
      <point x="0" y="543" type="curve"/>
      <point x="494" y="543" type="line"/>
      <point x="497" y="543"/>
      <point x="498" y="545"/>
      <point x="498" y="547" type="curve" smooth="yes"/>
      <point x="498" y="549"/>
      <point x="497" y="551"/>
    </contour>
  </outline>
</glyph>
<glyph name="a.3.3.kern" format="1">
  <advance width="449"/>
  <outline>
    <contour>
      <point x="453" y="547" type="curve" smooth="yes"/>
      <point x="453" y="549"/>
      <point x="451" y="551"/>
      <point x="449" y="551" type="curve" smooth="yes"/>
      <point x="0" y="551" type="line" smooth="yes"/>
      <point x="-2" y="551"/>
      <point x="-4" y="549"/>
      <point x="-4" y="547" type="curve" smooth="yes"/>
      <point x="-4" y="545"/>
      <point x="-2" y="543"/>
      <point x="0" y="543" type="curve" smooth="yes"/>
      <point x="449" y="543" type="line" smooth="yes"/>
      <point x="451" y="543"/>
      <point x="453" y="545"/>
    </contour>
    <contour>
      <point x="62" y="36" type="line"/>
      <point x="106" y="141" type="line"/>
      <point x="377" y="141" type="line"/>
      <point x="418" y="36" type="line"/>
      <point x="428" y="0" type="line"/>
      <point x="452" y="0" type="line"/>
      <point x="395" y="148" type="line"/>
      <point x="259" y="506" type="line"/>
      <point x="237" y="506" type="line"/>
      <point x="27" y="0" type="line"/>
      <point x="48" y="0" type="line"/>
    </contour>
    <contour>
      <point x="245" y="475" type="line"/>
      <point x="248" y="475" type="line"/>
      <point x="370" y="161" type="line"/>
      <point x="115" y="161" type="line"/>
    </contour>
  </outline>
</glyph>
<glyph name="a.bot" format="1">
  <advance width="86"/>
  <outline>
    <contour>
      <point x="35" y="-80" type="curve" smooth="yes"/>
      <point x="28" y="-80"/>
      <point x="22" y="-78"/>
      <point x="17" y="-75" type="curve"/>
      <point x="13" y="-71"/>
      <point x="11" y="-65"/>
      <point x="11" y="-58" type="curve" smooth="yes"/>
      <point x="11" y="-51"/>
      <point x="13" y="-45"/>
      <point x="18" y="-41" type="curve" smooth="yes"/>
      <point x="23" y="-37"/>
      <point x="29" y="-35"/>
      <point x="37" y="-35" type="curve" smooth="yes"/>
      <point x="45" y="-35"/>
      <point x="52" y="-35"/>
      <point x="58" y="-36" type="curve"/>
      <point x="58" y="-27"/>
      <point x="57" y="-20"/>
      <point x="55" y="-17" type="curve" smooth="yes"/>
      <point x="52" y="-13"/>
      <point x="48" y="-12"/>
      <point x="41" y="-12" type="curve" smooth="yes"/>
      <point x="34" y="-12"/>
      <point x="25" y="-13"/>
      <point x="16" y="-17" type="curve"/>
      <point x="13" y="-9" type="line"/>
      <point x="23" y="-5"/>
      <point x="32" y="-4"/>
      <point x="40" y="-4" type="curve" smooth="yes"/>
      <point x="50" y="-4"/>
      <point x="57" y="-6"/>
      <point x="61" y="-10" type="curve"/>
      <point x="64" y="-15"/>
      <point x="66" y="-23"/>
      <point x="66" y="-35" type="curve" smooth="yes"/>
      <point x="66" y="-68" type="line"/>
      <point x="68" y="-79" type="line"/>
      <point x="60" y="-80" type="line"/>
      <point x="58" y="-71" type="line"/>
      <point x="56" y="-73"/>
      <point x="52" y="-75"/>
      <point x="48" y="-77" type="curve" smooth="yes"/>
      <point x="43" y="-79"/>
      <point x="39" y="-80"/>
    </contour>
    <contour>
      <point x="35" y="-72" type="curve" smooth="yes"/>
      <point x="39" y="-72"/>
      <point x="43" y="-71"/>
      <point x="48" y="-69" type="curve" smooth="yes"/>
      <point x="53" y="-66"/>
      <point x="56" y="-64"/>
      <point x="58" y="-62" type="curve"/>
      <point x="58" y="-43" type="line"/>
      <point x="51" y="-43"/>
      <point x="44" y="-42"/>
      <point x="38" y="-42" type="curve" smooth="yes"/>
      <point x="32" y="-42"/>
      <point x="27" y="-44"/>
      <point x="24" y="-46" type="curve" smooth="yes"/>
      <point x="21" y="-49"/>
      <point x="19" y="-53"/>
      <point x="19" y="-57" type="curve" smooth="yes"/>
      <point x="19" y="-67"/>
      <point x="25" y="-72"/>
    </contour>
  </outline>
</glyph>
<glyph name="acircumflex.1.0.kern" format="1">
  <advance width="449"/>
  <outline>
    <contour>
      <point x="55" y="134" type="line"/>
      <point x="1" y="158" type="line"/>
      <point x="-1" y="159"/>
      <point x="-3" y="158"/>
      <point x="-4" y="156" type="curve" smooth="yes"/>
      <point x="-5" y="154"/>
      <point x="-4" y="151"/>
      <point x="-2" y="150" type="curve"/>
      <point x="52" y="127" type="line"/>
    </contour>
    <contour>
      <point x="450" y="-38" type="curve"/>
      <point x="118" y="107" type="line"/>
      <point x="115" y="99" type="line"/>
      <point x="447" y="-46" type="line"/>
      <point x="448" y="-46"/>
      <point x="448" y="-46"/>
      <point x="449" y="-46" type="curve" smooth="yes"/>
      <point x="450" y="-46"/>
      <point x="452" y="-46"/>
      <point x="453" y="-44" type="curve" smooth="yes"/>
      <point x="453" y="-42"/>
      <point x="452" y="-39"/>
    </contour>
    <contour>
      <point x="62" y="36" type="line"/>
      <point x="106" y="141" type="line"/>
      <point x="377" y="141" type="line"/>
      <point x="418" y="36" type="line"/>
      <point x="428" y="0" type="line"/>
      <point x="452" y="0" type="line"/>
      <point x="395" y="148" type="line"/>
      <point x="259" y="506" type="line"/>
      <point x="237" y="506" type="line"/>
      <point x="27" y="0" type="line"/>
      <point x="48" y="0" type="line"/>
    </contour>
    <contour>
      <point x="245" y="475" type="line"/>
      <point x="248" y="475" type="line"/>
      <point x="370" y="161" type="line"/>
      <point x="115" y="161" type="line"/>
    </contour>
    <contour>
      <point x="253" y="606" type="line"/>
      <point x="253" y="606"/>
      <point x="304" y="562"/>
      <point x="345" y="532" type="curve"/>
      <point x="349" y="533" type="line"/>
      <point x="357" y="545" type="line"/>
      <point x="319" y="574"/>
      <point x="258" y="626"/>
      <point x="258" y="626" type="curve"/>
      <point x="245" y="626" type="line"/>
      <point x="245" y="626"/>
      <point x="181" y="571"/>
      <point x="146" y="545" type="curve"/>
      <point x="154" y="533" type="line"/>
      <point x="159" y="532" type="line"/>
      <point x="198" y="561"/>
      <point x="250" y="606"/>
      <point x="250" y="606" type="curve"/>
    </contour>
  </outline>
</glyph>
<glyph name="acircumflex.1.1" format="1">
  <advance width="494"/>
  <outline>
    <contour>
      <point x="388" y="119" type="line"/>
      <point x="419" y="36" type="line"/>
      <point x="429" y="0" type="line"/>
      <point x="452" y="0" type="line"/>
      <point x="408" y="119" type="line"/>
    </contour>
    <contour>
      <point x="34" y="0" type="line"/>
      <point x="57" y="0" type="line"/>
      <point x="69" y="36" type="line"/>
      <point x="104" y="119" type="line"/>
      <point x="83" y="119" type="line"/>
    </contour>
    <contour>
      <point x="494" y="158" type="curve"/>
      <point x="393" y="158" type="line"/>
      <point x="262" y="506" type="line"/>
      <point x="241" y="506" type="line"/>
      <point x="99" y="158" type="line"/>
      <point x="0" y="158" type="line"/>
      <point x="-2" y="158"/>
      <point x="-4" y="156"/>
      <point x="-4" y="154" type="curve" smooth="yes"/>
      <point x="-4" y="152"/>
      <point x="-2" y="150"/>
      <point x="0" y="150" type="curve"/>
      <point x="494" y="150" type="line"/>
      <point x="497" y="150"/>
      <point x="498" y="152"/>
      <point x="498" y="154" type="curve" smooth="yes"/>
      <point x="498" y="156"/>
      <point x="497" y="158"/>
    </contour>
    <contour>
      <point x="249" y="475" type="line"/>
      <point x="252" y="475" type="line"/>
      <point x="373" y="158" type="line"/>
      <point x="120" y="158" type="line"/>
    </contour>
    <contour>
      <point x="253" y="606" type="line"/>
      <point x="253" y="606"/>
      <point x="304" y="562"/>
      <point x="345" y="532" type="curve"/>
      <point x="349" y="533" type="line"/>
      <point x="357" y="545" type="line"/>
      <point x="319" y="574"/>
      <point x="258" y="626"/>
      <point x="258" y="626" type="curve"/>
      <point x="245" y="626" type="line"/>
      <point x="245" y="626"/>
      <point x="181" y="571"/>
      <point x="146" y="545" type="curve"/>
      <point x="154" y="533" type="line"/>
      <point x="159" y="532" type="line"/>
      <point x="198" y="561"/>
      <point x="250" y="606"/>
      <point x="250" y="606" type="curve"/>
    </contour>
  </outline>
</glyph>
<glyph name="acircumflex.2.1.kern" format="1">
  <advance width="449"/>
  <outline>
    <contour>
      <point x="325" y="213" type="line"/>
      <point x="165" y="282" type="line"/>
      <point x="245" y="475" type="line"/>
      <point x="248" y="475" type="line"/>
      <point x="370" y="161" type="line"/>
      <point x="115" y="161" type="line"/>
      <point x="150" y="246" type="line"/>
      <point x="132" y="253" type="line"/>
      <point x="27" y="0" type="line"/>
      <point x="50" y="0" type="line"/>
      <point x="62" y="36" type="line"/>
      <point x="106" y="141" type="line"/>
      <point x="377" y="141" type="line"/>
      <point x="418" y="36" type="line"/>
      <point x="428" y="0" type="line"/>
      <point x="452" y="0" type="line"/>
      <point x="259" y="506" type="line"/>
      <point x="237" y="506" type="line"/>
      <point x="147" y="290" type="line"/>
      <point x="1" y="354" type="line" smooth="yes"/>
      <point x="-1" y="355"/>
      <point x="-3" y="354"/>
      <point x="-4" y="352" type="curve" smooth="yes"/>
      <point x="-5" y="350"/>
      <point x="-4" y="348"/>
      <point x="-2" y="347" type="curve" smooth="yes"/>
      <point x="329" y="202" type="line"/>
    </contour>
    <contour>
      <point x="417" y="163" type="line"/>
      <point x="447" y="150" type="line"/>
      <point x="449" y="150" type="line"/>
      <point x="450" y="150"/>
      <point x="452" y="151"/>
      <point x="453" y="152" type="curve"/>
      <point x="453" y="155"/>
      <point x="452" y="157"/>
      <point x="450" y="158" type="curve" smooth="yes"/>
      <point x="413" y="174" type="line"/>
    </contour>
    <contour>
      <point x="253" y="606" type="line"/>
      <point x="253" y="606"/>
      <point x="304" y="562"/>
      <point x="345" y="532" type="curve"/>
      <point x="349" y="533" type="line"/>
      <point x="357" y="545" type="line"/>
      <point x="319" y="574"/>
      <point x="258" y="626"/>
      <point x="258" y="626" type="curve"/>
      <point x="245" y="626" type="line"/>
      <point x="245" y="626"/>
      <point x="181" y="571"/>
      <point x="146" y="545" type="curve"/>
      <point x="154" y="533" type="line"/>
      <point x="159" y="532" type="line"/>
      <point x="198" y="561"/>
      <point x="250" y="606"/>
      <point x="250" y="606" type="curve"/>
    </contour>
  </outline>
</glyph>
<glyph name="acircumflex.2.3" format="1">
  <advance width="494"/>
  <outline>
    <contour>
      <point x="498" y="548" type="curve" smooth="yes"/>
      <point x="497" y="551"/>
      <point x="495" y="552"/>
      <point x="493" y="551" type="curve"/>
      <point x="301" y="474" type="line"/>
      <point x="304" y="467" type="line"/>
      <point x="496" y="543" type="line"/>
      <point x="498" y="544"/>
      <point x="499" y="546"/>
    </contour>
    <contour>
      <point x="182" y="427" type="line"/>
      <point x="-1" y="354" type="line"/>
      <point x="-3" y="354"/>
      <point x="-4" y="351"/>
      <point x="-3" y="349" type="curve" smooth="yes"/>
      <point x="-3" y="347"/>
      <point x="-1" y="346"/>
      <point x="0" y="346" type="curve" smooth="yes"/>
      <point x="1" y="346"/>
      <point x="1" y="346"/>
      <point x="2" y="347" type="curve"/>
      <point x="178" y="417" type="line"/>
    </contour>
    <contour>
      <point x="241" y="506" type="line"/>
      <point x="34" y="0" type="line"/>
      <point x="57" y="0" type="line"/>
      <point x="69" y="36" type="line"/>
      <point x="113" y="141" type="line"/>
      <point x="379" y="141" type="line"/>
      <point x="419" y="36" type="line"/>
      <point x="429" y="0" type="line"/>
      <point x="452" y="0" type="line"/>
      <point x="262" y="506" type="line"/>
    </contour>
    <contour>
      <point x="121" y="161" type="line"/>
      <point x="249" y="475" type="line"/>
      <point x="252" y="475" type="line"/>
      <point x="372" y="161" type="line"/>
    </contour>
    <contour>
      <point x="253" y="606" type="line"/>
      <point x="253" y="606"/>
      <point x="304" y="562"/>
      <point x="345" y="532" type="curve"/>
      <point x="349" y="533" type="line"/>
      <point x="357" y="545" type="line"/>
      <point x="319" y="574"/>
      <point x="258" y="626"/>
      <point x="258" y="626" type="curve"/>
      <point x="245" y="626" type="line"/>
      <point x="245" y="626"/>
      <point x="181" y="571"/>
      <point x="146" y="545" type="curve"/>
      <point x="154" y="533" type="line"/>
      <point x="159" y="532" type="line"/>
      <point x="198" y="561"/>
      <point x="250" y="606"/>
      <point x="250" y="606" type="curve"/>
    </contour>
  </outline>
</glyph>
<glyph name="acircumflex.2.kern" format="1">
  <advance width="449"/>
  <outline>
    <contour>
      <point x="452" y="353" type="curve" smooth="yes"/>
      <point x="450" y="355"/>
      <point x="448" y="355"/>
      <point x="446" y="354" type="curve" smooth="yes"/>
      <point x="350" y="270" type="line"/>
      <point x="262" y="505" type="line"/>
      <point x="241" y="505" type="line"/>
      <point x="40" y="-1" type="line"/>
      <point x="-3" y="-39" type="line" smooth="yes"/>
      <point x="-5" y="-41"/>
      <point x="-5" y="-43"/>
      <point x="-3" y="-45" type="curve"/>
      <point x="-3" y="-46"/>
      <point x="-1" y="-46"/>
      <point x="0" y="-46" type="curve" smooth="yes"/>
      <point x="1" y="-46"/>
      <point x="2" y="-46"/>
      <point x="3" y="-45" type="curve" smooth="yes"/>
      <point x="187" y="116" type="line"/>
      <point x="174" y="116" type="line"/>
      <point x="72" y="27" type="line"/>
      <point x="75" y="36" type="line"/>
      <point x="117" y="141" type="line"/>
      <point x="379" y="141" type="line"/>
      <point x="419" y="36" type="line"/>
      <point x="429" y="0" type="line"/>
      <point x="452" y="0" type="line"/>
      <point x="396" y="148" type="line"/>
      <point x="365" y="231" type="line"/>
      <point x="350" y="217" type="line"/>
      <point x="371" y="161" type="line"/>
      <point x="125" y="161" type="line"/>
      <point x="249" y="474" type="line"/>
      <point x="252" y="474" type="line"/>
      <point x="334" y="256" type="line"/>
      <point x="254" y="186" type="line"/>
      <point x="267" y="186" type="line"/>
      <point x="451" y="347" type="line" smooth="yes"/>
      <point x="453" y="349"/>
      <point x="453" y="351"/>
    </contour>
    <contour>
      <point x="253" y="606" type="line"/>
      <point x="253" y="606"/>
      <point x="304" y="562"/>
      <point x="345" y="532" type="curve"/>
      <point x="349" y="533" type="line"/>
      <point x="357" y="545" type="line"/>
      <point x="319" y="574"/>
      <point x="258" y="626"/>
      <point x="258" y="626" type="curve"/>
      <point x="245" y="626" type="line"/>
      <point x="245" y="626"/>
      <point x="181" y="571"/>
      <point x="146" y="545" type="curve"/>
      <point x="154" y="533" type="line"/>
      <point x="159" y="532" type="line"/>
      <point x="198" y="561"/>
      <point x="250" y="606"/>
      <point x="250" y="606" type="curve"/>
    </contour>
  </outline>
</glyph>
<glyph name="acircumflex.3.0" format="1">
  <advance width="494"/>
  <outline>
    <contour>
      <point x="498" y="-41" type="curve"/>
      <point x="467" y="-5" type="line"/>
      <point x="262" y="506" type="line"/>
      <point x="241" y="506" type="line"/>
      <point x="34" y="0" type="line"/>
      <point x="57" y="0" type="line"/>
      <point x="69" y="36" type="line"/>
      <point x="113" y="141" type="line"/>
      <point x="293" y="141" type="line"/>
      <point x="277" y="161" type="line"/>
      <point x="121" y="161" type="line"/>
      <point x="249" y="475" type="line"/>
      <point x="252" y="475" type="line"/>
      <point x="381" y="161" type="line"/>
      <point x="328" y="161" type="line"/>
      <point x="207" y="306" type="line"/>
      <point x="203" y="296" type="line"/>
      <point x="491" y="-47" type="line"/>
      <point x="492" y="-48"/>
      <point x="493" y="-48"/>
      <point x="494" y="-48" type="curve" smooth="yes"/>
      <point x="495" y="-48"/>
      <point x="496" y="-48"/>
      <point x="497" y="-47" type="curve" smooth="yes"/>
      <point x="499" y="-46"/>
      <point x="499" y="-43"/>
    </contour>
    <contour>
      <point x="389" y="141" type="line"/>
      <point x="422" y="59" type="line"/>
      <point x="432" y="38" type="line"/>
      <point x="345" y="141" type="line"/>
    </contour>
    <contour>
      <point x="157" y="365" type="line"/>
      <point x="4" y="548" type="line"/>
      <point x="2" y="550"/>
      <point x="-1" y="550"/>
      <point x="-2" y="549" type="curve" smooth="yes"/>
      <point x="-4" y="547"/>
      <point x="-4" y="544"/>
      <point x="-3" y="542" type="curve"/>
      <point x="153" y="356" type="line"/>
    </contour>
    <contour>
      <point x="253" y="606" type="line"/>
      <point x="253" y="606"/>
      <point x="304" y="562"/>
      <point x="345" y="532" type="curve"/>
      <point x="349" y="533" type="line"/>
      <point x="357" y="545" type="line"/>
      <point x="319" y="574"/>
      <point x="258" y="626"/>
      <point x="258" y="626" type="curve"/>
      <point x="245" y="626" type="line"/>
      <point x="245" y="626"/>
      <point x="181" y="571"/>
      <point x="146" y="545" type="curve"/>
      <point x="154" y="533" type="line"/>
      <point x="159" y="532" type="line"/>
      <point x="198" y="561"/>
      <point x="250" y="606"/>
      <point x="250" y="606" type="curve"/>
    </contour>
  </outline>
</glyph>
<glyph name="acircumflex.3.2" format="1">
  <advance width="494"/>
  <outline>
    <contour>
      <point x="241" y="506" type="line"/>
      <point x="34" y="0" type="line"/>
      <point x="57" y="0" type="line"/>
      <point x="69" y="36" type="line"/>
      <point x="113" y="141" type="line"/>
      <point x="379" y="141" type="line"/>
      <point x="419" y="36" type="line"/>
      <point x="429" y="0" type="line"/>
      <point x="452" y="0" type="line"/>
      <point x="262" y="506" type="line"/>
    </contour>
    <contour>
      <point x="121" y="161" type="line"/>
      <point x="249" y="475" type="line"/>
      <point x="252" y="475" type="line"/>
      <point x="372" y="161" type="line"/>
    </contour>
    <contour>
      <point x="201" y="472" type="line"/>
      <point x="2" y="551" type="line"/>
      <point x="0" y="552"/>
      <point x="-3" y="551"/>
      <point x="-3" y="548" type="curve" smooth="yes"/>
      <point x="-4" y="546"/>
      <point x="-3" y="544"/>
      <point x="-1" y="543" type="curve"/>
      <point x="197" y="464" type="line"/>
    </contour>
    <contour>
      <point x="496" y="354" type="curve"/>
      <point x="320" y="424" type="line"/>
      <point x="324" y="414" type="line"/>
      <point x="493" y="347" type="line"/>
      <point x="493" y="346"/>
      <point x="494" y="346"/>
      <point x="494" y="346" type="curve" smooth="yes"/>
      <point x="496" y="346"/>
      <point x="498" y="347"/>
      <point x="498" y="349" type="curve" smooth="yes"/>
      <point x="499" y="351"/>
      <point x="498" y="354"/>
    </contour>
    <contour>
      <point x="253" y="606" type="line"/>
      <point x="253" y="606"/>
      <point x="304" y="562"/>
      <point x="345" y="532" type="curve"/>
      <point x="349" y="533" type="line"/>
      <point x="357" y="545" type="line"/>
      <point x="319" y="574"/>
      <point x="258" y="626"/>
      <point x="258" y="626" type="curve"/>
      <point x="245" y="626" type="line"/>
      <point x="245" y="626"/>
      <point x="181" y="571"/>
      <point x="146" y="545" type="curve"/>
      <point x="154" y="533" type="line"/>
      <point x="159" y="532" type="line"/>
      <point x="198" y="561"/>
      <point x="250" y="606"/>
      <point x="250" y="606" type="curve"/>
    </contour>
  </outline>
</glyph>
<glyph name="acircumflex.3.3" format="1">
  <advance width="494"/>
  <outline>
    <contour>
      <point x="241" y="506" type="line"/>
      <point x="34" y="0" type="line"/>
      <point x="57" y="0" type="line"/>
      <point x="69" y="36" type="line"/>
      <point x="112" y="141" type="line"/>
      <point x="379" y="141" type="line"/>
      <point x="419" y="36" type="line"/>
      <point x="429" y="0" type="line"/>
      <point x="452" y="0" type="line"/>
      <point x="262" y="506" type="line"/>
    </contour>
    <contour>
      <point x="120" y="161" type="line"/>
      <point x="249" y="475" type="line"/>
      <point x="252" y="475" type="line"/>
      <point x="372" y="161" type="line"/>
    </contour>
    <contour>
      <point x="494" y="551" type="curve"/>
      <point x="349" y="551" type="line"/>
      <point x="311" y="580"/>
      <point x="258" y="626"/>
      <point x="258" y="626" type="curve"/>
      <point x="245" y="626" type="line"/>
      <point x="245" y="626"/>
      <point x="190" y="578"/>
      <point x="154" y="551" type="curve"/>
      <point x="0" y="551" type="line" smooth="yes"/>
      <point x="-2" y="551"/>
      <point x="-4" y="549"/>
      <point x="-4" y="547" type="curve" smooth="yes"/>
      <point x="-4" y="545"/>
      <point x="-2" y="543"/>
      <point x="0" y="543" type="curve" smooth="yes"/>
      <point x="494" y="543" type="line" smooth="yes"/>
      <point x="496" y="543"/>
      <point x="498" y="545"/>
      <point x="498" y="547" type="curve" smooth="yes"/>
      <point x="498" y="549"/>
      <point x="496" y="551"/>
    </contour>
    <contour>
      <point x="253" y="606" type="line"/>
      <point x="253" y="606"/>
      <point x="285" y="577"/>
      <point x="319" y="551" type="curve"/>
      <point x="183" y="551" type="line"/>
      <point x="216" y="577"/>
      <point x="250" y="606"/>
      <point x="250" y="606" type="curve"/>
    </contour>
  </outline>
</glyph>
<glyph name="acircumflex.3.kern" format="1">
  <advance width="449"/>
  <outline>
    <contour>
      <point x="181" y="188" type="line"/>
      <point x="452" y="544" type="line"/>
      <point x="453" y="546"/>
      <point x="453" y="549"/>
      <point x="451" y="550" type="curve" smooth="yes"/>
      <point x="449" y="552"/>
      <point x="447" y="551"/>
      <point x="445" y="549" type="curve"/>
      <point x="310" y="371" type="line"/>
      <point x="259" y="506" type="line"/>
      <point x="237" y="506" type="line"/>
      <point x="57" y="59" type="line"/>
      <point x="39" y="16" type="line"/>
      <point x="-3" y="-40" type="line"/>
      <point x="-5" y="-42"/>
      <point x="-4" y="-44"/>
      <point x="-3" y="-46" type="curve" smooth="yes"/>
      <point x="-2" y="-46"/>
      <point x="-1" y="-46"/>
      <point x="0" y="-46" type="curve" smooth="yes"/>
      <point x="1" y="-46"/>
      <point x="2" y="-46"/>
      <point x="3" y="-45" type="curve"/>
      <point x="128" y="119" type="line"/>
      <point x="117" y="119" type="line"/>
      <point x="81" y="71" type="line"/>
      <point x="82" y="73" type="line"/>
      <point x="109" y="141" type="line"/>
      <point x="377" y="141" type="line"/>
      <point x="418" y="36" type="line"/>
      <point x="428" y="0" type="line"/>
      <point x="452" y="0" type="line"/>
      <point x="327" y="326" type="line"/>
      <point x="313" y="308" type="line"/>
      <point x="370" y="161" type="line"/>
      <point x="115" y="161" type="line"/>
      <point x="245" y="475" type="line"/>
      <point x="248" y="475" type="line"/>
      <point x="296" y="353" type="line"/>
      <point x="170" y="188" type="line"/>
    </contour>
    <contour>
      <point x="253" y="606" type="line"/>
      <point x="253" y="606"/>
      <point x="304" y="562"/>
      <point x="345" y="532" type="curve"/>
      <point x="349" y="533" type="line"/>
      <point x="357" y="545" type="line"/>
      <point x="319" y="574"/>
      <point x="258" y="626"/>
      <point x="258" y="626" type="curve"/>
      <point x="245" y="626" type="line"/>
      <point x="245" y="626"/>
      <point x="181" y="571"/>
      <point x="146" y="545" type="curve"/>
      <point x="154" y="533" type="line"/>
      <point x="159" y="532" type="line"/>
      <point x="198" y="561"/>
      <point x="250" y="606"/>
      <point x="250" y="606" type="curve"/>
    </contour>
  </outline>
</glyph>
<glyph name="adieresis.1" format="1">
  <advance width="494"/>
  <outline>
    <contour>
      <point x="260" y="65" type="line"/>
      <point x="260" y="65"/>
      <point x="-1" y="-38"/>
      <point x="-1" y="-38" type="curve"/>
      <point x="-3" y="-39"/>
      <point x="-4" y="-42"/>
      <point x="-3" y="-44" type="curve" smooth="yes"/>
      <point x="-3" y="-45"/>
      <point x="-1" y="-46"/>
      <point x="0" y="-46" type="curve" smooth="yes"/>
      <point x="1" y="-46"/>
      <point x="1" y="-46"/>
      <point x="2" y="-46" type="curve"/>
      <point x="368" y="99" type="line"/>
      <point x="365" y="107" type="line"/>
    </contour>
    <contour>
      <point x="498" y="156" type="curve" smooth="yes"/>
      <point x="497" y="158"/>
      <point x="495" y="159"/>
      <point x="493" y="158" type="curve"/>
      <point x="429" y="132" type="line"/>
      <point x="431" y="125" type="line"/>
      <point x="496" y="150" type="line"/>
      <point x="498" y="151"/>
      <point x="499" y="154"/>
    </contour>
    <contour>
      <point x="69" y="36" type="line"/>
      <point x="113" y="142" type="line"/>
      <point x="379" y="142" type="line"/>
      <point x="419" y="36" type="line"/>
      <point x="429" y="0" type="line"/>
      <point x="452" y="0" type="line"/>
      <point x="397" y="149" type="line"/>
      <point x="262" y="506" type="line"/>
      <point x="241" y="506" type="line"/>
      <point x="34" y="0" type="line"/>
      <point x="57" y="0" type="line"/>
    </contour>
    <contour>
      <point x="249" y="475" type="line"/>
      <point x="252" y="475" type="line"/>
      <point x="372" y="161" type="line"/>
      <point x="121" y="161" type="line"/>
    </contour>
    <contour>
      <point x="161" y="587" type="curve" smooth="yes"/>
      <point x="161" y="599"/>
      <point x="169" y="607"/>
      <point x="181" y="607" type="curve" smooth="yes"/>
      <point x="193" y="607"/>
      <point x="201" y="599"/>
      <point x="201" y="587" type="curve" smooth="yes"/>
      <point x="201" y="575"/>
      <point x="193" y="567"/>
      <point x="181" y="567" type="curve" smooth="yes"/>
      <point x="169" y="567"/>
      <point x="161" y="575"/>
    </contour>
    <contour>
      <point x="301" y="587" type="curve" smooth="yes"/>
      <point x="301" y="599"/>
      <point x="309" y="607"/>
      <point x="321" y="607" type="curve" smooth="yes"/>
      <point x="333" y="607"/>
      <point x="341" y="599"/>
      <point x="341" y="587" type="curve" smooth="yes"/>
      <point x="341" y="575"/>
      <point x="333" y="567"/>
      <point x="321" y="567" type="curve" smooth="yes"/>
      <point x="309" y="567"/>
      <point x="301" y="575"/>
    </contour>
  </outline>
</glyph>
<glyph name="adieresis.1.1" format="1">
  <advance width="494"/>
  <outline>
    <contour>
      <point x="388" y="119" type="line"/>
      <point x="419" y="36" type="line"/>
      <point x="429" y="0" type="line"/>
      <point x="452" y="0" type="line"/>
      <point x="408" y="119" type="line"/>
    </contour>
    <contour>
      <point x="34" y="0" type="line"/>
      <point x="57" y="0" type="line"/>
      <point x="69" y="36" type="line"/>
      <point x="104" y="119" type="line"/>
      <point x="83" y="119" type="line"/>
    </contour>
    <contour>
      <point x="494" y="158" type="curve"/>
      <point x="393" y="158" type="line"/>
      <point x="262" y="506" type="line"/>
      <point x="241" y="506" type="line"/>
      <point x="99" y="158" type="line"/>
      <point x="0" y="158" type="line"/>
      <point x="-2" y="158"/>
      <point x="-4" y="156"/>
      <point x="-4" y="154" type="curve" smooth="yes"/>
      <point x="-4" y="152"/>
      <point x="-2" y="150"/>
      <point x="0" y="150" type="curve"/>
      <point x="494" y="150" type="line"/>
      <point x="497" y="150"/>
      <point x="498" y="152"/>
      <point x="498" y="154" type="curve" smooth="yes"/>
      <point x="498" y="156"/>
      <point x="497" y="158"/>
    </contour>
    <contour>
      <point x="249" y="475" type="line"/>
      <point x="252" y="475" type="line"/>
      <point x="373" y="158" type="line"/>
      <point x="120" y="158" type="line"/>
    </contour>
    <contour>
      <point x="161" y="587" type="curve" smooth="yes"/>
      <point x="161" y="599"/>
      <point x="169" y="607"/>
      <point x="181" y="607" type="curve" smooth="yes"/>
      <point x="193" y="607"/>
      <point x="201" y="599"/>
      <point x="201" y="587" type="curve" smooth="yes"/>
      <point x="201" y="575"/>
      <point x="193" y="567"/>
      <point x="181" y="567" type="curve" smooth="yes"/>
      <point x="169" y="567"/>
      <point x="161" y="575"/>
    </contour>
    <contour>
      <point x="301" y="587" type="curve" smooth="yes"/>
      <point x="301" y="599"/>
      <point x="309" y="607"/>
      <point x="321" y="607" type="curve" smooth="yes"/>
      <point x="333" y="607"/>
      <point x="341" y="599"/>
      <point x="341" y="587" type="curve" smooth="yes"/>
      <point x="341" y="575"/>
      <point x="333" y="567"/>
      <point x="321" y="567" type="curve" smooth="yes"/>
      <point x="309" y="567"/>
      <point x="301" y="575"/>
    </contour>
  </outline>
</glyph>
<glyph name="adieresis.1.1.kern" format="1">
  <advance width="449"/>
  <outline>
    <contour>
      <point x="386" y="119" type="line"/>
      <point x="418" y="36" type="line"/>
      <point x="428" y="0" type="line"/>
      <point x="452" y="0" type="line"/>
      <point x="406" y="119" type="line"/>
    </contour>
    <contour>
      <point x="27" y="0" type="line"/>
      <point x="50" y="0" type="line"/>
      <point x="62" y="36" type="line"/>
      <point x="96" y="119" type="line"/>
      <point x="76" y="119" type="line"/>
    </contour>
    <contour>
      <point x="453" y="154" type="curve" smooth="yes"/>
      <point x="453" y="156"/>
      <point x="451" y="158"/>
      <point x="449" y="158" type="curve"/>
      <point x="392" y="158" type="line"/>
      <point x="258" y="506" type="line"/>
      <point x="237" y="506" type="line"/>
      <point x="93" y="158" type="line"/>
      <point x="0" y="158" type="line"/>
      <point x="-2" y="158"/>
      <point x="-4" y="156"/>
      <point x="-4" y="154" type="curve" smooth="yes"/>
      <point x="-4" y="152"/>
      <point x="-2" y="150"/>
      <point x="0" y="150" type="curve"/>
      <point x="449" y="150" type="line"/>
      <point x="451" y="150"/>
      <point x="453" y="152"/>
    </contour>
    <contour>
      <point x="245" y="475" type="line"/>
      <point x="248" y="475" type="line"/>
      <point x="372" y="158" type="line"/>
      <point x="113" y="158" type="line"/>
    </contour>
    <contour>
      <point x="161" y="587" type="curve" smooth="yes"/>
      <point x="161" y="599"/>
      <point x="169" y="607"/>
      <point x="181" y="607" type="curve" smooth="yes"/>
      <point x="193" y="607"/>
      <point x="201" y="599"/>
      <point x="201" y="587" type="curve" smooth="yes"/>
      <point x="201" y="575"/>
      <point x="193" y="567"/>
      <point x="181" y="567" type="curve" smooth="yes"/>
      <point x="169" y="567"/>
      <point x="161" y="575"/>
    </contour>
    <contour>
      <point x="301" y="587" type="curve" smooth="yes"/>
      <point x="301" y="599"/>
      <point x="309" y="607"/>
      <point x="321" y="607" type="curve" smooth="yes"/>
      <point x="333" y="607"/>
      <point x="341" y="599"/>
      <point x="341" y="587" type="curve" smooth="yes"/>
      <point x="341" y="575"/>
      <point x="333" y="567"/>
      <point x="321" y="567" type="curve" smooth="yes"/>
      <point x="309" y="567"/>
      <point x="301" y="575"/>
    </contour>
  </outline>
</glyph>
<glyph name="adieresis.1.3" format="1">
  <advance width="494"/>
  <outline>
    <contour>
      <point x="241" y="506" type="line"/>
      <point x="148" y="276" type="line"/>
      <point x="-2" y="157" type="line"/>
      <point x="-4" y="156"/>
      <point x="-4" y="153"/>
      <point x="-3" y="152" type="curve" smooth="yes"/>
      <point x="-2" y="150"/>
      <point x="-1" y="150"/>
      <point x="0" y="150" type="curve" smooth="yes"/>
      <point x="1" y="150"/>
      <point x="2" y="150"/>
      <point x="3" y="151" type="curve"/>
      <point x="269" y="362" type="line"/>
      <point x="265" y="370" type="line"/>
      <point x="178" y="301" type="line"/>
      <point x="249" y="475" type="line"/>
      <point x="252" y="475" type="line"/>
      <point x="372" y="161" type="line"/>
      <point x="121" y="161" type="line"/>
      <point x="148" y="227" type="line"/>
      <point x="117" y="203" type="line"/>
      <point x="100" y="161" type="line"/>
      <point x="100" y="161" type="line"/>
      <point x="100" y="161" type="line"/>
      <point x="34" y="0" type="line"/>
      <point x="57" y="0" type="line"/>
      <point x="69" y="36" type="line"/>
      <point x="113" y="141" type="line"/>
      <point x="379" y="141" type="line"/>
      <point x="419" y="36" type="line"/>
      <point x="429" y="0" type="line"/>
      <point x="452" y="0" type="line"/>
      <point x="262" y="506" type="line"/>
    </contour>
    <contour>
      <point x="498" y="549" type="curve" smooth="yes"/>
      <point x="496" y="551"/>
      <point x="494" y="552"/>
      <point x="492" y="550" type="curve"/>
      <point x="323" y="416" type="line"/>
      <point x="326" y="408" type="line"/>
      <point x="497" y="544" type="line"/>
      <point x="499" y="545"/>
      <point x="499" y="548"/>
    </contour>
    <contour>
      <point x="161" y="587" type="curve" smooth="yes"/>
      <point x="161" y="599"/>
      <point x="169" y="607"/>
      <point x="181" y="607" type="curve" smooth="yes"/>
      <point x="193" y="607"/>
      <point x="201" y="599"/>
      <point x="201" y="587" type="curve" smooth="yes"/>
      <point x="201" y="575"/>
      <point x="193" y="567"/>
      <point x="181" y="567" type="curve" smooth="yes"/>
      <point x="169" y="567"/>
      <point x="161" y="575"/>
    </contour>
    <contour>
      <point x="301" y="587" type="curve" smooth="yes"/>
      <point x="301" y="599"/>
      <point x="309" y="607"/>
      <point x="321" y="607" type="curve" smooth="yes"/>
      <point x="333" y="607"/>
      <point x="341" y="599"/>
      <point x="341" y="587" type="curve" smooth="yes"/>
      <point x="341" y="575"/>
      <point x="333" y="567"/>
      <point x="321" y="567" type="curve" smooth="yes"/>
      <point x="309" y="567"/>
      <point x="301" y="575"/>
    </contour>
  </outline>
</glyph>
<glyph name="adieresis.2" format="1">
  <advance width="494"/>
  <outline>
    <contour>
      <point x="498" y="353" type="curve" smooth="yes"/>
      <point x="496" y="355"/>
      <point x="494" y="355"/>
      <point x="492" y="354" type="curve"/>
      <point x="359" y="248" type="line"/>
      <point x="359" y="248" type="line"/>
      <point x="359" y="248" type="line"/>
      <point x="262" y="506" type="line"/>
      <point x="241" y="506" type="line"/>
      <point x="39" y="-6" type="line"/>
      <point x="-2" y="-39" type="line"/>
      <point x="-4" y="-40"/>
      <point x="-4" y="-43"/>
      <point x="-3" y="-45" type="curve" smooth="yes"/>
      <point x="-2" y="-46"/>
      <point x="-1" y="-46"/>
      <point x="0" y="-46" type="curve" smooth="yes"/>
      <point x="1" y="-46"/>
      <point x="2" y="-46"/>
      <point x="3" y="-45" type="curve"/>
      <point x="206" y="116" type="line"/>
      <point x="193" y="116" type="line"/>
      <point x="70" y="19" type="line"/>
      <point x="76" y="36" type="line"/>
      <point x="117" y="141" type="line"/>
      <point x="379" y="141" type="line"/>
      <point x="419" y="36" type="line"/>
      <point x="429" y="0" type="line"/>
      <point x="452" y="0" type="line"/>
      <point x="397" y="148" type="line"/>
      <point x="373" y="210" type="line"/>
      <point x="358" y="198" type="line"/>
      <point x="372" y="161" type="line"/>
      <point x="125" y="161" type="line"/>
      <point x="249" y="475" type="line"/>
      <point x="252" y="475" type="line"/>
      <point x="343" y="236" type="line"/>
      <point x="343" y="236" type="line"/>
      <point x="343" y="236" type="line"/>
      <point x="280" y="186" type="line"/>
      <point x="294" y="186" type="line"/>
      <point x="497" y="347" type="line"/>
      <point x="499" y="349"/>
      <point x="499" y="352"/>
    </contour>
    <contour>
      <point x="161" y="587" type="curve" smooth="yes"/>
      <point x="161" y="599"/>
      <point x="169" y="607"/>
      <point x="181" y="607" type="curve" smooth="yes"/>
      <point x="193" y="607"/>
      <point x="201" y="599"/>
      <point x="201" y="587" type="curve" smooth="yes"/>
      <point x="201" y="575"/>
      <point x="193" y="567"/>
      <point x="181" y="567" type="curve" smooth="yes"/>
      <point x="169" y="567"/>
      <point x="161" y="575"/>
    </contour>
    <contour>
      <point x="301" y="587" type="curve" smooth="yes"/>
      <point x="301" y="599"/>
      <point x="309" y="607"/>
      <point x="321" y="607" type="curve" smooth="yes"/>
      <point x="333" y="607"/>
      <point x="341" y="599"/>
      <point x="341" y="587" type="curve" smooth="yes"/>
      <point x="341" y="575"/>
      <point x="333" y="567"/>
      <point x="321" y="567" type="curve" smooth="yes"/>
      <point x="309" y="567"/>
      <point x="301" y="575"/>
    </contour>
  </outline>
</glyph>
<glyph name="adieresis.2.0" format="1">
  <advance width="494"/>
  <outline>
    <contour>
      <point x="497" y="-40" type="curve"/>
      <point x="455" y="-7" type="line"/>
      <point x="262" y="504" type="line"/>
      <point x="241" y="504" type="line"/>
      <point x="136" y="247" type="line"/>
      <point x="3" y="353" type="line"/>
      <point x="1" y="354"/>
      <point x="-2" y="354"/>
      <point x="-3" y="352" type="curve" smooth="yes"/>
      <point x="-5" y="350"/>
      <point x="-4" y="347"/>
      <point x="-2" y="346" type="curve"/>
      <point x="132" y="239" type="line"/>
      <point x="34" y="0" type="line"/>
      <point x="57" y="0" type="line"/>
      <point x="69" y="36" type="line"/>
      <point x="113" y="141" type="line"/>
      <point x="198" y="141" type="line"/>
      <point x="174" y="161" type="line"/>
      <point x="121" y="161" type="line"/>
      <point x="148" y="227" type="line"/>
      <point x="492" y="-47" type="line"/>
      <point x="492" y="-48"/>
      <point x="493" y="-48"/>
      <point x="494" y="-48" type="curve" smooth="yes"/>
      <point x="496" y="-48"/>
      <point x="497" y="-47"/>
      <point x="498" y="-46" type="curve" smooth="yes"/>
      <point x="499" y="-44"/>
      <point x="499" y="-42"/>
    </contour>
    <contour>
      <point x="419" y="36" type="line"/>
      <point x="424" y="18" type="line"/>
      <point x="269" y="141" type="line"/>
      <point x="379" y="141" type="line"/>
    </contour>
    <contour>
      <point x="249" y="473" type="line"/>
      <point x="252" y="473" type="line"/>
      <point x="372" y="161" type="line"/>
      <point x="244" y="161" type="line"/>
      <point x="151" y="235" type="line"/>
    </contour>
    <contour>
      <point x="161" y="587" type="curve" smooth="yes"/>
      <point x="161" y="599"/>
      <point x="169" y="607"/>
      <point x="181" y="607" type="curve" smooth="yes"/>
      <point x="193" y="607"/>
      <point x="201" y="599"/>
      <point x="201" y="587" type="curve" smooth="yes"/>
      <point x="201" y="575"/>
      <point x="193" y="567"/>
      <point x="181" y="567" type="curve" smooth="yes"/>
      <point x="169" y="567"/>
      <point x="161" y="575"/>
    </contour>
    <contour>
      <point x="301" y="587" type="curve" smooth="yes"/>
      <point x="301" y="599"/>
      <point x="309" y="607"/>
      <point x="321" y="607" type="curve" smooth="yes"/>
      <point x="333" y="607"/>
      <point x="341" y="599"/>
      <point x="341" y="587" type="curve" smooth="yes"/>
      <point x="341" y="575"/>
      <point x="333" y="567"/>
      <point x="321" y="567" type="curve" smooth="yes"/>
      <point x="309" y="567"/>
      <point x="301" y="575"/>
    </contour>
  </outline>
</glyph>
<glyph name="adieresis.2.0.kern" format="1">
  <advance width="449"/>
  <outline>
    <contour>
      <point x="246" y="141" type="line"/>
      <point x="377" y="141" type="line"/>
      <point x="418" y="36" type="line"/>
      <point x="428" y="0" type="line"/>
      <point x="452" y="0" type="line"/>
      <point x="259" y="506" type="line"/>
      <point x="237" y="506" type="line"/>
      <point x="27" y="0" type="line"/>
      <point x="50" y="0" type="line"/>
      <point x="62" y="36" type="line"/>
      <point x="106" y="141" type="line"/>
      <point x="192" y="141" type="line"/>
      <point x="166" y="161" type="line"/>
      <point x="115" y="161" type="line"/>
      <point x="245" y="475" type="line"/>
      <point x="248" y="475" type="line"/>
      <point x="370" y="161" type="line"/>
      <point x="223" y="161" type="line"/>
      <point x="167" y="210" type="line"/>
      <point x="163" y="202" type="line"/>
      <point x="182" y="186" type="line"/>
      <point x="182" y="186"/>
      <point x="182" y="186"/>
      <point x="182" y="186" type="curve"/>
      <point x="446" y="-46" type="line"/>
      <point x="447" y="-46"/>
      <point x="448" y="-47"/>
      <point x="449" y="-47" type="curve" smooth="yes"/>
      <point x="450" y="-47"/>
      <point x="451" y="-46"/>
      <point x="452" y="-45" type="curve" smooth="yes"/>
      <point x="454" y="-43"/>
      <point x="453" y="-41"/>
      <point x="452" y="-39" type="curve"/>
    </contour>
    <contour>
      <point x="112" y="258" type="line"/>
      <point x="3" y="354" type="line"/>
      <point x="1" y="355"/>
      <point x="-2" y="355"/>
      <point x="-3" y="353" type="curve" smooth="yes"/>
      <point x="-5" y="352"/>
      <point x="-5" y="349"/>
      <point x="-3" y="347" type="curve"/>
      <point x="109" y="250" type="line"/>
    </contour>
    <contour>
      <point x="161" y="587" type="curve" smooth="yes"/>
      <point x="161" y="599"/>
      <point x="169" y="607"/>
      <point x="181" y="607" type="curve" smooth="yes"/>
      <point x="193" y="607"/>
      <point x="201" y="599"/>
      <point x="201" y="587" type="curve" smooth="yes"/>
      <point x="201" y="575"/>
      <point x="193" y="567"/>
      <point x="181" y="567" type="curve" smooth="yes"/>
      <point x="169" y="567"/>
      <point x="161" y="575"/>
    </contour>
    <contour>
      <point x="301" y="587" type="curve" smooth="yes"/>
      <point x="301" y="599"/>
      <point x="309" y="607"/>
      <point x="321" y="607" type="curve" smooth="yes"/>
      <point x="333" y="607"/>
      <point x="341" y="599"/>
      <point x="341" y="587" type="curve" smooth="yes"/>
      <point x="341" y="575"/>
      <point x="333" y="567"/>
      <point x="321" y="567" type="curve" smooth="yes"/>
      <point x="309" y="567"/>
      <point x="301" y="575"/>
    </contour>
  </outline>
</glyph>
<glyph name="adieresis.3.0" format="1">
  <advance width="494"/>
  <outline>
    <contour>
      <point x="498" y="-41" type="curve"/>
      <point x="467" y="-5" type="line"/>
      <point x="262" y="506" type="line"/>
      <point x="241" y="506" type="line"/>
      <point x="34" y="0" type="line"/>
      <point x="57" y="0" type="line"/>
      <point x="69" y="36" type="line"/>
      <point x="113" y="141" type="line"/>
      <point x="293" y="141" type="line"/>
      <point x="277" y="161" type="line"/>
      <point x="121" y="161" type="line"/>
      <point x="249" y="475" type="line"/>
      <point x="252" y="475" type="line"/>
      <point x="381" y="161" type="line"/>
      <point x="328" y="161" type="line"/>
      <point x="207" y="306" type="line"/>
      <point x="203" y="296" type="line"/>
      <point x="491" y="-47" type="line"/>
      <point x="492" y="-48"/>
      <point x="493" y="-48"/>
      <point x="494" y="-48" type="curve" smooth="yes"/>
      <point x="495" y="-48"/>
      <point x="496" y="-48"/>
      <point x="497" y="-47" type="curve" smooth="yes"/>
      <point x="499" y="-46"/>
      <point x="499" y="-43"/>
    </contour>
    <contour>
      <point x="389" y="141" type="line"/>
      <point x="422" y="59" type="line"/>
      <point x="432" y="38" type="line"/>
      <point x="345" y="141" type="line"/>
    </contour>
    <contour>
      <point x="157" y="365" type="line"/>
      <point x="4" y="548" type="line"/>
      <point x="2" y="550"/>
      <point x="-1" y="550"/>
      <point x="-2" y="549" type="curve" smooth="yes"/>
      <point x="-4" y="547"/>
      <point x="-4" y="544"/>
      <point x="-3" y="542" type="curve"/>
      <point x="153" y="356" type="line"/>
    </contour>
    <contour>
      <point x="161" y="587" type="curve" smooth="yes"/>
      <point x="161" y="599"/>
      <point x="169" y="607"/>
      <point x="181" y="607" type="curve" smooth="yes"/>
      <point x="193" y="607"/>
      <point x="201" y="599"/>
      <point x="201" y="587" type="curve" smooth="yes"/>
      <point x="201" y="575"/>
      <point x="193" y="567"/>
      <point x="181" y="567" type="curve" smooth="yes"/>
      <point x="169" y="567"/>
      <point x="161" y="575"/>
    </contour>
    <contour>
      <point x="301" y="587" type="curve" smooth="yes"/>
      <point x="301" y="599"/>
      <point x="309" y="607"/>
      <point x="321" y="607" type="curve" smooth="yes"/>
      <point x="333" y="607"/>
      <point x="341" y="599"/>
      <point x="341" y="587" type="curve" smooth="yes"/>
      <point x="341" y="575"/>
      <point x="333" y="567"/>
      <point x="321" y="567" type="curve" smooth="yes"/>
      <point x="309" y="567"/>
      <point x="301" y="575"/>
    </contour>
  </outline>
</glyph>
<glyph name="adieresis.3.kern" format="1">
  <advance width="449"/>
  <outline>
    <contour>
      <point x="181" y="188" type="line"/>
      <point x="452" y="544" type="line"/>
      <point x="453" y="546"/>
      <point x="453" y="549"/>
      <point x="451" y="550" type="curve" smooth="yes"/>
      <point x="449" y="552"/>
      <point x="447" y="551"/>
      <point x="445" y="549" type="curve"/>
      <point x="310" y="371" type="line"/>
      <point x="259" y="506" type="line"/>
      <point x="237" y="506" type="line"/>
      <point x="57" y="59" type="line"/>
      <point x="39" y="16" type="line"/>
      <point x="-3" y="-40" type="line"/>
      <point x="-5" y="-42"/>
      <point x="-4" y="-44"/>
      <point x="-3" y="-46" type="curve" smooth="yes"/>
      <point x="-2" y="-46"/>
      <point x="-1" y="-46"/>
      <point x="0" y="-46" type="curve" smooth="yes"/>
      <point x="1" y="-46"/>
      <point x="2" y="-46"/>
      <point x="3" y="-45" type="curve"/>
      <point x="128" y="119" type="line"/>
      <point x="117" y="119" type="line"/>
      <point x="81" y="71" type="line"/>
      <point x="82" y="73" type="line"/>
      <point x="109" y="141" type="line"/>
      <point x="377" y="141" type="line"/>
      <point x="418" y="36" type="line"/>
      <point x="428" y="0" type="line"/>
      <point x="452" y="0" type="line"/>
      <point x="327" y="326" type="line"/>
      <point x="313" y="308" type="line"/>
      <point x="370" y="161" type="line"/>
      <point x="115" y="161" type="line"/>
      <point x="245" y="475" type="line"/>
      <point x="248" y="475" type="line"/>
      <point x="296" y="353" type="line"/>
      <point x="170" y="188" type="line"/>
    </contour>
    <contour>
      <point x="161" y="587" type="curve" smooth="yes"/>
      <point x="161" y="599"/>
      <point x="169" y="607"/>
      <point x="181" y="607" type="curve" smooth="yes"/>
      <point x="193" y="607"/>
      <point x="201" y="599"/>
      <point x="201" y="587" type="curve" smooth="yes"/>
      <point x="201" y="575"/>
      <point x="193" y="567"/>
      <point x="181" y="567" type="curve" smooth="yes"/>
      <point x="169" y="567"/>
      <point x="161" y="575"/>
    </contour>
    <contour>
      <point x="301" y="587" type="curve" smooth="yes"/>
      <point x="301" y="599"/>
      <point x="309" y="607"/>
      <point x="321" y="607" type="curve" smooth="yes"/>
      <point x="333" y="607"/>
      <point x="341" y="599"/>
      <point x="341" y="587" type="curve" smooth="yes"/>
      <point x="341" y="575"/>
      <point x="333" y="567"/>
      <point x="321" y="567" type="curve" smooth="yes"/>
      <point x="309" y="567"/>
      <point x="301" y="575"/>
    </contour>
  </outline>
</glyph>
<glyph name="ae.0" format="1">
  <advance width="688"/>
  <outline>
    <contour>
      <point x="688" y="-38" type="curve"/>
      <point x="0" y="-38" type="line"/>
      <point x="-2" y="-38"/>
      <point x="-4" y="-40"/>
      <point x="-4" y="-42" type="curve" smooth="yes"/>
      <point x="-4" y="-44"/>
      <point x="-2" y="-46"/>
      <point x="0" y="-46" type="curve"/>
      <point x="688" y="-46" type="line"/>
      <point x="690" y="-46"/>
      <point x="692" y="-44"/>
      <point x="692" y="-42" type="curve" smooth="yes"/>
      <point x="692" y="-40"/>
      <point x="690" y="-38"/>
    </contour>
    <contour>
      <point x="65" y="36" type="line"/>
      <point x="157" y="192" type="line"/>
      <point x="356" y="228" type="line"/>
      <point x="389" y="36" type="line"/>
      <point x="394" y="0" type="line"/>
      <point x="646" y="0" type="line"/>
      <point x="649" y="16" type="line"/>
      <point x="647" y="20" type="line"/>
      <point x="412" y="20" type="line"/>
      <point x="376" y="232" type="line"/>
      <point x="566" y="262" type="line"/>
      <point x="568" y="279" type="line"/>
      <point x="565" y="281" type="line"/>
      <point x="373" y="250" type="line"/>
      <point x="333" y="486" type="line"/>
      <point x="557" y="485" type="line"/>
      <point x="561" y="502" type="line"/>
      <point x="558" y="506" type="line"/>
      <point x="307" y="506" type="line"/>
      <point x="22" y="0" type="line"/>
      <point x="48" y="0" type="line"/>
    </contour>
    <contour>
      <point x="310" y="474" type="line"/>
      <point x="313" y="474" type="line"/>
      <point x="352" y="247" type="line"/>
      <point x="171" y="214" type="line"/>
    </contour>
  </outline>
</glyph>
<glyph name="ae.1.0" format="1">
  <advance width="688"/>
  <outline>
    <contour>
      <point x="689" y="-38" type="curve"/>
      <point x="408" y="42" type="line"/>
      <point x="376" y="232" type="line"/>
      <point x="566" y="262" type="line"/>
      <point x="568" y="279" type="line"/>
      <point x="565" y="281" type="line"/>
      <point x="373" y="250" type="line"/>
      <point x="333" y="486" type="line"/>
      <point x="557" y="485" type="line"/>
      <point x="561" y="502" type="line"/>
      <point x="558" y="506" type="line"/>
      <point x="307" y="506" type="line"/>
      <point x="22" y="0" type="line"/>
      <point x="48" y="0" type="line"/>
      <point x="64" y="36" type="line"/>
      <point x="151" y="192" type="line"/>
      <point x="356" y="228" type="line"/>
      <point x="387" y="48" type="line"/>
      <point x="139" y="119" type="line"/>
      <point x="135" y="111" type="line"/>
      <point x="687" y="-46" type="line"/>
      <point x="687" y="-46"/>
      <point x="688" y="-46"/>
      <point x="688" y="-46" type="curve" smooth="yes"/>
      <point x="690" y="-46"/>
      <point x="692" y="-45"/>
      <point x="692" y="-43" type="curve" smooth="yes"/>
      <point x="693" y="-41"/>
      <point x="692" y="-39"/>
    </contour>
    <contour>
      <point x="165" y="214" type="line"/>
      <point x="310" y="474" type="line"/>
      <point x="313" y="474" type="line"/>
      <point x="352" y="247" type="line"/>
    </contour>
    <contour>
      <point x="71" y="138" type="line"/>
      <point x="1" y="158" type="line"/>
      <point x="-1" y="159"/>
      <point x="-3" y="158"/>
      <point x="-4" y="155" type="curve" smooth="yes"/>
      <point x="-4" y="153"/>
      <point x="-3" y="151"/>
      <point x="-1" y="150" type="curve"/>
      <point x="67" y="131" type="line"/>
    </contour>
  </outline>
</glyph>
<glyph name="ae.1.3" format="1">
  <advance width="688"/>
  <outline>
    <contour>
      <point x="692" y="549" type="curve" smooth="yes"/>
      <point x="691" y="551"/>
      <point x="688" y="552"/>
      <point x="686" y="551" type="curve"/>
      <point x="608" y="506" type="line"/>
      <point x="307" y="506" type="line"/>
      <point x="22" y="0" type="line"/>
      <point x="48" y="0" type="line"/>
      <point x="64" y="36" type="line"/>
      <point x="151" y="192" type="line"/>
      <point x="356" y="228" type="line"/>
      <point x="389" y="36" type="line"/>
      <point x="394" y="0" type="line"/>
      <point x="646" y="0" type="line"/>
      <point x="649" y="17" type="line"/>
      <point x="647" y="20" type="line"/>
      <point x="412" y="20" type="line"/>
      <point x="376" y="232" type="line"/>
      <point x="566" y="262" type="line"/>
      <point x="568" y="279" type="line"/>
      <point x="565" y="281" type="line"/>
      <point x="373" y="250" type="line"/>
      <point x="361" y="320" type="line"/>
      <point x="342" y="309" type="line"/>
      <point x="352" y="247" type="line"/>
      <point x="165" y="214" type="line"/>
      <point x="310" y="474" type="line"/>
      <point x="313" y="474" type="line"/>
      <point x="335" y="350" type="line"/>
      <point x="239" y="295" type="line"/>
      <point x="231" y="281" type="line"/>
      <point x="690" y="543" type="line"/>
      <point x="692" y="544"/>
      <point x="693" y="547"/>
    </contour>
    <contour>
      <point x="333" y="486" type="line"/>
      <point x="571" y="485" type="line"/>
      <point x="354" y="361" type="line"/>
    </contour>
    <contour>
      <point x="122" y="229" type="line"/>
      <point x="-2" y="158" type="line"/>
      <point x="-4" y="157"/>
      <point x="-5" y="154"/>
      <point x="-3" y="152" type="curve" smooth="yes"/>
      <point x="-3" y="151"/>
      <point x="-1" y="150"/>
      <point x="0" y="150" type="curve" smooth="yes"/>
      <point x="1" y="150"/>
      <point x="2" y="150"/>
      <point x="2" y="151" type="curve"/>
      <point x="114" y="214" type="line"/>
    </contour>
  </outline>
</glyph>
<glyph name="ae.2" format="1">
  <advance width="688"/>
  <outline>
    <contour>
      <point x="692" y="353" type="curve" smooth="yes"/>
      <point x="691" y="355"/>
      <point x="688" y="356"/>
      <point x="686" y="354" type="curve"/>
      <point x="555" y="279" type="line"/>
      <point x="374" y="250" type="line"/>
      <point x="334" y="486" type="line"/>
      <point x="558" y="485" type="line"/>
      <point x="562" y="502" type="line"/>
      <point x="559" y="506" type="line"/>
      <point x="308" y="506" type="line"/>
      <point x="27" y="-22" type="line"/>
      <point x="-2" y="-38" type="line"/>
      <point x="-4" y="-40"/>
      <point x="-5" y="-42"/>
      <point x="-3" y="-44" type="curve" smooth="yes"/>
      <point x="-3" y="-46"/>
      <point x="-1" y="-47"/>
      <point x="0" y="-47" type="curve" smooth="yes"/>
      <point x="1" y="-47"/>
      <point x="2" y="-46"/>
      <point x="3" y="-46" type="curve"/>
      <point x="345" y="150" type="line"/>
      <point x="344" y="159" type="line"/>
      <point x="60" y="-3" type="line"/>
      <point x="164" y="196" type="line"/>
      <point x="357" y="228" type="line"/>
      <point x="390" y="36" type="line"/>
      <point x="395" y="0" type="line"/>
      <point x="647" y="0" type="line"/>
      <point x="650" y="16" type="line"/>
      <point x="648" y="20" type="line"/>
      <point x="413" y="20" type="line"/>
      <point x="377" y="232" type="line"/>
      <point x="507" y="252" type="line"/>
      <point x="409" y="196" type="line"/>
      <point x="410" y="187" type="line"/>
      <point x="690" y="347" type="line"/>
      <point x="693" y="348"/>
      <point x="693" y="351"/>
    </contour>
    <contour>
      <point x="177" y="218" type="line"/>
      <point x="311" y="474" type="line"/>
      <point x="314" y="474" type="line"/>
      <point x="353" y="247" type="line"/>
    </contour>
  </outline>
</glyph>
<glyph name="ae.2.0" format="1">
  <advance width="688"/>
  <outline>
    <contour>
      <point x="690" y="-40" type="curve"/>
      <point x="423" y="113" type="line"/>
      <point x="424" y="102" type="line"/>
      <point x="686" y="-47" type="line"/>
      <point x="687" y="-48"/>
      <point x="688" y="-48"/>
      <point x="688" y="-48" type="curve" smooth="yes"/>
      <point x="690" y="-48"/>
      <point x="691" y="-47"/>
      <point x="692" y="-46" type="curve" smooth="yes"/>
      <point x="693" y="-44"/>
      <point x="693" y="-41"/>
    </contour>
    <contour>
      <point x="413" y="18" type="line"/>
      <point x="377" y="230" type="line"/>
      <point x="567" y="260" type="line"/>
      <point x="569" y="278" type="line"/>
      <point x="566" y="280" type="line"/>
      <point x="374" y="249" type="line"/>
      <point x="334" y="485" type="line"/>
      <point x="558" y="484" type="line"/>
      <point x="562" y="500" type="line"/>
      <point x="559" y="504" type="line"/>
      <point x="308" y="504" type="line"/>
      <point x="23" y="-1" type="line"/>
      <point x="49" y="-1" type="line"/>
      <point x="65" y="35" type="line"/>
      <point x="153" y="190" type="line"/>
      <point x="357" y="226" type="line"/>
      <point x="390" y="35" type="line"/>
      <point x="395" y="-1" type="line"/>
      <point x="545" y="-1" type="line"/>
      <point x="511" y="18" type="line"/>
    </contour>
    <contour>
      <point x="166" y="213" type="line"/>
      <point x="311" y="472" type="line"/>
      <point x="314" y="472" type="line"/>
      <point x="353" y="246" type="line"/>
    </contour>
    <contour>
      <point x="290" y="189" type="line"/>
      <point x="276" y="187" type="line"/>
      <point x="346" y="147" type="line"/>
      <point x="344" y="158" type="line"/>
    </contour>
    <contour>
      <point x="148" y="270" type="line"/>
      <point x="3" y="353" type="line"/>
      <point x="0" y="354"/>
      <point x="-2" y="354"/>
      <point x="-3" y="351" type="curve" smooth="yes"/>
      <point x="-5" y="349"/>
      <point x="-4" y="347"/>
      <point x="-2" y="346" type="curve"/>
      <point x="143" y="263" type="line"/>
    </contour>
  </outline>
</glyph>
<glyph name="ae.2.2" format="1">
  <advance width="688"/>
  <outline>
    <contour>
      <point x="688" y="355" type="curve"/>
      <point x="355" y="355" type="line"/>
      <point x="333" y="486" type="line"/>
      <point x="557" y="485" type="line"/>
      <point x="561" y="502" type="line"/>
      <point x="558" y="506" type="line"/>
      <point x="307" y="506" type="line"/>
      <point x="22" y="0" type="line"/>
      <point x="48" y="0" type="line"/>
      <point x="64" y="36" type="line"/>
      <point x="151" y="192" type="line"/>
      <point x="356" y="228" type="line"/>
      <point x="389" y="36" type="line"/>
      <point x="394" y="0" type="line"/>
      <point x="646" y="0" type="line"/>
      <point x="649" y="17" type="line"/>
      <point x="647" y="20" type="line"/>
      <point x="412" y="20" type="line"/>
      <point x="376" y="232" type="line"/>
      <point x="566" y="262" type="line"/>
      <point x="568" y="279" type="line"/>
      <point x="565" y="281" type="line"/>
      <point x="373" y="250" type="line"/>
      <point x="362" y="316" type="line"/>
      <point x="340" y="316" type="line"/>
      <point x="352" y="247" type="line"/>
      <point x="164" y="214" type="line"/>
      <point x="310" y="474" type="line"/>
      <point x="313" y="474" type="line"/>
      <point x="334" y="355" type="line"/>
      <point x="272" y="355" type="line"/>
      <point x="267" y="347" type="line"/>
      <point x="688" y="347" type="line"/>
      <point x="690" y="347"/>
      <point x="692" y="348"/>
      <point x="692" y="351" type="curve" smooth="yes"/>
      <point x="692" y="353"/>
      <point x="690" y="355"/>
    </contour>
    <contour>
      <point x="193" y="355" type="line"/>
      <point x="0" y="355" type="line"/>
      <point x="-2" y="355"/>
      <point x="-4" y="353"/>
      <point x="-4" y="351" type="curve" smooth="yes"/>
      <point x="-4" y="348"/>
      <point x="-2" y="347"/>
      <point x="0" y="347" type="curve"/>
      <point x="189" y="347" type="line"/>
    </contour>
  </outline>
</glyph>
<glyph name="ae.3.2" format="1">
  <advance width="688"/>
  <outline>
    <contour>
      <point x="412" y="20" type="line"/>
      <point x="376" y="232" type="line"/>
      <point x="566" y="262" type="line"/>
      <point x="568" y="279" type="line"/>
      <point x="565" y="281" type="line"/>
      <point x="373" y="250" type="line"/>
      <point x="333" y="486" type="line"/>
      <point x="557" y="485" type="line"/>
      <point x="561" y="502" type="line"/>
      <point x="558" y="506" type="line"/>
      <point x="307" y="506" type="line"/>
      <point x="22" y="0" type="line"/>
      <point x="48" y="0" type="line"/>
      <point x="64" y="36" type="line"/>
      <point x="151" y="192" type="line"/>
      <point x="356" y="228" type="line"/>
      <point x="389" y="36" type="line"/>
      <point x="394" y="0" type="line"/>
      <point x="646" y="0" type="line"/>
      <point x="649" y="17" type="line"/>
      <point x="647" y="20" type="line"/>
    </contour>
    <contour>
      <point x="165" y="214" type="line"/>
      <point x="310" y="474" type="line"/>
      <point x="313" y="474" type="line"/>
      <point x="352" y="247" type="line"/>
    </contour>
    <contour>
      <point x="689" y="355" type="curve"/>
      <point x="365" y="447" type="line"/>
      <point x="367" y="438" type="line"/>
      <point x="687" y="347" type="line"/>
      <point x="687" y="347"/>
      <point x="688" y="346"/>
      <point x="688" y="346" type="curve" smooth="yes"/>
      <point x="690" y="346"/>
      <point x="692" y="348"/>
      <point x="692" y="350" type="curve" smooth="yes"/>
      <point x="693" y="352"/>
      <point x="692" y="354"/>
    </contour>
    <contour>
      <point x="262" y="477" type="line"/>
      <point x="1" y="551" type="line"/>
      <point x="-1" y="552"/>
      <point x="-3" y="550"/>
      <point x="-4" y="548" type="curve" smooth="yes"/>
      <point x="-4" y="546"/>
      <point x="-3" y="544"/>
      <point x="-1" y="543" type="curve"/>
      <point x="258" y="469" type="line"/>
    </contour>
  </outline>
</glyph>
<glyph name="ae.3.3" format="1">
  <advance width="688"/>
  <outline>
    <contour>
      <point x="688" y="551" type="curve"/>
      <point x="0" y="551" type="line"/>
      <point x="-2" y="551"/>
      <point x="-4" y="549"/>
      <point x="-4" y="547" type="curve" smooth="yes"/>
      <point x="-4" y="545"/>
      <point x="-2" y="543"/>
      <point x="0" y="543" type="curve"/>
      <point x="688" y="543" type="line"/>
      <point x="690" y="543"/>
      <point x="692" y="545"/>
      <point x="692" y="547" type="curve" smooth="yes"/>
      <point x="692" y="549"/>
      <point x="690" y="551"/>
    </contour>
    <contour>
      <point x="412" y="20" type="line"/>
      <point x="376" y="232" type="line"/>
      <point x="566" y="262" type="line"/>
      <point x="568" y="279" type="line"/>
      <point x="565" y="281" type="line"/>
      <point x="373" y="250" type="line"/>
      <point x="333" y="486" type="line"/>
      <point x="557" y="485" type="line"/>
      <point x="561" y="502" type="line"/>
      <point x="558" y="506" type="line"/>
      <point x="307" y="506" type="line"/>
      <point x="22" y="0" type="line"/>
      <point x="48" y="0" type="line"/>
      <point x="64" y="36" type="line"/>
      <point x="151" y="192" type="line"/>
      <point x="356" y="228" type="line"/>
      <point x="389" y="36" type="line"/>
      <point x="394" y="0" type="line"/>
      <point x="646" y="0" type="line"/>
      <point x="649" y="17" type="line"/>
      <point x="647" y="20" type="line"/>
    </contour>
    <contour>
      <point x="164" y="214" type="line"/>
      <point x="310" y="474" type="line"/>
      <point x="313" y="474" type="line"/>
      <point x="352" y="247" type="line"/>
    </contour>
  </outline>
</glyph>
<glyph name="agrave.0" format="1">
  <advance width="494"/>
  <outline>
    <contour>
      <point x="494" y="-38" type="curve"/>
      <point x="0" y="-38" type="line"/>
      <point x="-2" y="-38"/>
      <point x="-4" y="-40"/>
      <point x="-4" y="-42" type="curve" smooth="yes"/>
      <point x="-4" y="-44"/>
      <point x="-2" y="-46"/>
      <point x="0" y="-46" type="curve"/>
      <point x="494" y="-46" type="line"/>
      <point x="496" y="-46"/>
      <point x="498" y="-44"/>
      <point x="498" y="-42" type="curve" smooth="yes"/>
      <point x="498" y="-40"/>
      <point x="496" y="-38"/>
    </contour>
    <contour>
      <point x="69" y="36" type="line"/>
      <point x="112" y="141" type="line"/>
      <point x="379" y="141" type="line"/>
      <point x="419" y="36" type="line"/>
      <point x="429" y="0" type="line"/>
      <point x="452" y="0" type="line"/>
      <point x="396" y="148" type="line"/>
      <point x="262" y="506" type="line"/>
      <point x="241" y="506" type="line"/>
      <point x="34" y="0" type="line"/>
      <point x="57" y="0" type="line"/>
    </contour>
    <contour>
      <point x="249" y="475" type="line"/>
      <point x="252" y="475" type="line"/>
      <point x="371" y="161" type="line"/>
      <point x="120" y="161" type="line"/>
    </contour>
    <contour>
      <point x="319" y="538" type="line" smooth="yes"/>
      <point x="273" y="561"/>
      <point x="235" y="580"/>
      <point x="190" y="607" type="curve" smooth="yes"/>
      <point x="187" y="612" type="line"/>
      <point x="194" y="623" type="line"/>
      <point x="199" y="624" type="line"/>
      <point x="251" y="594"/>
      <point x="289" y="574"/>
      <point x="331" y="553" type="curve" smooth="yes"/>
      <point x="324" y="540" type="line"/>
    </contour>
  </outline>
</glyph>
<glyph name="agrave.1.2" format="1">
  <advance width="494"/>
  <outline>
    <contour>
      <point x="100" y="161" type="line"/>
      <point x="100" y="161" type="line"/>
      <point x="100" y="161" type="line"/>
    </contour>
    <contour>
      <point x="100" y="161" type="line"/>
      <point x="100" y="161" type="line"/>
      <point x="100" y="161" type="line"/>
    </contour>
    <contour>
      <point x="241" y="506" type="line"/>
      <point x="119" y="206" type="line"/>
      <point x="-1" y="158" type="line"/>
      <point x="-3" y="157"/>
      <point x="-4" y="155"/>
      <point x="-3" y="153" type="curve" smooth="yes"/>
      <point x="-3" y="151"/>
      <point x="-1" y="150"/>
      <point x="0" y="150" type="curve" smooth="yes"/>
      <point x="1" y="150"/>
      <point x="1" y="150"/>
      <point x="2" y="150" type="curve"/>
      <point x="304" y="270" type="line"/>
      <point x="301" y="278" type="line"/>
      <point x="143" y="215" type="line"/>
      <point x="249" y="475" type="line"/>
      <point x="252" y="475" type="line"/>
      <point x="372" y="161" type="line"/>
      <point x="100" y="161" type="line"/>
      <point x="35" y="2" type="line"/>
      <point x="35" y="0" type="line"/>
      <point x="57" y="0" type="line"/>
      <point x="69" y="36" type="line"/>
      <point x="113" y="141" type="line"/>
      <point x="379" y="141" type="line"/>
      <point x="419" y="36" type="line"/>
      <point x="429" y="0" type="line"/>
      <point x="452" y="0" type="line"/>
      <point x="262" y="506" type="line"/>
    </contour>
    <contour>
      <point x="498" y="352" type="curve" smooth="yes"/>
      <point x="497" y="354"/>
      <point x="495" y="355"/>
      <point x="493" y="354" type="curve"/>
      <point x="365" y="304" type="line"/>
      <point x="368" y="296" type="line"/>
      <point x="496" y="347" type="line"/>
      <point x="498" y="347"/>
      <point x="499" y="350"/>
    </contour>
    <contour>
      <point x="319" y="538" type="line"/>
      <point x="273" y="561"/>
      <point x="235" y="580"/>
      <point x="190" y="607" type="curve"/>
      <point x="187" y="612" type="line"/>
      <point x="194" y="623" type="line"/>
      <point x="199" y="624" type="line"/>
      <point x="251" y="594"/>
      <point x="289" y="574"/>
      <point x="331" y="553" type="curve"/>
      <point x="324" y="540" type="line"/>
    </contour>
  </outline>
</glyph>
<glyph name="agrave.2.3" format="1">
  <advance width="494"/>
  <outline>
    <contour>
      <point x="498" y="548" type="curve" smooth="yes"/>
      <point x="497" y="551"/>
      <point x="495" y="552"/>
      <point x="493" y="551" type="curve"/>
      <point x="301" y="474" type="line"/>
      <point x="304" y="467" type="line"/>
      <point x="496" y="543" type="line"/>
      <point x="498" y="544"/>
      <point x="499" y="546"/>
    </contour>
    <contour>
      <point x="182" y="427" type="line"/>
      <point x="-1" y="354" type="line"/>
      <point x="-3" y="354"/>
      <point x="-4" y="351"/>
      <point x="-3" y="349" type="curve" smooth="yes"/>
      <point x="-3" y="347"/>
      <point x="-1" y="346"/>
      <point x="0" y="346" type="curve" smooth="yes"/>
      <point x="1" y="346"/>
      <point x="1" y="346"/>
      <point x="2" y="347" type="curve"/>
      <point x="178" y="417" type="line"/>
    </contour>
    <contour>
      <point x="241" y="506" type="line"/>
      <point x="34" y="0" type="line"/>
      <point x="57" y="0" type="line"/>
      <point x="69" y="36" type="line"/>
      <point x="113" y="141" type="line"/>
      <point x="379" y="141" type="line"/>
      <point x="419" y="36" type="line"/>
      <point x="429" y="0" type="line"/>
      <point x="452" y="0" type="line"/>
      <point x="262" y="506" type="line"/>
    </contour>
    <contour>
      <point x="121" y="161" type="line"/>
      <point x="249" y="475" type="line"/>
      <point x="252" y="475" type="line"/>
      <point x="372" y="161" type="line"/>
    </contour>
    <contour>
      <point x="319" y="538" type="line"/>
      <point x="273" y="561"/>
      <point x="235" y="580"/>
      <point x="190" y="607" type="curve"/>
      <point x="187" y="612" type="line"/>
      <point x="194" y="623" type="line"/>
      <point x="199" y="624" type="line"/>
      <point x="251" y="594"/>
      <point x="289" y="574"/>
      <point x="331" y="553" type="curve"/>
      <point x="324" y="540" type="line"/>
    </contour>
  </outline>
</glyph>
<glyph name="agrave.2.3.kern" format="1">
  <advance width="449"/>
  <outline>
    <contour>
      <point x="0" y="346" type="curve" smooth="yes"/>
      <point x="0" y="346"/>
      <point x="1" y="346"/>
      <point x="1" y="347" type="curve"/>
      <point x="181" y="425" type="line"/>
      <point x="185" y="436" type="line"/>
      <point x="-2" y="354" type="line"/>
      <point x="-4" y="353"/>
      <point x="-5" y="351"/>
      <point x="-4" y="349" type="curve" smooth="yes"/>
      <point x="-3" y="347"/>
      <point x="-2" y="346"/>
    </contour>
    <contour>
      <point x="299" y="477" type="line"/>
      <point x="450" y="543" type="line"/>
      <point x="452" y="544"/>
      <point x="453" y="546"/>
      <point x="453" y="549" type="curve" smooth="yes"/>
      <point x="452" y="551"/>
      <point x="449" y="552"/>
      <point x="447" y="551" type="curve"/>
      <point x="296" y="485" type="line"/>
    </contour>
    <contour>
      <point x="62" y="36" type="line"/>
      <point x="106" y="141" type="line"/>
      <point x="377" y="141" type="line"/>
      <point x="418" y="36" type="line"/>
      <point x="428" y="0" type="line"/>
      <point x="452" y="0" type="line"/>
      <point x="395" y="148" type="line"/>
      <point x="259" y="506" type="line"/>
      <point x="237" y="506" type="line"/>
      <point x="27" y="0" type="line"/>
      <point x="48" y="0" type="line"/>
    </contour>
    <contour>
      <point x="245" y="475" type="line"/>
      <point x="248" y="475" type="line"/>
      <point x="370" y="161" type="line"/>
      <point x="115" y="161" type="line"/>
    </contour>
    <contour>
      <point x="319" y="538" type="line"/>
      <point x="273" y="561"/>
      <point x="235" y="580"/>
      <point x="190" y="607" type="curve"/>
      <point x="187" y="612" type="line"/>
      <point x="194" y="623" type="line"/>
      <point x="199" y="624" type="line"/>
      <point x="251" y="594"/>
      <point x="289" y="574"/>
      <point x="331" y="553" type="curve"/>
      <point x="324" y="540" type="line"/>
    </contour>
  </outline>
</glyph>
<glyph name="agrave.3.0" format="1">
  <advance width="494"/>
  <outline>
    <contour>
      <point x="498" y="-41" type="curve"/>
      <point x="467" y="-5" type="line"/>
      <point x="262" y="506" type="line"/>
      <point x="241" y="506" type="line"/>
      <point x="34" y="0" type="line"/>
      <point x="57" y="0" type="line"/>
      <point x="69" y="36" type="line"/>
      <point x="113" y="141" type="line"/>
      <point x="293" y="141" type="line"/>
      <point x="277" y="161" type="line"/>
      <point x="121" y="161" type="line"/>
      <point x="249" y="475" type="line"/>
      <point x="252" y="475" type="line"/>
      <point x="381" y="161" type="line"/>
      <point x="328" y="161" type="line"/>
      <point x="207" y="306" type="line"/>
      <point x="203" y="296" type="line"/>
      <point x="491" y="-47" type="line"/>
      <point x="492" y="-48"/>
      <point x="493" y="-48"/>
      <point x="494" y="-48" type="curve" smooth="yes"/>
      <point x="495" y="-48"/>
      <point x="496" y="-48"/>
      <point x="497" y="-47" type="curve" smooth="yes"/>
      <point x="499" y="-46"/>
      <point x="499" y="-43"/>
    </contour>
    <contour>
      <point x="389" y="141" type="line"/>
      <point x="422" y="59" type="line"/>
      <point x="432" y="38" type="line"/>
      <point x="345" y="141" type="line"/>
    </contour>
    <contour>
      <point x="157" y="365" type="line"/>
      <point x="4" y="548" type="line"/>
      <point x="2" y="550"/>
      <point x="-1" y="550"/>
      <point x="-2" y="549" type="curve" smooth="yes"/>
      <point x="-4" y="547"/>
      <point x="-4" y="544"/>
      <point x="-3" y="542" type="curve"/>
      <point x="153" y="356" type="line"/>
    </contour>
    <contour>
      <point x="319" y="538" type="line"/>
      <point x="273" y="561"/>
      <point x="235" y="580"/>
      <point x="190" y="607" type="curve"/>
      <point x="187" y="612" type="line"/>
      <point x="194" y="623" type="line"/>
      <point x="199" y="624" type="line"/>
      <point x="251" y="594"/>
      <point x="289" y="574"/>
      <point x="331" y="553" type="curve"/>
      <point x="324" y="540" type="line"/>
    </contour>
  </outline>
</glyph>
<glyph name="agrave.3.1.kern" format="1">
  <advance width="449"/>
  <outline>
    <contour>
      <point x="452" y="157" type="curve"/>
      <point x="363" y="233" type="line"/>
      <point x="259" y="506" type="line"/>
      <point x="237" y="506" type="line"/>
      <point x="27" y="0" type="line"/>
      <point x="50" y="0" type="line"/>
      <point x="62" y="36" type="line"/>
      <point x="106" y="141" type="line"/>
      <point x="377" y="141" type="line"/>
      <point x="419" y="36" type="line"/>
      <point x="429" y="0" type="line"/>
      <point x="452" y="0" type="line"/>
      <point x="390" y="161" type="line"/>
      <point x="115" y="161" type="line"/>
      <point x="245" y="475" type="line"/>
      <point x="248" y="475" type="line"/>
      <point x="331" y="261" type="line"/>
      <point x="226" y="354" type="line"/>
      <point x="223" y="346" type="line"/>
      <point x="446" y="151" type="line" smooth="yes"/>
      <point x="447" y="150"/>
      <point x="448" y="150"/>
      <point x="449" y="150" type="curve" smooth="yes"/>
      <point x="450" y="150"/>
      <point x="451" y="150"/>
      <point x="452" y="151" type="curve" smooth="yes"/>
      <point x="454" y="153"/>
      <point x="453" y="156"/>
    </contour>
    <contour>
      <point x="168" y="394" type="line"/>
      <point x="172" y="402" type="line"/>
      <point x="3" y="550" type="line" smooth="yes"/>
      <point x="1" y="552"/>
      <point x="-2" y="552"/>
      <point x="-3" y="550" type="curve" smooth="yes"/>
      <point x="-5" y="548"/>
      <point x="-5" y="545"/>
      <point x="-3" y="544" type="curve" smooth="yes"/>
    </contour>
    <contour>
      <point x="319" y="538" type="line"/>
      <point x="273" y="561"/>
      <point x="235" y="580"/>
      <point x="190" y="607" type="curve"/>
      <point x="187" y="612" type="line"/>
      <point x="194" y="623" type="line"/>
      <point x="199" y="624" type="line"/>
      <point x="251" y="594"/>
      <point x="289" y="574"/>
      <point x="331" y="553" type="curve"/>
      <point x="324" y="540" type="line"/>
    </contour>
  </outline>
</glyph>
<glyph name="agrave.3.3.kern" format="1">
  <advance width="449"/>
  <outline>
    <contour>
      <point x="62" y="36" type="line"/>
      <point x="106" y="141" type="line"/>
      <point x="377" y="141" type="line"/>
      <point x="418" y="36" type="line"/>
      <point x="428" y="0" type="line"/>
      <point x="452" y="0" type="line"/>
      <point x="395" y="148" type="line"/>
      <point x="259" y="506" type="line"/>
      <point x="237" y="506" type="line"/>
      <point x="27" y="0" type="line"/>
      <point x="48" y="0" type="line"/>
    </contour>
    <contour>
      <point x="245" y="475" type="line"/>
      <point x="248" y="475" type="line"/>
      <point x="370" y="161" type="line"/>
      <point x="115" y="161" type="line"/>
    </contour>
    <contour>
      <point x="449" y="551" type="curve"/>
      <point x="337" y="551" type="line"/>
      <point x="295" y="571"/>
      <point x="248" y="596"/>
      <point x="198" y="623" type="curve"/>
      <point x="193" y="621" type="line"/>
      <point x="187" y="610" type="line"/>
      <point x="190" y="606" type="line"/>
      <point x="230" y="585"/>
      <point x="258" y="570"/>
      <point x="300" y="551" type="curve"/>
      <point x="0" y="551" type="line" smooth="yes"/>
      <point x="-2" y="551"/>
      <point x="-4" y="549"/>
      <point x="-4" y="547" type="curve" smooth="yes"/>
      <point x="-4" y="545"/>
      <point x="-2" y="543"/>
      <point x="0" y="543" type="curve" smooth="yes"/>
      <point x="449" y="543" type="line" smooth="yes"/>
      <point x="451" y="543"/>
      <point x="453" y="545"/>
      <point x="453" y="547" type="curve" smooth="yes"/>
      <point x="453" y="549"/>
      <point x="451" y="551"/>
    </contour>
  </outline>
</glyph>
<glyph name="ampersand.1.3" format="1">
  <advance width="564"/>
  <outline>
    <contour>
      <point x="567" y="549" type="curve" smooth="yes"/>
      <point x="566" y="551"/>
      <point x="563" y="552"/>
      <point x="562" y="550" type="curve"/>
      <point x="184" y="288" type="line"/>
      <point x="153" y="317"/>
      <point x="140" y="347"/>
      <point x="140" y="384" type="curve" smooth="yes"/>
      <point x="140" y="450"/>
      <point x="182" y="488"/>
      <point x="255" y="488" type="curve" smooth="yes"/>
      <point x="293" y="488"/>
      <point x="327" y="478"/>
      <point x="359" y="457" type="curve"/>
      <point x="360" y="457" type="line"/>
      <point x="367" y="457" type="line"/>
      <point x="372" y="474" type="line"/>
      <point x="371" y="475" type="line"/>
      <point x="332" y="497"/>
      <point x="295" y="507"/>
      <point x="254" y="507" type="curve" smooth="yes"/>
      <point x="211" y="507"/>
      <point x="178" y="496"/>
      <point x="155" y="475" type="curve" smooth="yes"/>
      <point x="132" y="454"/>
      <point x="121" y="423"/>
      <point x="121" y="385" type="curve" smooth="yes"/>
      <point x="121" y="342"/>
      <point x="135" y="309"/>
      <point x="169" y="277" type="curve"/>
      <point x="-2" y="158" type="line"/>
      <point x="-4" y="156"/>
      <point x="-4" y="154"/>
      <point x="-3" y="152" type="curve" smooth="yes"/>
      <point x="-2" y="151"/>
      <point x="-1" y="150"/>
      <point x="0" y="150" type="curve" smooth="yes"/>
      <point x="1" y="150"/>
      <point x="2" y="150"/>
      <point x="3" y="151" type="curve"/>
      <point x="566" y="544" type="line"/>
      <point x="568" y="545"/>
      <point x="569" y="548"/>
    </contour>
    <contour>
      <point x="318" y="308" type="line"/>
      <point x="315" y="293" type="line"/>
      <point x="319" y="289" type="line"/>
      <point x="379" y="289" type="line"/>
      <point x="399" y="251"/>
      <point x="409" y="213"/>
      <point x="409" y="171" type="curve" smooth="yes"/>
      <point x="409" y="144"/>
      <point x="404" y="119"/>
      <point x="395" y="97" type="curve"/>
      <point x="214" y="261" type="line"/>
      <point x="199" y="250" type="line"/>
      <point x="386" y="79" type="line"/>
      <point x="360" y="36"/>
      <point x="313" y="12"/>
      <point x="254" y="12" type="curve" smooth="yes"/>
      <point x="167" y="12"/>
      <point x="108" y="59"/>
      <point x="108" y="130" type="curve" smooth="yes"/>
      <point x="108" y="154"/>
      <point x="115" y="177"/>
      <point x="128" y="198" type="curve" smooth="yes"/>
      <point x="126" y="199" type="line"/>
      <point x="98" y="180" type="line"/>
      <point x="92" y="164"/>
      <point x="89" y="146"/>
      <point x="89" y="128" type="curve" smooth="yes"/>
      <point x="89" y="87"/>
      <point x="105" y="53"/>
      <point x="136" y="29" type="curve" smooth="yes"/>
      <point x="165" y="5"/>
      <point x="206" y="-7"/>
      <point x="253" y="-7" type="curve" smooth="yes"/>
      <point x="287" y="-7"/>
      <point x="317" y="0"/>
      <point x="342" y="13" type="curve" smooth="yes"/>
      <point x="366" y="25"/>
      <point x="386" y="43"/>
      <point x="400" y="65" type="curve"/>
      <point x="495" y="-20" type="line"/>
      <point x="495" y="-20" type="line"/>
      <point x="498" y="-21" type="line"/>
      <point x="499" y="-21" type="line"/>
      <point x="503" y="-20"/>
      <point x="508" y="-16"/>
      <point x="511" y="-13" type="curve"/>
      <point x="511" y="-12" type="line"/>
      <point x="511" y="-9" type="line"/>
      <point x="410" y="83" type="line"/>
      <point x="422" y="109"/>
      <point x="428" y="138"/>
      <point x="428" y="171" type="curve" smooth="yes"/>
      <point x="428" y="211"/>
      <point x="421" y="246"/>
      <point x="403" y="288" type="curve"/>
      <point x="403" y="289" type="line"/>
      <point x="536" y="289" type="line"/>
      <point x="540" y="304" type="line"/>
      <point x="537" y="308" type="line"/>
    </contour>
  </outline>
</glyph>
<glyph name="ampersand.2.3" format="1">
  <advance width="564"/>
  <outline>
    <contour>
      <point x="310" y="454" type="line"/>
      <point x="296" y="458" type="line"/>
      <point x="141" y="404" type="line"/>
      <point x="149" y="458"/>
      <point x="189" y="488"/>
      <point x="255" y="488" type="curve" smooth="yes"/>
      <point x="293" y="488"/>
      <point x="327" y="478"/>
      <point x="359" y="457" type="curve"/>
      <point x="360" y="457" type="line"/>
      <point x="367" y="457" type="line"/>
      <point x="372" y="474" type="line"/>
      <point x="371" y="475" type="line"/>
      <point x="332" y="497"/>
      <point x="295" y="507"/>
      <point x="254" y="507" type="curve" smooth="yes"/>
      <point x="211" y="507"/>
      <point x="178" y="496"/>
      <point x="155" y="475" type="curve" smooth="yes"/>
      <point x="135" y="456"/>
      <point x="123" y="429"/>
      <point x="121" y="397" type="curve"/>
      <point x="-1" y="355" type="line"/>
      <point x="-3" y="354"/>
      <point x="-4" y="351"/>
      <point x="-4" y="349" type="curve" smooth="yes"/>
      <point x="-3" y="348"/>
      <point x="-1" y="347"/>
      <point x="0" y="347" type="curve" smooth="yes"/>
      <point x="1" y="347"/>
      <point x="1" y="347"/>
      <point x="2" y="347" type="curve"/>
    </contour>
    <contour>
      <point x="568" y="548" type="curve" smooth="yes"/>
      <point x="567" y="551"/>
      <point x="565" y="552"/>
      <point x="563" y="551" type="curve"/>
      <point x="392" y="492" type="line"/>
      <point x="402" y="486" type="line"/>
      <point x="565" y="543" type="line"/>
      <point x="568" y="544"/>
      <point x="569" y="546"/>
    </contour>
    <contour>
      <point x="318" y="308" type="line"/>
      <point x="315" y="293" type="line"/>
      <point x="319" y="289" type="line"/>
      <point x="379" y="289" type="line"/>
      <point x="399" y="251"/>
      <point x="409" y="213"/>
      <point x="409" y="171" type="curve" smooth="yes"/>
      <point x="409" y="144"/>
      <point x="404" y="119"/>
      <point x="395" y="97" type="curve"/>
      <point x="196" y="277" type="line"/>
      <point x="163" y="305"/>
      <point x="146" y="331"/>
      <point x="141" y="363" type="curve"/>
      <point x="123" y="356" type="line"/>
      <point x="129" y="323"/>
      <point x="147" y="296"/>
      <point x="178" y="268" type="curve"/>
      <point x="178" y="267" type="line"/>
      <point x="120" y="234"/>
      <point x="89" y="186"/>
      <point x="89" y="128" type="curve" smooth="yes"/>
      <point x="89" y="87"/>
      <point x="105" y="53"/>
      <point x="136" y="29" type="curve" smooth="yes"/>
      <point x="165" y="5"/>
      <point x="206" y="-7"/>
      <point x="253" y="-7" type="curve" smooth="yes"/>
      <point x="287" y="-7"/>
      <point x="317" y="0"/>
      <point x="342" y="13" type="curve" smooth="yes"/>
      <point x="366" y="25"/>
      <point x="386" y="43"/>
      <point x="400" y="65" type="curve"/>
      <point x="495" y="-20" type="line"/>
      <point x="495" y="-20" type="line"/>
      <point x="498" y="-21" type="line"/>
      <point x="499" y="-21" type="line"/>
      <point x="503" y="-20"/>
      <point x="508" y="-16"/>
      <point x="511" y="-13" type="curve"/>
      <point x="511" y="-12" type="line"/>
      <point x="511" y="-9" type="line"/>
      <point x="410" y="83" type="line"/>
      <point x="422" y="109"/>
      <point x="428" y="138"/>
      <point x="428" y="171" type="curve" smooth="yes"/>
      <point x="428" y="211"/>
      <point x="421" y="246"/>
      <point x="403" y="288" type="curve"/>
      <point x="403" y="289" type="line"/>
      <point x="536" y="289" type="line"/>
      <point x="540" y="304" type="line"/>
      <point x="537" y="308" type="line"/>
    </contour>
    <contour>
      <point x="254" y="12" type="curve" smooth="yes"/>
      <point x="167" y="12"/>
      <point x="108" y="59"/>
      <point x="108" y="130" type="curve" smooth="yes"/>
      <point x="108" y="182"/>
      <point x="138" y="226"/>
      <point x="193" y="255" type="curve"/>
      <point x="386" y="79" type="line"/>
      <point x="360" y="36"/>
      <point x="313" y="12"/>
    </contour>
  </outline>
</glyph>
<glyph name="ampersand.3" format="1">
  <advance width="564"/>
  <outline>
    <contour>
      <point x="318" y="308" type="line"/>
      <point x="315" y="293" type="line"/>
      <point x="319" y="289" type="line"/>
      <point x="379" y="289" type="line"/>
      <point x="400" y="251"/>
      <point x="409" y="213"/>
      <point x="409" y="171" type="curve" smooth="yes"/>
      <point x="409" y="144"/>
      <point x="404" y="119"/>
      <point x="395" y="97" type="curve"/>
      <point x="281" y="200" type="line"/>
      <point x="268" y="187" type="line"/>
      <point x="386" y="79" type="line"/>
      <point x="360" y="36"/>
      <point x="313" y="12"/>
      <point x="254" y="12" type="curve" smooth="yes"/>
      <point x="205" y="12"/>
      <point x="165" y="27"/>
      <point x="139" y="53" type="curve"/>
      <point x="126" y="38" type="line"/>
      <point x="129" y="35"/>
      <point x="132" y="32"/>
      <point x="136" y="29" type="curve" smooth="yes"/>
      <point x="166" y="5"/>
      <point x="206" y="-7"/>
      <point x="253" y="-7" type="curve" smooth="yes"/>
      <point x="287" y="-7"/>
      <point x="317" y="0"/>
      <point x="343" y="13" type="curve" smooth="yes"/>
      <point x="367" y="25"/>
      <point x="386" y="43"/>
      <point x="401" y="65" type="curve"/>
      <point x="495" y="-20" type="line"/>
      <point x="495" y="-20" type="line"/>
      <point x="498" y="-21" type="line"/>
      <point x="499" y="-21" type="line"/>
      <point x="503" y="-20"/>
      <point x="508" y="-16"/>
      <point x="511" y="-13" type="curve"/>
      <point x="512" y="-12" type="line"/>
      <point x="512" y="-9" type="line"/>
      <point x="410" y="83" type="line"/>
      <point x="422" y="109"/>
      <point x="428" y="138"/>
      <point x="428" y="171" type="curve" smooth="yes"/>
      <point x="428" y="211"/>
      <point x="421" y="246"/>
      <point x="403" y="288" type="curve"/>
      <point x="403" y="289" type="line"/>
      <point x="537" y="289" type="line"/>
      <point x="540" y="304" type="line"/>
      <point x="537" y="308" type="line"/>
    </contour>
    <contour>
      <point x="304" y="269" type="line"/>
      <point x="298" y="275" type="line"/>
      <point x="252" y="227" type="line"/>
      <point x="196" y="277" type="line"/>
      <point x="156" y="311"/>
      <point x="140" y="343"/>
      <point x="140" y="384" type="curve" smooth="yes"/>
      <point x="140" y="450"/>
      <point x="182" y="488"/>
      <point x="255" y="488" type="curve" smooth="yes"/>
      <point x="294" y="488"/>
      <point x="328" y="478"/>
      <point x="359" y="457" type="curve"/>
      <point x="360" y="457" type="line"/>
      <point x="367" y="457" type="line"/>
      <point x="372" y="474" type="line"/>
      <point x="371" y="475" type="line"/>
      <point x="333" y="497"/>
      <point x="295" y="507"/>
      <point x="254" y="507" type="curve" smooth="yes"/>
      <point x="211" y="507"/>
      <point x="178" y="496"/>
      <point x="155" y="475" type="curve" smooth="yes"/>
      <point x="133" y="454"/>
      <point x="121" y="423"/>
      <point x="121" y="385" type="curve" smooth="yes"/>
      <point x="121" y="338"/>
      <point x="138" y="303"/>
      <point x="178" y="268" type="curve"/>
      <point x="178" y="267" type="line"/>
      <point x="120" y="234"/>
      <point x="89" y="186"/>
      <point x="89" y="128" type="curve" smooth="yes"/>
      <point x="89" y="107"/>
      <point x="94" y="88"/>
      <point x="102" y="70" type="curve"/>
      <point x="-3" y="-39" type="line"/>
      <point x="-4" y="-41"/>
      <point x="-4" y="-44"/>
      <point x="-3" y="-45" type="curve" smooth="yes"/>
      <point x="-2" y="-46"/>
      <point x="-1" y="-46"/>
      <point x="0" y="-46" type="curve" smooth="yes"/>
      <point x="2" y="-46"/>
      <point x="3" y="-46"/>
      <point x="4" y="-45" type="curve"/>
    </contour>
    <contour>
      <point x="108" y="130" type="curve" smooth="yes"/>
      <point x="108" y="182"/>
      <point x="139" y="226"/>
      <point x="194" y="255" type="curve"/>
      <point x="239" y="213" type="line"/>
      <point x="222" y="195" type="line"/>
      <point x="222" y="195" type="line"/>
      <point x="208" y="181" type="line"/>
      <point x="117" y="86" type="line"/>
      <point x="111" y="99"/>
      <point x="108" y="114"/>
    </contour>
    <contour>
      <point x="567" y="550" type="curve" smooth="yes"/>
      <point x="565" y="552"/>
      <point x="563" y="552"/>
      <point x="561" y="550" type="curve"/>
      <point x="354" y="333" type="line"/>
      <point x="366" y="333" type="line"/>
      <point x="567" y="544" type="line"/>
      <point x="569" y="546"/>
      <point x="569" y="549"/>
    </contour>
  </outline>
</glyph>
<glyph name="at.1.1" format="1">
  <advance width="714"/>
  <outline>
    <contour>
      <point x="259" y="63" type="curve" smooth="yes"/>
      <point x="251" y="63"/>
      <point x="235" y="78"/>
      <point x="229" y="119" type="curve"/>
      <point x="209" y="119" type="line"/>
      <point x="211" y="105"/>
      <point x="213" y="93"/>
      <point x="217" y="82" type="curve" smooth="yes"/>
      <point x="224" y="63"/>
      <point x="235" y="49"/>
      <point x="251" y="36" type="curve"/>
      <point x="252" y="36" type="line"/>
      <point x="262" y="36" type="line"/>
      <point x="262" y="37" type="line"/>
      <point x="287" y="59"/>
      <point x="311" y="87"/>
      <point x="336" y="119" type="curve"/>
      <point x="314" y="119" type="line"/>
      <point x="283" y="81"/>
      <point x="263" y="63"/>
    </contour>
    <contour>
      <point x="593" y="491" type="curve" smooth="yes"/>
      <point x="543" y="541"/>
      <point x="473" y="567"/>
      <point x="390" y="567" type="curve" smooth="yes"/>
      <point x="339" y="567"/>
      <point x="292" y="559"/>
      <point x="250" y="542" type="curve" smooth="yes"/>
      <point x="208" y="525"/>
      <point x="171" y="501"/>
      <point x="141" y="469" type="curve" smooth="yes"/>
      <point x="111" y="437"/>
      <point x="87" y="399"/>
      <point x="71" y="356" type="curve" smooth="yes"/>
      <point x="55" y="312"/>
      <point x="47" y="262"/>
      <point x="47" y="209" type="curve" smooth="yes"/>
      <point x="47" y="112"/>
      <point x="79" y="29"/>
      <point x="141" y="-31" type="curve" smooth="yes"/>
      <point x="202" y="-90"/>
      <point x="287" y="-122"/>
      <point x="387" y="-125" type="curve"/>
      <point x="388" y="-125" type="line"/>
      <point x="399" y="-110" type="line"/>
      <point x="398" y="-105" type="line"/>
      <point x="398" y="-105" type="line"/>
      <point x="193" y="-105"/>
      <point x="65" y="17"/>
      <point x="65" y="213" type="curve" smooth="yes"/>
      <point x="65" y="414"/>
      <point x="196" y="548"/>
      <point x="390" y="548" type="curve" smooth="yes"/>
      <point x="548" y="548"/>
      <point x="650" y="448"/>
      <point x="650" y="293" type="curve" smooth="yes"/>
      <point x="650" y="152"/>
      <point x="575" y="70"/>
      <point x="432" y="56" type="curve"/>
      <point x="438" y="119" type="line"/>
      <point x="419" y="119" type="line"/>
      <point x="408" y="37" type="line"/>
      <point x="408" y="36" type="line"/>
      <point x="409" y="36" type="line"/>
      <point x="492" y="42"/>
      <point x="557" y="66"/>
      <point x="601" y="110" type="curve" smooth="yes"/>
      <point x="646" y="153"/>
      <point x="669" y="215"/>
      <point x="669" y="293" type="curve" smooth="yes"/>
      <point x="669" y="373"/>
      <point x="642" y="442"/>
    </contour>
    <contour>
      <point x="0" y="158" type="line"/>
      <point x="-2" y="158"/>
      <point x="-4" y="157"/>
      <point x="-4" y="154" type="curve" smooth="yes"/>
      <point x="-4" y="152"/>
      <point x="-2" y="150"/>
      <point x="0" y="150" type="curve"/>
      <point x="26" y="150" type="line"/>
      <point x="25" y="158" type="line"/>
    </contour>
    <contour>
      <point x="714" y="158" type="curve"/>
      <point x="666" y="158" type="line"/>
      <point x="662" y="150" type="line"/>
      <point x="714" y="150" type="line"/>
      <point x="716" y="150"/>
      <point x="718" y="152"/>
      <point x="718" y="154" type="curve" smooth="yes"/>
      <point x="718" y="157"/>
      <point x="716" y="158"/>
    </contour>
    <contour>
      <point x="581" y="150" type="line"/>
      <point x="588" y="158" type="line"/>
      <point x="442" y="158" type="line"/>
      <point x="479" y="446" type="line"/>
      <point x="479" y="446" type="line"/>
      <point x="474" y="449" type="line"/>
      <point x="462" y="443" type="line"/>
      <point x="406" y="448" type="line"/>
      <point x="403" y="448" type="line"/>
      <point x="343" y="443"/>
      <point x="292" y="412"/>
      <point x="257" y="358" type="curve" smooth="yes"/>
      <point x="224" y="307"/>
      <point x="206" y="238"/>
      <point x="206" y="162" type="curve" smooth="yes"/>
      <point x="206" y="161"/>
      <point x="206" y="160"/>
      <point x="206" y="158" type="curve"/>
      <point x="94" y="158" type="line"/>
      <point x="95" y="150" type="line"/>
    </contour>
    <contour>
      <point x="424" y="158" type="line"/>
      <point x="364" y="158" type="line"/>
      <point x="389" y="195"/>
      <point x="414" y="237"/>
      <point x="436" y="281" type="curve"/>
      <point x="439" y="281" type="line"/>
    </contour>
    <contour>
      <point x="225" y="166" type="curve" smooth="yes"/>
      <point x="225" y="234"/>
      <point x="242" y="299"/>
      <point x="273" y="347" type="curve" smooth="yes"/>
      <point x="306" y="399"/>
      <point x="352" y="427"/>
      <point x="405" y="428" type="curve"/>
      <point x="456" y="424" type="line"/>
      <point x="450" y="362" type="line"/>
      <point x="447" y="339" type="line"/>
      <point x="409" y="260"/>
      <point x="371" y="200"/>
      <point x="342" y="158" type="curve"/>
      <point x="225" y="158" type="line"/>
      <point x="225" y="161"/>
      <point x="225" y="163"/>
    </contour>
  </outline>
</glyph>
<glyph name="at.2.0" format="1">
  <advance width="714"/>
  <outline>
    <contour>
      <point x="208" y="197" type="line"/>
      <point x="207" y="185"/>
      <point x="207" y="174"/>
      <point x="207" y="162" type="curve" smooth="yes"/>
      <point x="207" y="128"/>
      <point x="210" y="102"/>
      <point x="218" y="82" type="curve" smooth="yes"/>
      <point x="225" y="63"/>
      <point x="236" y="49"/>
      <point x="252" y="36" type="curve"/>
      <point x="252" y="36" type="line"/>
      <point x="262" y="36" type="line"/>
      <point x="262" y="37" type="line"/>
      <point x="288" y="61"/>
      <point x="314" y="90"/>
      <point x="340" y="124" type="curve"/>
      <point x="324" y="133" type="line"/>
      <point x="288" y="85"/>
      <point x="264" y="63"/>
      <point x="259" y="63" type="curve" smooth="yes"/>
      <point x="249" y="63"/>
      <point x="225" y="89"/>
      <point x="225" y="166" type="curve" smooth="yes"/>
      <point x="225" y="173"/>
      <point x="226" y="180"/>
      <point x="226" y="187" type="curve"/>
    </contour>
    <contour>
      <point x="716" y="-38" type="curve"/>
      <point x="532" y="63" type="line"/>
      <point x="559" y="75"/>
      <point x="582" y="91"/>
      <point x="602" y="110" type="curve" smooth="yes"/>
      <point x="646" y="153"/>
      <point x="669" y="215"/>
      <point x="669" y="293" type="curve" smooth="yes"/>
      <point x="669" y="373"/>
      <point x="643" y="442"/>
      <point x="593" y="491" type="curve" smooth="yes"/>
      <point x="543" y="541"/>
      <point x="473" y="567"/>
      <point x="390" y="567" type="curve" smooth="yes"/>
      <point x="340" y="567"/>
      <point x="292" y="559"/>
      <point x="250" y="542" type="curve" smooth="yes"/>
      <point x="208" y="525"/>
      <point x="172" y="501"/>
      <point x="142" y="469" type="curve" smooth="yes"/>
      <point x="111" y="437"/>
      <point x="88" y="399"/>
      <point x="72" y="356" type="curve" smooth="yes"/>
      <point x="55" y="312"/>
      <point x="47" y="262"/>
      <point x="47" y="209" type="curve" smooth="yes"/>
      <point x="47" y="112"/>
      <point x="80" y="29"/>
      <point x="141" y="-31" type="curve" smooth="yes"/>
      <point x="202" y="-90"/>
      <point x="287" y="-122"/>
      <point x="388" y="-125" type="curve"/>
      <point x="388" y="-125" type="line"/>
      <point x="400" y="-110" type="line"/>
      <point x="399" y="-105" type="line"/>
      <point x="398" y="-105" type="line"/>
      <point x="193" y="-105"/>
      <point x="66" y="17"/>
      <point x="66" y="213" type="curve" smooth="yes"/>
      <point x="66" y="414"/>
      <point x="196" y="548"/>
      <point x="390" y="548" type="curve" smooth="yes"/>
      <point x="548" y="548"/>
      <point x="650" y="448"/>
      <point x="650" y="293" type="curve" smooth="yes"/>
      <point x="650" y="182"/>
      <point x="603" y="107"/>
      <point x="513" y="74" type="curve"/>
      <point x="438" y="115" type="line"/>
      <point x="439" y="135" type="line"/>
      <point x="479" y="446" type="line"/>
      <point x="479" y="446" type="line"/>
      <point x="474" y="449" type="line"/>
      <point x="463" y="443" type="line"/>
      <point x="407" y="448" type="line"/>
      <point x="403" y="448" type="line"/>
      <point x="343" y="443"/>
      <point x="293" y="412"/>
      <point x="257" y="358" type="curve" smooth="yes"/>
      <point x="236" y="325"/>
      <point x="221" y="284"/>
      <point x="213" y="239" type="curve"/>
      <point x="101" y="301" type="line"/>
      <point x="99" y="292" type="line"/>
      <point x="712" y="-46" type="line"/>
      <point x="713" y="-46"/>
      <point x="713" y="-46"/>
      <point x="714" y="-46" type="curve" smooth="yes"/>
      <point x="716" y="-46"/>
      <point x="717" y="-46"/>
      <point x="718" y="-44" type="curve" smooth="yes"/>
      <point x="719" y="-42"/>
      <point x="718" y="-39"/>
    </contour>
    <contour>
      <point x="420" y="125" type="line"/>
      <point x="363" y="156" type="line"/>
      <point x="389" y="194"/>
      <point x="414" y="236"/>
      <point x="437" y="281" type="curve"/>
      <point x="440" y="281" type="line"/>
    </contour>
    <contour>
      <point x="273" y="347" type="curve" smooth="yes"/>
      <point x="306" y="399"/>
      <point x="352" y="427"/>
      <point x="405" y="428" type="curve"/>
      <point x="456" y="424" type="line"/>
      <point x="450" y="362" type="line"/>
      <point x="447" y="339" type="line"/>
      <point x="411" y="264"/>
      <point x="375" y="206"/>
      <point x="347" y="165" type="curve"/>
      <point x="230" y="229" type="line"/>
      <point x="238" y="273"/>
      <point x="252" y="314"/>
    </contour>
    <contour>
      <point x="-3" y="353" type="curve" smooth="yes"/>
      <point x="-4" y="351"/>
      <point x="-3" y="348"/>
      <point x="-1" y="347" type="curve"/>
      <point x="36" y="326" type="line"/>
      <point x="39" y="335" type="line"/>
      <point x="3" y="355" type="line"/>
      <point x="1" y="356"/>
      <point x="-2" y="355"/>
    </contour>
  </outline>
</glyph>
<glyph name="at.2.2" format="1">
  <advance width="714"/>
  <outline>
    <contour>
      <point x="479" y="446" type="line"/>
      <point x="474" y="449" type="line"/>
      <point x="462" y="443" type="line"/>
      <point x="406" y="448" type="line"/>
      <point x="403" y="448" type="line"/>
      <point x="343" y="443"/>
      <point x="292" y="412"/>
      <point x="257" y="358" type="curve" smooth="yes"/>
      <point x="256" y="357"/>
      <point x="256" y="356"/>
      <point x="255" y="355" type="curve"/>
      <point x="118" y="355" type="line"/>
      <point x="115" y="347" type="line"/>
      <point x="620" y="347" type="line"/>
      <point x="618" y="355" type="line"/>
      <point x="467" y="355" type="line"/>
      <point x="479" y="446" type="line"/>
    </contour>
    <contour>
      <point x="278" y="355" type="line"/>
      <point x="311" y="402"/>
      <point x="354" y="427"/>
      <point x="405" y="428" type="curve"/>
      <point x="456" y="424" type="line"/>
      <point x="449" y="355" type="line"/>
    </contour>
    <contour>
      <point x="390" y="567" type="curve" smooth="yes"/>
      <point x="339" y="567"/>
      <point x="292" y="559"/>
      <point x="250" y="542" type="curve" smooth="yes"/>
      <point x="208" y="525"/>
      <point x="171" y="501"/>
      <point x="141" y="469" type="curve" smooth="yes"/>
      <point x="111" y="437"/>
      <point x="87" y="399"/>
      <point x="71" y="356" type="curve" smooth="yes"/>
      <point x="55" y="312"/>
      <point x="47" y="262"/>
      <point x="47" y="209" type="curve" smooth="yes"/>
      <point x="47" y="112"/>
      <point x="79" y="29"/>
      <point x="141" y="-31" type="curve" smooth="yes"/>
      <point x="202" y="-90"/>
      <point x="287" y="-122"/>
      <point x="387" y="-125" type="curve"/>
      <point x="388" y="-125" type="line"/>
      <point x="399" y="-110" type="line"/>
      <point x="398" y="-105" type="line"/>
      <point x="398" y="-105" type="line"/>
      <point x="193" y="-105"/>
      <point x="65" y="17"/>
      <point x="65" y="213" type="curve" smooth="yes"/>
      <point x="65" y="414"/>
      <point x="196" y="548"/>
      <point x="390" y="548" type="curve" smooth="yes"/>
      <point x="548" y="548"/>
      <point x="650" y="448"/>
      <point x="650" y="293" type="curve" smooth="yes"/>
      <point x="650" y="152"/>
      <point x="575" y="70"/>
      <point x="432" y="56" type="curve"/>
      <point x="439" y="135" type="line"/>
      <point x="465" y="316" type="line"/>
      <point x="438" y="316" type="line"/>
      <point x="396" y="233"/>
      <point x="353" y="172"/>
      <point x="326" y="135" type="curve" smooth="yes"/>
      <point x="289" y="86"/>
      <point x="264" y="63"/>
      <point x="259" y="63" type="curve" smooth="yes"/>
      <point x="248" y="63"/>
      <point x="225" y="89"/>
      <point x="225" y="166" type="curve" smooth="yes"/>
      <point x="225" y="221"/>
      <point x="236" y="272"/>
      <point x="256" y="316" type="curve"/>
      <point x="235" y="316" type="line"/>
      <point x="216" y="271"/>
      <point x="206" y="219"/>
      <point x="206" y="162" type="curve" smooth="yes"/>
      <point x="206" y="128"/>
      <point x="210" y="102"/>
      <point x="217" y="82" type="curve" smooth="yes"/>
      <point x="224" y="63"/>
      <point x="235" y="49"/>
      <point x="251" y="36" type="curve"/>
      <point x="252" y="36" type="line"/>
      <point x="262" y="36" type="line"/>
      <point x="262" y="37" type="line"/>
      <point x="322" y="93"/>
      <point x="387" y="179"/>
      <point x="439" y="281" type="curve"/>
      <point x="442" y="281" type="line"/>
      <point x="408" y="37" type="line"/>
      <point x="408" y="36" type="line"/>
      <point x="409" y="36" type="line"/>
      <point x="492" y="42"/>
      <point x="557" y="66"/>
      <point x="601" y="110" type="curve" smooth="yes"/>
      <point x="646" y="153"/>
      <point x="669" y="215"/>
      <point x="669" y="293" type="curve" smooth="yes"/>
      <point x="669" y="373"/>
      <point x="642" y="442"/>
      <point x="593" y="491" type="curve" smooth="yes"/>
      <point x="543" y="541"/>
      <point x="473" y="567"/>
    </contour>
    <contour>
      <point x="-4" y="351" type="curve" smooth="yes"/>
      <point x="-4" y="348"/>
      <point x="-2" y="347"/>
      <point x="0" y="347" type="curve"/>
      <point x="42" y="347" type="line"/>
      <point x="44" y="355" type="line"/>
      <point x="0" y="355" type="line"/>
      <point x="-2" y="355"/>
      <point x="-4" y="353"/>
    </contour>
    <contour>
      <point x="714" y="355" type="curve"/>
      <point x="688" y="355" type="line"/>
      <point x="690" y="347" type="line"/>
      <point x="714" y="347" type="line"/>
      <point x="716" y="347"/>
      <point x="718" y="348"/>
      <point x="718" y="351" type="curve" smooth="yes"/>
      <point x="718" y="353"/>
      <point x="716" y="355"/>
    </contour>
  </outline>
</glyph>
